<svg id="Layer_1" data-name="Layer 1" xmlns="http://www.w3.org/2000/svg" viewBox="0 0 1920 3233"><defs><style>.cls-1{fill:#c8543a;}.cls-2{fill:#d47b2d;}.cls-3{fill:#373737;}</style></defs><path class="cls-1" d="M159.31,3232.65c1.23,1.74,4.19.88,3.76-3.82l-4.86-3.5Z"/><path class="cls-1" d="M169.49,3201.43c-2.23-5.59-6.26-12.09-10.93-8.68,4.59,5.62,2.56,6.88,8.06,12.95.43,4.71-1.85,8.13-3.65,7.27,1.22,1.71-1.32,7.25,1.71,9.88,4-6,4.43-13.69,1.51-21.88C167.34,3199.28,168.58,3201,169.49,3201.43Z"/><path class="cls-1" d="M188.83,2743.15l-.63,2.95A10.25,10.25,0,0,0,188.83,2743.15Z"/><path class="cls-1" d="M195.22,2459c.09,2.17.58,3.08,1,3.19C195.94,2460.18,195.65,2458.53,195.22,2459Z"/><path class="cls-1" d="M201.09,2410.52c-.16,1-.23,1.91-.34,2.86A3.61,3.61,0,0,0,201.09,2410.52Z"/><path class="cls-1" d="M188.83,2743.15l1.69-7.56C188.91,2735,189.25,2739.46,188.83,2743.15Z"/><path class="cls-1" d="M159.5,3137.85a13.78,13.78,0,0,0,1.18,4.16c-.17-1.31-.31-2.58-.4-3.89A5.17,5.17,0,0,1,159.5,3137.85Z"/><path class="cls-1" d="M190.48,2868.5l0,2.31a13.13,13.13,0,0,0,2,2Z"/><path class="cls-1" d="M189,2964.65c.24-2.17-4-3-5.78-3.91a6.89,6.89,0,0,1,2.78,4.82A5.54,5.54,0,0,0,189,2964.65Z"/><path class="cls-1" d="M177.26,3116.85l.5,2.72C177.6,3118.87,177.46,3117.68,177.26,3116.85Z"/><path class="cls-1" d="M192.82,2799.7a3.1,3.1,0,0,0,1.52-.84A2.17,2.17,0,0,0,192.82,2799.7Z"/><path class="cls-1" d="M127.81,112a3.06,3.06,0,0,0,.75,0C128.12,111.38,127.81,111.21,127.81,112Z"/><path class="cls-1" d="M145.43,0l.27,1.53a11.58,11.58,0,0,0,2.38.27Z"/><path class="cls-1" d="M206.86,2321.72c0,.17-.05.23-.08.4C207.25,2324.46,207.17,2323.13,206.86,2321.72Z"/><path class="cls-1" d="M198.7,1506.38c-3.63,9.29-5.07-15-9-1C191.29,1504.07,196.42,1517.93,198.7,1506.38Z"/><path class="cls-1" d="M160.13,3135.38c0-1.3,0-2.62.08-3.94A16.71,16.71,0,0,0,160.13,3135.38Z"/><path class="cls-1" d="M189.66,1505.39h0l-.37,1.44Z"/><path class="cls-1" d="M204.59,2117.05a5.92,5.92,0,0,0-1.84,2.09C203.18,2119.07,203.71,2118.6,204.59,2117.05Z"/><path class="cls-1" d="M198.55,2269.5l.58-3.77A17.91,17.91,0,0,0,198.55,2269.5Z"/><path class="cls-1" d="M198.53,2037.91c.32-2.05.9-2.75.33-5.55a3.46,3.46,0,0,0-.52.85C198.92,2034.22,199.19,2035.57,198.53,2037.91Z"/><path class="cls-1" d="M198.06,1955.53a15.71,15.71,0,0,0-.84,1.52l.24,2.61Z"/><path class="cls-1" d="M137.05,362.07a13.18,13.18,0,0,1,3.68-3.91C137.77,359.51,136.35,347.45,137.05,362.07Z"/><path class="cls-1" d="M161.87,3137.88a2.92,2.92,0,0,1-1.74-2.5c0,.94.08,1.85.15,2.74C160.89,3138.38,161.48,3138.45,161.87,3137.88Z"/><path class="cls-1" d="M165.26,2034.68l.6-13.08A125.05,125.05,0,0,0,165.26,2034.68Z"/><path class="cls-1" d="M153.2,952.6l-.57-3A5,5,0,0,0,153.2,952.6Z"/><path class="cls-1" d="M165,1982.79a22.26,22.26,0,0,0,2.87-7.38,5.16,5.16,0,0,0-1.1-1.51Z"/><path class="cls-1" d="M140.77,358.13a0,0,0,0,1,0,0A0,0,0,0,0,140.77,358.13Z"/><path class="cls-1" d="M128.29,272.27c.24,12.47,5.59,5.7,8.85,8.25,2,14.83-3.88,7-6.57,12.14,1.73,9.25,7,16.23,7,23.16-.89.54-1.19,1.9-2.38.35,4.69,9.7,1.06,29.14,6.91,40.43a3.53,3.53,0,0,1-1.33,1.53,10.36,10.36,0,0,1,7.55-2c.26,5.58,3.8,10.27.24,12.47,0-3.43-1.46-3.67-2.64-5.24l1.74,5.81c-5,5.42-2-7.94-5.88-7.83,2,11.36,6.71,24.55,5.49,33.33-5,2-2.3-20.4-6.49-8.6l1.56-13.59c-7.74,10.57.32-8.24-8,1.51-1,17.85,3.17,19.85,2.18,37.65,2.94,3.92,4.15-1.44,7.09,2.48,5.78,25.11-12.25,20.24-5,38.61,3.53,4.72,10,6.4,7,19.71l-5.88-4.34c-.1,17.26,8.55,9.61,5.17,27.78-2.35-3.15-2.28-13.5-2.89-10.87-4.22,11.82,3.49,8.18,3.74,17.17l-5.05,2c1.31,18.33,5.55,38.45,7.05,58.76-1.55-1.08-3.24-4.52-4.67.28,3.27,25.57.89,54.76-1.51,79.57l4.65,9.33c0,2.2-1.88,4.14-2.79,1.78-1.42,9.68,2.8.42,4.65,5,.45,5.48-2.34,7.31-3.75,3.87,4.17,16.91,9.3,48.25,5.06,66.3l-1.4-3.47c-1.42,14,9.43,15.52,5.66,28.57l-.84-2.46c-1.11,30.34,3.8,63.72-2.31,87,6.44,4.24-2.11,30,6.78,31.79-4,17.4-5.66,12.48-8,36.91C149,914,155,917,156.15,925l-4.62.31,5.11,10.8-5.38,5.94,1.37,7.52c.19-3,1.92-6.44,3.26-6,2.38,11.73-2.53,28.8-4.89,29.15l4.58,27.79c-1.87-.58-2.62-5.23-3.9-8.9,5.08,14.77-4.8,2.82-.15,16.35,1-1.85,2.78.93,3.72,1.22-2.64,6.86-2.34,22.33-.91,33.76l-3.24-2.13c-.36,20.7,2.47,43.56,2.92,66.77,1.3-8.36,6.87-6.56,7.54.23l-4.82,2.83c3.11,4.33,1.69-7.15,5.58,1.79-.38,8.68-5.43,6-7.13,1l1.92,10.5c-1.44.65-2.26-1.81-4.14-2.41,3.13,4.26-4.51,18.3.9,24.42l-1.44.63c.46,23.2,2.36,33.69,3,52.58,4.22.28,3.45,7.69,7,13.26-1.09,13.91-4.12,29.39-3.45,46.12,2.31,11.72,3.64,3.37,6.24,8.6-3.83.94-3.16,17.65-6.08,9,1,20.08,1.24,25.64,4.83,51,1.53-2.79,2.15-5.9,3.49-4.32.72,4.6-1.41,10.52-3.27,9.89l-.42-1.21c6.28,28.42-10,66-1.57,88.57l-.41-1.27,4.52,23.48c-.5,10.84-3-6.45-5.24,1.61,6.79,25.29-.32,40.14,4.26,61-11.09,16.36,1.66,57.44-5.25,79.39l2.65-1.3c2.7,5.61-1.42,6.86-2,11,2.06-.62,2.31-6.16,3.81-2.68,2,23.91,1.26,48.61-.13,73.47s-3.51,49.87-4.45,74.41c-.52,17.94,13.92,10,7.8,32.72l-5-6.37c3.17,18.07,3.33,36.58,3.35,55s-.2,36.73,2.44,54.43c-1.16-2.1-2.65-2.15-2.65-5.61-3.55,7.51,0,27.68,2.94,27.79-.3,5.52-2.65,1.3-4.12,4.71-2.07,7.52,4.72,18.81,1.16,22.83-.58.68-1.18-2.1-1.47-3.48,1.78,4.89-.29,22.8,3.83,18.09-1.9,13.32,2,25.44-.38,36.06,4.69,6.9-2.09,22.78,4.49,24.95-6.8-.92-5.29,23.34-2.13,31.75-2.05-2.81-2.12,7.32-5,4,.11,9.6,1.38,18.39,4.87,16.7-8.1,17.71,6.58,35.53-3.81,45.51,3.69,28.5,6.19,54.89,7.81,80.54-6.76-.92-.71-28.35-7.81-27.25,2.82,24.33,8.65,38.37,7.05,62.5-.92,6.25-2.94-3.55-4.1-5.66,1.44,12.15,1.23,23.9,1.13,35.32s-.06,22.49,1.74,33.31c-.63-.06-1.31-2.39-1.82-4.6.2,4.27-1,9.91,2,9.44l-.81-4.16c4.49-6.79,9.25,17,11.61,17.73-8.79-7.26-2.31,21.36-13.4,9.83.57,2.81,2,6.33,4.07,5.7-.61,4.16-1.82,5.47-4.14,1.24,1.61,15.28,4.9,9.87,4.77,23.7-1.49,0-2.05-2.85-3.79-4.29,2.87,7,5.75,14.07,4.44,25.76-.9-.71-2.07.64-2-2.85.36,20.08,7.59,34.27,4.69,56.29-6.44-6.54-2.16,7.48-7.76,8.6l1.58,11.86,2.76-4.73c-.2,10.37,3.79,19.57,1.86,28.48l-2.23-7.73.87,19.45,2.23-11c2.78,10.53,7.1-1.06,5.4,12.74-.54-2.82-.17,10.38-3.53,15.76,0,0,0,0,0,0,1.73,5.15,3.55,10.45,2.08,18.11-1.81,2-6.17-1.66-7.38-.37,4.63,5.1,1.05,24.31,6,30.77-1.15-2.15-4.08-2.29-4.69-1.59l3.76,4.29c-1.27,4.79-1.86,5.49-4.2,4.68-.84,14.45,7.15-4.51,3.92,12.61-.3-1.35-.88-.71-1.42-3.52-1.77,17.22,2.07,33.32,0,49.14-5.68,4.6-1.24-13.85-6.05-8.56.4,11.42,2,23.26,3.24,35s2.11,23.39,1.27,34.43l.69-4.11c7.9,3.18-4.21,16.4-.65,27.63-.54-2.75-4.35-3.66-3.47-2.91-1.54,15.12,1.43,31,3.55,53.94l-2-2.88c-2,8.89-1.44,23.47-2.53,33.08,2,2.9,1.57,8.4,4.59,5.11-6.06,14.74-4.74,28.93-3.17,42.71.78,6.89,1.66,13.68,1.63,20.37a53.77,53.77,0,0,1-3.47,19.85c.06-3.15-1.61-7.55-1.67-5l1.34,22.48c3.51-1.7,2.17-2.9,5-7.55,2,2.88,3.43,9.25,3.3,14.81-2.06-10.14-5.57,0-7.61,4.29,1.08-.71,2.22.81,3.31.46-6.45,11.59,6.92,2.12,2.39,18l-1.8-.89c.79,6,3.06,11.59,2.39,18-4.08,2.59-1.72-6.42-5-6.91,0,9.08,7.17,18.09,3,26.2-1-3.88-.92-9.42-1.93-13.3-4.92,8.83-3.75,9.9-4.66,16.52l.13-.65-2.5,15.31,1.37-3.88c10.18,11.61,1.36,23.17,7.84,38.64-6.13-15-3.69-2.56-8.21-3.81-1.35,3.87-2.91,9.77-4.14,8.05,3.49,7.32-3.18,12,1.94,22.33-1.47.41-.33,7.73-4,6,.92,9.43,2.59-2.15,4.41-1.31a30.59,30.59,0,0,1,1,11.79c-.36,4.19-1.2,8.63-2,13.26-1.58,9.27-2.95,19.34.15,29.85,2.26,18.05,7.09,21.52,9,38.27-2.52,5.56-5.18-4.77-5.18-4.77-2.44,9-2.26,15.86-.85,24.46-1.22-1.77-2.36,0-4.08,2.54.16,6.87,5.18,4.76,2.74,13.74-1.59-1.6-4.13-3.68-5.66-7,1.09,8.13,3.57,16.21,4.62,24.63-2.61,2.13-3.7-5.19-5.27-8.19.85,9.45,1.54,24.46,5.48,27.5l1.63-6c.09,3.44-3.52,1.65-4.17-.91-2.91-8.17,1.76-11.58,3.24-12l.75,6c8.77-5.84-.62-24,.25-36l6.08,5.21-4.79-12.49c1.71-2.56,5.25-4.25,6,1.71,3.35-8.51-2-7.69,1.69-15,.57-.8.85-.42,1.08.34l-1.6-8.47c1.26,1.69,4.45-1.26,3.39,3.88,4.07-15-3.91-24.5,1-30l.34,1.27c-1.45-21-4.51-2.16-9.39-18l11.62-10.25L178.1,3053c.24-2.16.71-6.42,2.52-5.58-2.88-8.13-2,1.31-4.85-3.44,4.55-10.28-1.17-28.74,6.18-30.89-3.39-3.83-2.92,9.88-5.07-1.29,7.92-3-1-12.88,2.78-22.29,4,3,1.63,12,5.46,2.56-6.7-5.92,1.95-18.48.83-26.53-5.44-.52-1.86-17.5-3.36-31,1.81.9,3.6-25.25,5.87-37.72l.91.39c-5.45-2.55-4.11-15.44-5-24.87,3.29.44,4.55,2.16,5.9,7.29l.18-8.84c-1.71-2.13-2.57-4.9-3.07-10.65l4.06,2.31c0-11.77-4.24-23.8-1.21-38.88-3.83-.93-10.9,11.82-13.19-4.23,2.09-.55,5.65-1.07,6.43,3.13-.25-1.38-1.65-4.93-.71-7.67l3.38,6.46c1.65-6.86-2.86-3.66-2.44-9.17,3,.17,2.18-4,4.52-3.2.26,1.41-1.31,4.79-.18,6.92.64-6.21,2.52-13.69,4.8-16.13-1.69.51-4-.07-4.29-4.63,0-11.77,3.63-4,5.26-10.8-2-2.89.25-10.35-4.17-10.63.08-3.45,2.16-4,3.37-5.35-1.84-6.13-.07-28.46-4.9-21.68l-.34,1.56c-.08-.3-.08-.64-.17-1v0c-4.07-20,3.2-41.42,1.63-61.26l1.49.06c-1.5-11.85-.56-26.33-3.61-34.82.07-3.49,2.84-8.21,4.59-6.69-1-9.05-2.57-10.09,0-23.11,2.48,9.12,2.35-3.1,1.78,9.34,1.44-11.73,3.81-14.36-.1-27,3.74,4.34,4.86-8.78,3.79-14.38l-2.8,8.2a113.79,113.79,0,0,1,.28-17.34l5,3.07c6.32-24-9.89-43.46.46-61.65-3.42-6.39-2.59,13-6.61,7.3.78-11,8.06-22.49,8.11-25.95,2.92-15.12-7.14-14.2-5.09-30-1.8,2-6.57,3.88-8.13-8,.77-11.06,7.61-13.54,9-6.54.13,2.65-.45,3.93-1.05,3.81.6,3.58,1.32,8.28,3.3,3.91l-1.77-1.45c1.87-5.47,1.84-20.7,4.72-17.1-1.61-8.37-2.88-3.6-3.87,2.59,2.71-14.17.35-22.17,2.12-36.76-1,2.31-3.1,4.44-3.07,2.13,2.3-21.41-3.33-9.46-4.05-24,2.74-8.23,6.46,3,4.25-11.63,1.87-8.91,4.73-1.86,6.16,1.69-3.37-13.33,2.36-24.86,3-32.47l1.4,7a51.9,51.9,0,0,1-.77-11.13l-3.58,4c.64-4.12.67-7.6,2.15-7.52-2.32-4.25-5.94,3.22-9.09-5.21,1.83-5.48-1.87-16.73,2.86-18.6-1.68,17.26,4.75-1.89,5.45,12.73a30.61,30.61,0,0,1,.13-10.39c.53-.62,1,.58,1.24,1.71,4.29-16.5-5.31-7.61-5.13-24.74,2.66,2.19,5.07-3.95,4.51-6.74-.08,6.9-4.45,3.28-6.47-3,2.12-11-1.49-11.94-1.22-17.69l-1,6.56c-2.65-2.23-2.28-7.72-3.08-15.37,2.07-.65,1.39,6.95,2.32,4.22-4.65-8.5,4.92-19.19,1.82-31,1.82-5.49,5-.52,6.25-5.34-3.41-13.29,3.64-14.38.78-28.34-3.57,4-2.69,4.72-6.19-5.11l2.54,23-5.22-14.73c0,6.92,2.27,14.61,1.67,18.76-2.93-7-2-6.3-5-3,5.36-9.47-3.15-18.78.46-29.73l8.86.34c3.93-16.47-4.59-29.26-2.39-50.64l-1.53,6.87c-3.52-2.87-.51-13.2-1.95-20.12,3,.64,4-3.69,5.88-6.65-2.2.36.18-15.65-5.74-17.58l3.88-9.56c1.58-17.27-8.46-19.68-7.48-36.28,3.23,5,5.32-2.56,7.64,8.56,0-5.55.55-10.53-1.5-10.61,1.85-3.25-4-15.35-1.21-20.46-1.3-2.33-4.4-3.08-4.17-9.3.6-.68,1.47,0,1.47,0-1.45,0-2-9.73-5.28-4.28,9.13-17.11-1-47.7,6.86-62.6-1.07-12.08-2.12-26.65-2.41-37.62.89.7,1.48,0,1.18,2.1,2.66-15.16-8.56-9.25-5.59-26.5,4.73-8.83,2.64,9.13,4.42,3.63,9.73-2.45-1.46-20.78,4.15-32.42l.59,2.8c3.26-8.89-3.83-21.6-3.22-36.08,0,0,.86.69,1.47.07-5-9.86-6.86-28.59-8.4-42.51,3.86,4.3,2.09,6.31,5.93,3.63-.61-6.24-6.2,1.89-7.42-10.56,2-4.08,3.77-13.09,7.89-14.32l.35,11.76c5.29-6.08-.35-15.22.51-21.43l2.35.77c-1-18-6.85-18.2-6.64-37.57l-1.75,2c-5.95-10.51,3.18-8.9-1.27-19.41l5.88-3.26c-1.5-7-6-24.4-7.24-36.9,4.47,7,6.88,21.66,9.58,30.7,0-6.92-.69-23.52-3.65-27.09.6,2.78,2.09,6.28,1.21,9.05q-7.12-12.66-7.21-33.38c11.5,2.3,2.51-36,11.22-46.11-4.61-24.34,1.09-48.43,0-76.85-8.78,10.22-.38-8.29-9.52-6.41-.69-6.61-.57-9.14,0-9.74l5.18-20.15c2.6-4.8,2.12,6.27,4.16,5.63.49-14.51,3.8-6.15,6.09-15.78-3.25,2-4.77-5-3.64-13.25l-4.06,11.7c-5.18-20.18,7.44-17.63,2.3-38l3,6.41c-.93-5.22-1.06-14.89-1.9-24.52s-2.45-19.21-6.22-24.28c1-1.88,3.49-4.37,4.24.23.64-25.06-8.88-55.6-4.7-75.15l2.27,1.86c-.73-4.66-4.36-8.05-2.21-14,.93.29,2.27,1.85,2.36-.32-.82-2.46-4.16-12.34-3-18.55l2.62,5.24c2.48-24.48-6.84-37.37-8.76-57.82,6.59-.08,8.41-19.34,9.26-29l.94.32c.21-28.46-6.51-48.2-9.67-74.48,6.81-16.5,1.8-55.44,5.26-81.81-1.12,4-5.16-.54-5.92-5.19,1.2-6.2-5-16.94,1.12-16.1l-.06,2.2c5.83-4.78,4-17.42,3.91-27.32l-8-1.45c10.9-26.14-5.86-67.7,4.11-82.07-2.13-6.19-2.29-13.93-4.42-20.07l4.26.23c.66-17.33,1-26-.54-47.34L190.8,857c0-12.07-12.61-14.93-13.13-26.05l6.26-3.5c-.59-21,4.39-42.49-1.89-63.14.94.32,2.78.89,3.13,4.29-.09-9.91,3.29-38.42-5.32-34.6,5.66-.39,0-21.73-2.8-33l4.22,1.66c-5.59-9.45-7.06-9.72-8.88-23.07.46-3.19,3.27-2.87,2.31,1.37,1.91-10.63-4.17-8.14-2.28-21l2.79,4.71c0-10.89-1.37-10-4.64-15.9-1.85-6.8.52-20.67,4.25-22.38-2.34-1.41-5.57-7.28-4.65-13.73,1.4-.9,2.35,1.41,2.81,2.57,2.37-18.27-5.6-26.92-1.83-39.55a3.12,3.12,0,0,0,2.43-2.18c.3,14.46.39,26.11.06,25,3.85-.11,4.2-11.8,9.78-2.66-3.16-9.29-9.91-25.15-8.42-36.58a5.38,5.38,0,0,1,1.29-1.54l.47,1.16a16.51,16.51,0,0,0-.82-7.17,54.56,54.56,0,0,0,.89-9.46c3.15-1.44,1.35-13.44,1.35-19.27-4.2.6-3.74-7-7,.2.27-.94.53,1.08.82,5a12.6,12.6,0,0,0,.5,2.47,4.75,4.75,0,0,1-.38-.39c.23,3.82.46,8.8.68,14.47-2.27-4.54-4.2-9.3-2-15.8a105.11,105.11,0,0,1-7-8c5.65-8.12,8.41-23.57,12-25.81-2.85-17.71-2.72-41.84-10.94-52.8-1.16-5,2.11-5.87,3.3-7.79.88,2.89.85,6.37,2,7.91-2.31-10-1.62-29.92-7.22-32.18,2.15-12.8,5.3,7,3.9-10.46l1.76,2.32c7.86-34.69-15.72-55.58-5.47-94.08-.62,2.67-.9,4-1.81,4.57C165,268.9,154,223,160.67,179.85c1.24-12.26-2.33-13.48-5.24-20.85l4.46-2.77-5.6-12.59c-4.35-17.95,10.2-31.6,2.3-54.26l-3,3c.34-8.23-2.55-26,1-24.69-.59-.82-3.26-2.6-1.76-5.86l2.36-.32-4.65-20c1.26-15.69,9.48,2.17,9.28-20.66-1.16-8.46-7.61-24-9.1-20.73,0,3.43-1.22,8.79-3.59,9.12L145.7,1.5c-7-1.2-14.34-6.95-18.66,12.23l4.65,13.15-3.26,4.37-.53-11.16c-3,6.43-.07,10.37,2,14.81a8.5,8.5,0,0,0-3.57,5.67l7,12.83c-2.68,1.66-5.58-5.68-6.84,3.1,3.28,6,5.95-6,8.28,4-3,6.44-5.63,4.66-2.7,12-1.76,1.1-3-.44-3.83-3.37,2.35,6.57,1.42,17.52,5.23,20.84-3.72,6.73,1.67,22.37-4.95,21.9,1.64,2,5.53,11.54,6,17.62-8.24-10.9.2,22.82-8.37,20.12,7.35,8,4,29.67,8.4,44.15-.59-.8-1.78-2.37-1.45-3.67-.36,8.23-2.43,10.68-3.62,16,5.9.89,7.61,13.64,11.43,20.43-5.38,10.23-7.07-5.92-12.42-2.6,4.74-.64,5.25,17.36,9.12,13.82-3.29,7.8-1.51,6.68-6.27,10.79,7.38,1.13,1.45,7.13,6.15,13.38-3.31,11.25-6.8,3.07-4.22,15.24C131.21,283.08,128.29,272.27,128.29,272.27ZM149.18,563h-.09c-.17-2.5-.31-4.64-.4-6C148.79,558.23,148.93,560,149.18,563Zm.74,24.46c.08-3,0-6.69-.13-10.61,1.43-.9,3,0,3,2.45C151.73,578,151.05,583.76,149.92,587.44ZM177.7,534.9c.7,3.85-.09,5.18-.94,5.73-.12-1.83-.33-4-.69-6.76-.16-.11-.35-.33-.53-.44A5.31,5.31,0,0,1,177.7,534.9Z"/><path class="cls-1" d="M172,528.09a10.23,10.23,0,0,1-.36-1.59,21.73,21.73,0,0,0-.88,2.34c.46.46.92.93,1.36,1.33Z"/><path class="cls-1" d="M188.09,2746.61l.11-.51a3.24,3.24,0,0,1-.62,1.07C187.79,2746.83,187.92,2746.83,188.09,2746.61Z"/><polygon class="cls-1" points="150.47 925.41 151.53 925.35 150.55 923.23 150.47 925.41"/><path class="cls-1" d="M171,2881.08a3.29,3.29,0,0,0-1.12,1.74C170.15,2882.75,170.55,2882,171,2881.08Z"/><path class="cls-1" d="M168.66,2939.24l-1.69,8.19A69.36,69.36,0,0,0,168.66,2939.24Z"/><path class="cls-1" d="M165.51,2983.93a4.87,4.87,0,0,0,1.78.92.47.47,0,0,0,0-.09Z"/><path class="cls-1" d="M170.32,2272.51a10.43,10.43,0,0,0-.18-1.73C169.34,2266.73,169.65,2269.49,170.32,2272.51Z"/><path class="cls-1" d="M178.94,2484.3a54.73,54.73,0,0,1-1.93-6.82C176.65,2481.24,176.54,2484.17,178.94,2484.3Z"/><path class="cls-1" d="M165.19,2036.12s0,0,.07,0c0-.51,0-1,0-1.46Z"/><path class="cls-1" d="M177.19,2467.63a23,23,0,0,0-.18,9.85C177.33,2474.39,177.8,2470.75,177.19,2467.63Z"/><path class="cls-1" d="M157.86,3177.71l-.24,2.15a.82.82,0,0,1,.67.28Z"/><path class="cls-1" d="M158.29,3180.14l.42,2.41C158.75,3181.45,158.74,3180.49,158.29,3180.14Z"/><path class="cls-1" d="M159.62,3187.62l-.91-5.07C158.65,3184.29,158.45,3186.44,159.62,3187.62Z"/><path class="cls-1" d="M161.67,3118.57l-1.51-.73A2.17,2.17,0,0,0,161.67,3118.57Z"/><path class="cls-1" d="M161.79,3100.56c-.48,4.29-3.59,10.67-2.83,16.69l1.2.59C158,3115,164.24,3104.72,161.79,3100.56Z"/><path class="cls-1" d="M183,3026c-.51,5-1.09,10-1.65,15.05,1.71-2.59,4-6,4.18.87C191,3023,181.81,3045.74,183,3026Z"/><path class="cls-1" d="M186.48,2979.26c.56,8.13,2.37,0,3.28.42C188.4,2974.49,188.05,2973.24,186.48,2979.26Z"/><path class="cls-1" d="M193.23,2641.08l3.82.87C196.6,2635.69,195.56,2641.87,193.23,2641.08Z"/><polygon class="cls-1" points="174.14 2576.19 171.7 2582.24 175.18 2585.18 174.14 2576.19"/><polygon class="cls-1" points="201.87 2538.31 202.38 2541.05 201.1 2530.6 201.87 2538.31"/><path class="cls-1" d="M201.88,1970.16l-4.72,1.92C198,1976.3,203.36,1977.16,201.88,1970.16Z"/><path class="cls-1" d="M195.06,1725c2.33-2.69,3.78-9.61,1.41-13.83C196.2,1716.65,194.42,1722.17,195.06,1725Z"/><polygon class="cls-1" points="189.92 989.52 191.62 994.41 190.08 985.15 189.92 989.52"/><path class="cls-1" d="M187.35,3129.85c1.2,1.71,4.2.92,3.77-3.62l-4.84-3.42Z"/><path class="cls-1" d="M197.54,3099.73c-2.37-5.4-6.56-11.56-11.14-8.16,4.71,5.3,2.78,6.54,8.33,12.33.42,4.56-1.87,7.87-3.67,7,1.21,1.64-1.34,7,1.69,9.53a19.07,19.07,0,0,0,3.39-9.77,25,25,0,0,0-.27-5.56c-.16-1-.36-1.91-.62-2.88s-.63-1.95-1-2.93C195.34,3097.68,196.62,3099.33,197.54,3099.73Z"/><path class="cls-1" d="M159.87,2656.71l-.25,2.91A9.4,9.4,0,0,0,159.87,2656.71Z"/><path class="cls-1" d="M140,2382.39c.22,2.08.76,2.93,1.22,3C140.74,2383.48,140.36,2381.9,140,2382.39Z"/><path class="cls-1" d="M143.42,2335.26c-.12,1-.17,1.87-.25,2.78A3.39,3.39,0,0,0,143.42,2335.26Z"/><path class="cls-1" d="M159.87,2656.71l.69-7.49C158.9,2648.9,159.81,2653.1,159.87,2656.71Z"/><path class="cls-1" d="M184.87,3038.88a12.67,12.67,0,0,0,1.47,3.91c-.27-1.25-.5-2.45-.68-3.7A5.77,5.77,0,0,1,184.87,3038.88Z"/><path class="cls-1" d="M180,2776.42l.33,2.22a12.82,12.82,0,0,0,2.26,1.55Z"/><path class="cls-1" d="M193.78,2868.83c-.1-2.12-4.38-2.3-6.31-2.86a6.7,6.7,0,0,1,3.47,4.19A5.64,5.64,0,0,0,193.78,2868.83Z"/><path class="cls-1" d="M201,3017.28c.26.86.5,1.73.72,2.6C201.54,3019.2,201.31,3018.06,201,3017.28Z"/><path class="cls-1" d="M171.56,2710.28a3.12,3.12,0,0,0,1.37-1A2.17,2.17,0,0,0,171.56,2710.28Z"/><path class="cls-1" d="M167.52,109.37a4.21,4.21,0,0,0,.75-.08C167.8,108.79,167.48,108.65,167.52,109.37Z"/><path class="cls-1" d="M176.47-.14l.4,1.46a11.85,11.85,0,0,0,2.38,0Z"/><path class="cls-1" d="M146.54,2249.33c0,.17,0,.23-.07.38C147,2252,146.88,2250.69,146.54,2249.33Z"/><path class="cls-1" d="M174.16,1461c-4.4,8.66-3.78-14.89-8.92-1.74C167,1458.08,170.92,1471.91,174.16,1461Z"/><path class="cls-1" d="M185.32,3036.47c-.1-1.25-.19-2.51-.21-3.78A14.77,14.77,0,0,0,185.32,3036.47Z"/><path class="cls-1" d="M165.24,1459.22h0l-.5,1.37Z"/><path class="cls-1" d="M144.25,2051.53a5.92,5.92,0,0,0-1.88,2C142.8,2053.46,143.34,2053,144.25,2051.53Z"/><path class="cls-1" d="M137.34,2199l.51-3.66A16.83,16.83,0,0,0,137.34,2199Z"/><path class="cls-1" d="M140.14,1974.81c.38-2,1-2.63.5-5.36a3.37,3.37,0,0,0-.54.81C140.65,1971.25,140.88,1972.57,140.14,1974.81Z"/><path class="cls-1" d="M142.9,1895.07a13.39,13.39,0,0,0-.9,1.43c0,.8.08,1.72.12,2.54Z"/><path class="cls-1" d="M185.13,350.41a13.32,13.32,0,0,1,3.68-3.81C185.85,347.94,184.44,336.29,185.13,350.41Z"/><path class="cls-1" d="M187.23,3038.75a2.85,2.85,0,0,1-1.91-2.28c.08.9.21,1.77.34,2.62C186.29,3039.3,186.89,3039.32,187.23,3038.75Z"/><path class="cls-1" d="M107,1970.57l1-12.71A115.47,115.47,0,0,0,107,1970.57Z"/><path class="cls-1" d="M176.53,921.91l-.34-2.93A4.82,4.82,0,0,0,176.53,921.91Z"/><path class="cls-1" d="M108.63,1920.07a21.82,21.82,0,0,0,3.2-7,5,5,0,0,0-1-1.52Z"/><path class="cls-1" d="M188.85,346.58s0,0,0,0S188.84,346.6,188.85,346.58Z"/><path class="cls-1" d="M175.07,263.86c.46,12,5.69,5.35,9,7.73,2.27,14.29-3.75,6.86-6.35,11.89,1.9,8.88,7.32,15.52,7.43,22.22-.89.55-1.16,1.86-2.38.39,4.82,9.29,1.71,28.12,7.43,39a3.61,3.61,0,0,1-1.34,1.5,10.66,10.66,0,0,1,7.55-2c.26,5.41,3.8,9.93.24,12.09,0-3.32-1.46-3.55-2.64-5.06l1.74,5.61c-5.05,5.28-2-7.68-5.88-7.54,2,11,6.71,23.74,5.49,32.26-5,1.91-2.3-19.75-6.5-8.32l1.57-13.16c-7.74,10.26.32-8-8,1.5-1,17.25,3.16,19.17,2.18,36.38,2.94,3.8,4.15-1.38,7.09,2.42,2.91,12.16-.13,17-3.11,21.1s-5.68,7.29-2.18,16.21c3.45,4.59,9.91,6.31,6.66,19.16L187.25,453c-.37,16.68,8.39,9.43,4.73,27-2.3-3.09-2.07-13.11-2.72-10.57-4.42,11.36,3.36,8,3.46,16.68l-5.08,1.84c.25,4.44.71,9,1.21,13.63s1,9.36,1.55,14.15c1.1,9.58,2.22,19.4,2.65,29.25-1.51-1.1-3.1-4.47-4.68.12a235.69,235.69,0,0,1,.13,38.8c-1.08,13.13-2.87,26.13-4.59,38.07l4.24,9.22c-.09,2.13-2.06,3.91-2.87,1.59-1.84,9.3,2.78.54,4.43,5.06.21,5.32-2.65,7-3.92,3.57.86,4.14,1.74,9.15,2.5,14.61s1.44,11.37,1.7,17.3c.6,11.87.13,23.83-2.49,32.44l-1.2-3.43c-2.2,13.46,8.56,15.53,4.07,28l-.7-2.43c-.7,7.32-1,14.84-1.26,22.36s-.48,15-.8,22.3C187,787,185.73,800.68,182,811.72c6.15,4.53-4,28.89,4.67,31.19-5.22,16.54-6.56,11.67-10.69,35.1-.73,6.27,5,9.66,5.57,17.5l-4.63,0,4.31,10.82-5.81,5.33.82,7.37c.42-2.89,2.38-6.07,3.69-5.56,1.54,11.53-4.81,27.63-7.16,27.78l2.33,27.2c-1.82-.7-2.2-5.26-3.17-8.9,3.87,14.68-5,2.33-1.47,15.78,1.15-1.71,2.7,1.12,3.61,1.47-3.19,6.42-4,21.39-3.57,32.54l-3-2.32c-2.1,20-1.2,42.27-2.7,64.73,2-8,7.39-5.75,7.5.87l-5.05,2.32c2.74,4.45,2.28-6.76,5.41,2.21-1.1,8.36-5.91,5.28-7.18.35l1,10.32c-1.49.5-2.11-1.94-3.92-2.69,2.77,4.39-6.1,17.27-1.25,23.66l-1.49.48c-1.59,22.44-.62,32.74-1.64,51,4.19.65,2.76,7.74,5.78,13.43-2.31,13.35-6.69,28-7.5,44.25,1.27,11.53,3.32,3.58,5.45,8.88-3.89.56-4.7,16.76-6.85,8.17-.77,19.49-1,24.89.27,49.71,1.77-2.56,2.67-5.51,3.87-3.86.3,4.51-2.36,10-4.15,9.26l-.31-1.21c3.71,28-15.86,62.89-9.49,85.46l-.3-1.26,2.48,23.11c-1.43,10.44-2.42-6.5-5.36,1.08,4.58,25.06-3.77,38.8-1,59.37-12.41,14.88-3.25,55.7-11.88,76.39l2.75-1c2.23,5.66-2,6.52-2.87,10.51,2.11-.43,2.81-5.77,4-2.27,0,11.65-.65,23.44-1.72,35.31s-2.56,23.83-4.15,35.83c-3.21,24-7.16,48.07-9.85,71.8-1.72,17.39,13.21,10.71,5.58,32.29l-4.58-6.52c2,17.74.86,35.7-.33,53.57s-2.24,35.66-.58,53c-1-2.11-2.52-2.24-2.34-5.6-4,7.09-1.52,26.89,1.41,27.14-.6,5.35-2.71,1.12-4.37,4.36-2.53,7.19,3.78,18.52,0,22.24-.61.64-1.08-2.1-1.31-3.45,1.55,4.84-1.34,22.15,3,17.77-2.51,12.86.84,24.81-2,35,4.38,6.9-3.17,22.06,3.38,24.43-6.75-1.17-6.13,22.5-3.18,30.78-2-2.8-2.34,7-5.08,3.76-.18,9.34.83,17.94,4.36,16.4-4.31,8.49-2.93,17.19-1.81,24.92a51,51,0,0,1,.81,10.76,12.14,12.14,0,0,1-4,8.51c1.59,13.92,2.89,27.3,3.94,40.33q.8,9.77,1.4,19.29t1.16,18.88c-3.35-.48-3.59-7.38-3.64-14s-.25-13.06-3.81-12.57c.6,5.94,1.4,11.24,2.23,16.23s1.8,9.66,2.58,14.32a120.72,120.72,0,0,1,1.74,30.35c-.94,6.08-2.93-3.46-4.07-5.52,1.36,11.84,1.18,23.28,1.11,34.39,0,2.78,0,5.54,0,8.28s.08,5.46.26,8.16a124.65,124.65,0,0,0,1.85,16c-.63,0-1.35-2.32-1.89-4.46.27,4.15-.87,9.67,2.2,9.17l-.89-4c4.38-6.66,9.55,16.37,11.91,17.08-8.9-6.93-1.94,20.8-13.22,9.78.62,2.72,2.12,6.13,4.16,5.47-.54,4.06-1.72,5.37-4.12,1.29,1.87,14.85,5.07,9.5,5.18,23-1.49,0-2.1-2.72-3.87-4.08a63.23,63.23,0,0,1,4,10.74,41.13,41.13,0,0,1,1.15,14.2c-.92-.66-2.05.69-2.13-2.7,1,19.54,8.76,33.06,6.61,54.56-6.66-6.09-1.9,7.36-7.46,8.71.69,3.82,1.31,7.64,2.06,11.46.82-1.58,1.67-3.15,2.54-4.73.31,10.1,4.9,18.83,3.48,27.57l-2.68-7.39,2,18.86,1.59-10.8c3.39,10.06,7-1.42,6.14,12.05-.71-2.69.43,10.07-2.6,15.5,0,0,0,0,0,0,2,4.89,4.16,9.91,3.15,17.44-1.7,2-6.27-1.21-7.39.12,2.47,2.33,3,8.21,3.77,14.25s1.64,12.24,4.34,15.18c-1.31-2-4.25-1.92-4.8-1.19l4.08,3.87c-.88,4.75-1.42,5.47-3.81,4.87.3,14.08,6.77-4.93,4.9,11.92-.4-1.29-.93-.63-1.7-3.31-.4,16.84,4.7,32.12,3.92,47.63-5.3,5-2.33-13.32-6.7-7.75,1.18,11.06,4.08,22.37,6.5,33.62s4.6,22.4,4.94,33.16l.24-4c8.2,2.19-2.42,16.32,2.32,26.77-.83-2.59-4.72-3-3.77-2.39,0,7.41,1.45,14.83,3.37,23.15s4.47,17.51,7,28.44l-2.35-2.51c-.8,8.84,1.63,22.83,1.8,32.26,2.35,2.51,2.65,7.87,5.21,4.26a50,50,0,0,0-1.71,11,64.43,64.43,0,0,0,.41,10.53,128.19,128.19,0,0,0,4.38,20c3.63,13,7.48,25.51,4.52,38.86-.46-3-2.81-7-2.47-4.55l5,21.3c3.18-2.2,1.67-3.12,3.68-8,2.43,2.44,4.89,8.29,5.67,13.64-3.68-9.37-5.5.88-6.81,5.34,1-.85,2.32.42,3.34-.09-4.48,12.14,7.17.89,5.27,16.86l-1.92-.55c1.75,5.62,4.89,10.58,5.27,16.87-3.61,3.13-2.74-5.87-6.06-5.8,1.49,8.68,9.94,16.15,7.09,24.59-1.62-3.55-2.38-8.87-4-12.42-3.46,9.25-2.14,10.07-2,16.55l0-.64c0,5-.05,10-.11,15l.76-3.92c11.8,9.52,4.91,21.94,13.48,35.8-8.21-13.51-4-1.9-8.66-2.44-.79,3.91-1.48,9.78-3,8.31,2.24,3.25,1.89,6.23,1.78,9.54a16.76,16.76,0,0,0,3.19,11.54c-1.41.6.69,7.44-3.14,6.28,2.16,8.89,2.29-2.41,4.2-1.86a28.72,28.72,0,0,1,2.53,11.16c.18,4.06-.1,8.42-.29,12.95a97.18,97.18,0,0,0,.16,14,46.19,46.19,0,0,0,3.53,14.53c4.31,17.06,9.26,19.93,12.79,35.95-2,5.58-5.61-4.14-5.61-4.14-1.52,8.89-.91,15.44,1.12,23.64-1.34-1.62-2.35.15-3.88,2.73.63,6.59,5.57,4.23,3.67,13.05-1.65-1.45-4.32-3.29-6.1-6.42.88,3.87,1.93,7.7,3,11.58s2.17,7.81,2.91,11.85c-2.51,2.17-4-4.82-5.68-7.62.66,4.51,1.35,10.37,2.39,15.45s2.18,9.38,4.19,10.79l1.48-5.83c.17,3.32-3.48,1.7-4.2-.73-1.52-3.88-1.27-6.68-.37-8.57a6,6,0,0,1,3.12-3.12l1,5.75c4.23-3,3.77-8.83,2.3-15.31-.74-3.25-1.74-6.66-2.53-10a38.66,38.66,0,0,1-1.53-9.46l6.44,4.62-5.68-11.73c1.51-2.6,4.92-4.51,6.1,1.21,2.7-8.51-2.5-7.29.56-14.65.49-.83.81-.48,1.1.24l-2.37-8.07c1.41,1.53,4.31-1.62,3.73,3.46,2.65-14.94-6.14-23.36-1.95-29.21l.48,1.19c-3.78-20.16-4.73-1.62-11.34-16.36l5.2-5.61,5.12-5.65-4.75-1.56c0-2.11-.11-6.28,1.79-5.69-3.89-7.48-1.86,1.52-5.25-2.71,3.25-10.5-4.91-27.48,2.1-30.57-3.86-3.2-1.59,9.92-5.2-.53,3.73-2,3-5,1.74-8.81s-3.3-8.21-2.08-13c4.37,2.32,3.32,11.28,5.77,1.65-7.49-4.69-.7-18.07-3.07-25.64-5.47.36-4.43-16.51-8.08-29.21,1.94.57-.43-24.78-.23-37.08l1,.22c-5.79-1.55-6.55-14.1-9-23,3.32-.11,4.84,1.32,7,6l-1.25-8.48c-2-1.75-3.35-4.27-4.77-9.68l4.39,1.54c-1.84-11.25-8.1-22.05-7.41-37-3.92-.29-9,13.07-13.67-2,2-.86,5.41-1.92,6.82,2-.45-1.28-2.37-4.46-1.86-7.24l4.32,5.66c.59-6.84-3.38-3.06-3.8-8.4,3-.3,1.55-4.21,4-3.77.48,1.31-.56,4.78.87,6.65-.3-6,.4-13.49,2.33-16.18-1.6.75-4,.55-4.92-3.77-1.73-11.27,3-4.34,3.63-11.12-2.4-2.47-1.25-9.94-5.67-9.56-.36-3.31,1.61-4.19,2.65-5.62-2.62-5.6-3.76-27.25-7.66-20.08l-.14,1.54c-.12-.27-.16-.6-.3-.94v0c-6.61-18.69-2.24-40.17-6.29-59l1.48-.13c-2.74-11.22-3.36-25.26-7.29-33.1-.31-3.38,1.95-8.22,3.84-6.94-1.92-8.6-3.67-9.44-2.41-22.24,3.39,8.53,2-3.22,2.72,8.81.22-11.43,2.35-14.18-2.82-26,2.09,1.91,3-.32,3.37-3.68a32.75,32.75,0,0,0-.77-10.53l-2.15,8.16a106.87,106.87,0,0,1-1.07-16.75l5.18,2.53c2.21-11.81-1.11-22-3.87-31.67s-4.95-18.6-.51-27.73c-3.91-5.92-1.56,12.74-6,7.52a47.57,47.57,0,0,1,3.13-15.57c1.65-4.65,3.26-8.37,3.18-10,2-14.76-8-13.24-6.84-28.65-1.67,2-6.33,4.14-8.58-7.24.13-10.75,6.8-13.51,8.57-6.82.28,2.55-.23,3.82-.83,3.74.81,3.42,1.8,7.91,3.52,3.59l-1.85-1.3c1.55-5.39.63-20.08,3.72-16.76-2.1-8-3.09-3.32-3.72,2.7a81.1,81.1,0,0,0,.34-17.66,111.27,111.27,0,0,1,0-17.94c-.91,2.28-2.93,4.43-3,2.19,1.57-20.79-3.65-9-4.86-23,2.46-8.06,6.56,2.66,3.85-11.4,1.57-8.69,4.67-2,6.22,1.41-3.82-12.76,1.52-24.08,1.92-31.43l1.64,6.73a48.63,48.63,0,0,1-1.15-10.71l-3.44,3.94c.49-4,.42-7.36,1.92-7.31-2.38-4.06-5.88,3.27-9.17-4.81,1.74-5.35-2.16-16.15,2.54-18.06-1.38,16.72,4.72-1.93,5.67,12.18a28.52,28.52,0,0,1,0-10c.52-.61,1,.55,1.27,1.63,4-16-5.44-7.24-5.55-23.8,2.69,2.06,5-3.9,4.4-6.6,0,6.67-4.4,3.25-6.52-2.85,1.93-10.64-1.7-11.53-1.53-17.09l-.89,6.35c-2.69-2.13-2.41-7.44-3.35-14.85,2.06-.64,1.51,6.72,2.39,4.07-4.86-8.2,4.8-18.61,1.65-30.06,1.81-5.31,5-.52,6.23-5.18-3.42-12.85,3.69-13.9.87-27.4-3.59,3.87-2.72,4.56-6.18-5l2.46,22.21-5.17-14.27c-.06,6.71,2.22,14.15,1.6,18.17-2.9-6.8-2-6.1-5-2.9,5.39-9.16-3.09-18.21.57-28.8l8.86.38c2-7.95.82-15-.4-22.72s-2.65-16-1.36-26.3l-1.66,6.63c-3.47-2.83-.27-12.79-1.59-19.52,3,.68,4.1-3.49,6-6.32-2.2.31.45-15.13-5.43-17.14l4.06-9.15c.9-8.34-1-13.15-3.08-17.9s-4.16-9.41-3.42-17.43c3.07,4.93,5.39-2.32,7.37,8.5.19-5.36.87-10.17-1.18-10.31,1.95-3.08-3.55-15-.59-19.83-1.23-2.3-4.31-3.14-3.89-9.16.62-.64,1.46.07,1.46.07-1.46-.07-1.71-9.49-5.14-4.33,2.43-4.06,3.69-9,4.34-14.3.33-2.65.49-5.41.59-8.21s.17-5.64.2-8.46c.13-11.29.08-22.33,4.34-29.37-.53-11.74-.91-25.89-.69-36.53.86.72,1.47.1,1.08,2.1,3.34-14.54-8.15-9.4-4.24-26,5.2-8.3,2.14,9,4.22,3.75,9.85-1.85-.33-20.19,5.92-31.13l.43,2.74c3.74-8.41-2.64-21.11-1.25-35.09,0,0,.83.72,1.47.16-4.54-9.85-5.06-28.09-5.68-41.66,3.56,4.41,1.66,6.24,5.68,3.9-.2-6.07-6.32,1.42-6.71-10.71,2.32-3.8,4.64-12.4,8.83-13.32l-.43,11.39c5.68-5.51.67-14.73,1.94-20.67l2.29.9c.27-17.47-5.68-18.08-4-36.79l-1.89,1.83c-5.17-10.61,3.83-8.38.15-18.87l6.11-2.72c-1-6.85-4.2-24-4.53-36.23,3.94,7.16,5.28,21.48,7.31,30.42.48-6.7,1-22.79-1.67-26.47.4,2.74,1.63,6.23.55,8.84-4.11-8.52-5.73-19.49-4.74-32.83,11.29,3.13,5.28-34.59,14.84-43.66-1.3-12,0-23.62,1.69-35.75s4-24.71,4.67-38.48c-9.61,9.11.33-8.05-8.94-7-.13-6.45.2-8.88.83-9.41l6.86-19c3-4.41,1.58,6.23,3.68,5.79,1.71-14,4.3-5.6,7.4-14.7-3.42,1.67-4.34-5.22-2.5-13.12l-5,11c-3.43-20,8.92-16.38,5.55-36.49l2.42,6.46c-.95-10.26,2.81-37.39-3.81-47.87,1.19-1.72,3.87-3.9,4.2.61,2.88-24.15-3.85-54.52,2.06-73l2.1,2c-.31-4.57-3.62-8.18-1-13.68.9.36,2.09,2,2.38-.1-.59-2.45-3-12.3-1.31-18.2l2.15,5.31c4.64-23.44-3.51-36.74-3.62-56.68,6.58.52,10.09-17.93,11.79-27.15l.91.39c2.72-27.5-2.23-47.19-3.05-72.87,8.23-15.36,6.47-53.48,12.14-78.7-1.45,3.82-5.1-1-5.47-5.52,1.74-5.9-3.57-16.81,2.42-15.49l-.23,2.12c6.19-4.14,5.32-16.54,6.05-26.13l-7.82-2c6.49-12.21,6.39-28.72,6.06-43.81s-1.09-28.76,4.43-35.35c-1.68-6.16-1.27-13.67-2.95-19.78l4.23.54c1-8.38,1.69-14.66,2.17-21.44s.77-14.08.66-24.5l2.86,4.37c.76-11.72-11.62-15.34-11.43-26.15l6.47-3c.37-10.22,2.16-20.46,3.25-30.69s1.48-20.46-1.13-30.67c.92.36,2.73,1,2.89,4.35.46-9.63,5.42-37.15-3.38-33.91,5.67-.07,1.19-21.1-1-32.2l4.13,1.82c-5.08-9.46-6.45-9.79-7.72-22.84.6-3.07,3.39-2.63,2.25,1.45,2.37-10.24-3.82-8.1-1.37-20.52l2.59,4.7c.51-10.58-.94-9.76-4-15.64-1.55-6.68,1.42-20,5.22-21.55-2.27-1.46-5.25-7.3-4-13.52,1.44-.82,2.29,1.46,2.7,2.61a49.59,49.59,0,0,0,.71-11.76,88.33,88.33,0,0,0-1.32-9.56c-1-5.9-1.91-11.1.16-17.17a3.1,3.1,0,0,0,2.51-2c-.16,14.06-.43,25.39-.73,24.32,3.85.05,4.57-11.32,9.86-2.22-2.87-9.17-9.12-24.81-7.27-35.87a5,5,0,0,1,1.34-1.46l.43,1.15a15.74,15.74,0,0,0-.6-7,52.17,52.17,0,0,0,1.19-9.17c3.19-1.31,1.77-13,1.95-18.71-4.22.48-3.52-6.94-7,0,.31-.9.5,1.07.67,4.83a12.06,12.06,0,0,0,.42,2.42l-.37-.39c.11,3.72.19,8.57.23,14.08-2.12-4.48-3.91-9.15-1.54-15.41a103,103,0,0,1-6.78-7.89c3-3.88,5.15-9.56,7.08-14.53s3.58-9.25,5.38-10.31c-2.58-17.28-2.06-40.77-10.11-51.5-1.07-4.89,2.21-5.69,3.43-7.55.83,2.82.75,6.2,1.9,7.72-2-9.8-1.45-29.12-7-31.33,2.14-12.45,5.3,6.83,3.9-10.17l1.76,2.26c3.92-16.88,0-30.41-3.64-44.36-.9-3.48-1.79-7-2.53-10.6A102.51,102.51,0,0,1,208.58,323a71.24,71.24,0,0,1,1.89-25.37c-.57,2.6-.83,3.9-1.73,4.47a256,256,0,0,0-.06-32.18c-.61-10.8-1.54-21.65-2.79-32.47-2.3-21.64-4.23-43.2-1.72-64.36a33.84,33.84,0,0,0-.16-7.19,16.3,16.3,0,0,0-1.45-4.66c-1.27-2.62-3-4.62-4.68-8.12l4.28-2.94-6.34-11.89c-5.4-17.12,8.3-31.35-.93-52.82l-2.78,3.16a66.88,66.88,0,0,0-.67-7.27c-.4-2.7-.86-5.53-1.2-8.09-.67-5.12-.85-9.12,1-8.65-.65-.75-3.46-2.25-2.23-5.53l2.33-.5-6.29-19c-.05-15.31,9.62,1.28,7.52-20.87C190.68,10.59,183-3.81,181.77-.53c.27,3.33-.49,8.64-2.81,9.18l-2.09-7.33C169.78.84,162-3.95,159.3,14.93L165,27.15l-2.89,4.51L160.67,21c-2.46,6.46.78,10,3.21,14.06a8.29,8.29,0,0,0-3.09,5.77l8.07,11.75c-2.54,1.82-6-5-6.56,3.56,3.75,5.51,5.43-6.31,8.58,3.17-2.45,6.46-5.23,5-1.71,11.81-1.67,1.2-3-.19-4.1-2.94,1.44,3.06,2.16,7.25,3,11a33.06,33.06,0,0,0,1.52,5.19,7.46,7.46,0,0,0,2.31,3.44c-3.32,6.77,3,21.47-3.65,21.48,1.76,1.85,6.19,10.75,7,16.59-8.86-10,1.55,22-7.16,19.9,3.9,3.66,5.35,10.75,6.46,18.64.61,3.94.9,8.1,1.5,12.12a59.55,59.55,0,0,0,2.57,11.37c-.62-.75-1.87-2.21-1.59-3.48,0,8-2,10.43-3,15.61,5.93.59,8.12,12.84,12.2,19.26-5,10.08-7.29-5.45-12.52-2,4.72-.81,5.91,16.54,9.64,13-3,7.65-1.25,6.51-5.85,10.63,3.71.43,4.14,2.14,4.26,4.48s-.05,5.3,2.32,8.25c-3.09,11-6.74,3.16-3.94,14.85C178.18,274.21,175.07,263.86,175.07,263.86Zm19.39,281.08h-.09l-.21-5.82C194.22,540.33,194.31,542,194.46,544.94Zm0,23.7c.17-2.88.21-6.48.2-10.28,1.46-.82,3,.09,2.87,2.47C196.54,559.53,195.68,565.11,194.44,568.64Zm29.4-50.15c.58,3.77-.25,5-1.11,5.55-.07-1.78-.21-3.86-.49-6.59-.15-.11-.33-.34-.51-.45A5.16,5.16,0,0,1,223.84,518.49Z"/><path class="cls-1" d="M218.34,511.72a9,9,0,0,1-.31-1.55,21.26,21.26,0,0,0-.95,2.25c.44.45.88.92,1.31,1.33Z"/><path class="cls-1" d="M159.59,2660.13l0-.51a2.89,2.89,0,0,1-.47,1.11C159.31,2660.38,159.44,2660.36,159.59,2660.13Z"/><polygon class="cls-1" points="175.8 895.44 176.87 895.46 176.04 893.34 175.8 895.44"/><path class="cls-1" d="M162.85,2791.65a3.15,3.15,0,0,0-.82,1.86C162.29,2793.39,162.56,2792.61,162.85,2791.65Z"/><path class="cls-1" d="M169.85,2847.66l-.4,8.11A62.48,62.48,0,0,0,169.85,2847.66Z"/><path class="cls-1" d="M173.44,2890.88a4.71,4.71,0,0,0,1.9.61s0,0,0-.08Z"/><path class="cls-1" d="M109.17,2202.2a9.88,9.88,0,0,0-.22-1.68C108.08,2196.58,108.44,2199.26,109.17,2202.2Z"/><path class="cls-1" d="M125.18,2407.82a52.86,52.86,0,0,1-2.32-6.5C122.72,2405,122.78,2407.84,125.18,2407.82Z"/><path class="cls-1" d="M106.87,1972s0,0,.08,0c0-.5,0-.93,0-1.42Z"/><path class="cls-1" d="M122.46,2391.75a21.63,21.63,0,0,0,.4,9.57C123,2398.3,123.25,2394.74,122.46,2391.75Z"/><path class="cls-1" d="M185.33,3077.17l-.19,2.06a.85.85,0,0,1,.68.25Z"/><path class="cls-1" d="M185.82,3079.48l.48,2.29C186.31,3080.72,186.28,3079.8,185.82,3079.48Z"/><path class="cls-1" d="M187.33,3086.61l-1-4.84C186.28,3083.45,186.13,3085.51,187.33,3086.61Z"/><path class="cls-1" d="M185.63,3020.23l-1.55-.57A2.19,2.19,0,0,0,185.63,3020.23Z"/><path class="cls-1" d="M184.11,3003c-.09,4.16-2.6,10.54-1.28,16.23l1.25.47C181.65,3017.1,186.93,3006.73,184.11,3003Z"/><path class="cls-1" d="M196.53,2928.77c.17,4.91.24,9.82.31,14.74,1.37-2.72,3.21-6.32,4.26.31,1.5-9.49.69-8.44-.65-7.43S197.29,2938.36,196.53,2928.77Z"/><path class="cls-1" d="M193.51,2883.25c1.72,7.74,2.34-.39,3.3-.09C194.72,2878.37,194.2,2877.22,193.51,2883.25Z"/><path class="cls-1" d="M152.07,2558.15l3.89.43C154.85,2552.61,154.48,2558.66,152.07,2558.15Z"/><polygon class="cls-1" points="127.02 2497.3 125.06 2503.39 128.77 2505.93 127.02 2497.3"/><polygon class="cls-1" points="151.67 2458.45 152.41 2461.05 150.31 2451.09 151.67 2458.45"/><path class="cls-1" d="M146.05,1909.39l-4.79,1.65C141.94,1915.16,147.21,1916.22,146.05,1909.39Z"/><path class="cls-1" d="M153.34,1671.88c2.52-2.44,4.47-9,2.41-13.27C155.09,1663.92,152.91,1669.13,153.34,1671.88Z"/><polygon class="cls-1" points="210.16 960.51 211.47 965.39 210.67 956.3 210.16 960.51"/><path class="cls-2" d="M1926.83,194.75c-3.95,3.19-8.87,9.18-8,16.75,4.54-6.93,4.76-3.66,9.84-12,2.95-.4,4.39,3.39,3.39,6.18,1.35-1.83,4,2.5,6.39-2.14-2.48-6.7-7.05-7.78-12.72-3.64C1925,198,1926.34,196.15,1926.83,194.75Z"/><path class="cls-2" d="M1652.7,153.21l1.75,1A3.23,3.23,0,0,0,1652.7,153.21Z"/><path class="cls-2" d="M1480.58,147.45a2,2,0,0,0,1.88-1.74C1481.26,146.26,1480.27,146.77,1480.58,147.45Z"/><path class="cls-2" d="M1450.92,139.47c.64.24,1.18.33,1.75.49C1452,139.25,1451.31,138.86,1450.92,139.47Z"/><path class="cls-2" d="M1652.7,153.21l-4.5-2.7C1647.78,153.09,1650.48,152.54,1652.7,153.21Z"/><path class="cls-2" d="M1886.28,207.32a5.93,5.93,0,0,0,2.75-1.66,16.16,16.16,0,0,1-2.41.45C1886.51,206.53,1886.42,206.89,1886.28,207.32Z"/><path class="cls-2" d="M1729,151.13l1.4.08a25.54,25.54,0,0,0,1.4-3.13Z"/><path class="cls-2" d="M1787.31,155.05c-1.29-.43-2.42,6.24-3.22,9.12,1-2.69,2.12-3.91,3.33-4.31A20.46,20.46,0,0,0,1787.31,155.05Z"/><path class="cls-2" d="M1877.63,178.36l1.76-.69C1878.93,177.9,1878.18,178.06,1877.63,178.36Z"/><path class="cls-2" d="M1687.3,147a9,9,0,0,0-.39-2.44A6.1,6.1,0,0,0,1687.3,147Z"/><path class="cls-2" d="M65.64,269.25c.1-.47.06-.78.12-1.19C65.35,268.7,65.19,269.17,65.64,269.25Z"/><path class="cls-2" d="M2.55,227.81l1-.23c.28-1.25.56-2.48.73-3.72Z"/><path class="cls-2" d="M1396.65,132.89a1.87,1.87,0,0,0,.25.12C1398.28,132.17,1397.48,132.35,1396.65,132.89Z"/><path class="cls-2" d="M905.6,181.09c6.18,5.4-8.18,8.66.87,14.43C905.41,193,912.92,184.24,905.6,181.09Z"/><path class="cls-2" d="M1885,206.21a12.32,12.32,0,0,1-2.33-.32A3.72,3.72,0,0,0,1885,206.21Z"/><path class="cls-2" d="M906.47,195.52v0l.93.54Z"/><path class="cls-2" d="M1272.88,144.48a9.23,9.23,0,0,0,1.48,2.85A6.08,6.08,0,0,0,1272.88,144.48Z"/><path class="cls-2" d="M1365.7,148.11l-2.33-.77A5,5,0,0,0,1365.7,148.11Z"/><path class="cls-2" d="M1225.85,157.74c-1.28-.42-1.78-1.31-3.39-.27a3.23,3.23,0,0,0,.58.78C1223.57,157.28,1224.35,156.78,1225.85,157.74Z"/><path class="cls-2" d="M1176.22,162.09a11.81,11.81,0,0,0,1,1.26c.48-.17,1-.34,1.54-.5Z"/><path class="cls-2" d="M218.47,276.88a24,24,0,0,1-2.09-6.14C217,275.56,209.53,277,218.47,276.88Z"/><path class="cls-2" d="M1886.84,203.57c-.55,1.64-1.09,2.4-1.89,2.64a11.53,11.53,0,0,0,1.67-.1A4.3,4.3,0,0,0,1886.84,203.57Z"/><path class="cls-2" d="M1228.24,210.94l-7.9-.35A28.87,28.87,0,0,0,1228.24,210.94Z"/><path class="cls-2" d="M577.57,267.72l-1.76.93A1.58,1.58,0,0,0,577.57,267.72Z"/><path class="cls-2" d="M1197.21,213.6a12.53,12.53,0,0,0-4.82-4.27,5.87,5.87,0,0,0-.75,1.82Z"/><path class="cls-2" d="M216.37,270.67a.1.1,0,0,1,0,.07A.1.1,0,0,0,216.37,270.67Z"/><path class="cls-2" d="M163,284c7.63.65,4.1-8.44,6-13.43,9.2-2,3.82,6.77,6.65,11.48,5.82-2,10.59-9.92,14.78-9.38.25,1.47,1,2,0,3.82,6.32-6.77,17.81.51,25.13-8.07a6.06,6.06,0,0,1,.82,2.23,39.48,39.48,0,0,1-.59-12.19c3.39,0,6.48-5.39,7.54.45-2.07-.24-2.32,2.09-3.37,3.86l3.65-2.39c2.89,8.43-5,2.71-5.19,8.88,7.05-2.48,15.34-9.1,20.57-6.56.87,8.18-12.51,2.32-5.65,9.8l-8.13-3.39c5.85,13.06-5-1.06.33,12.88,10.82,2.7,12.31-3.68,23.08-1.06,2.56-4.47-.63-6.72,1.92-11.19,15.51-7.8,11.67,20.75,23.22,10.15,3-5.39,4.29-15.7,12.25-10.16l-2.86,9.19c10.52,1,6.14-13.19,17.07-6.88-2,3.61-8.28,3-6.7,4.09,7.08,7.35,5.09-5.18,10.55-5.12l1.09,8.17c11.21-1.31,23.51-7.14,35.84-8.74-.66,2.43-2.76,5,.15,7.47,7.79-2.12,16.12-2,24.4-.69A171.21,171.21,0,0,1,389.66,283l5.58-7.17c1.34.06,2.57,3.13,1.15,4.53,5.94,2.5.19-4.47,2.94-7.32,3.31-.6,4.51,3.91,2.45,6.09,10.21-6.28,29-13.72,40.18-6.66l-2,2.17c8.6,2.52,9-14.8,17.09-8.54l-1.45,1.3c9.25,1.13,18.87-.2,28-.52s17.73.19,25,5.13c1.05-5.14,5.65-4.26,10.05-3.87s8.57.23,8.73-6.86c10.89,6.34,8,9.06,23.12,12.84,4,.38,5.29-9.22,10.06-11l.62,7.38,6.07-8.2,4.13,8.58,4.44-2.21c-1.85-.31-4.1-3-4-5.19,6.89-3.81,17.74,3.89,18.2,7.66l16.4-7.51c-.15,3-2.9,4.23-5,6.29,8.43-8.21,2.24,7.65,10,.13-1.23-1.59.26-4.44.33-5.95,4.45,4.13,13.82,3.42,20.59,1l-.92,5.19c12.63.32,26.15-4.65,40.18-5.75-5.23-1.93-4.84-10.84-.81-12l2.32,7.64c2.23-5.05-4.54-2.56.38-8.94,5.3.43,4.3,8.54,1.52,11.35l6.12-3.27c.58,2.29-.81,3.65-.93,6.65,2.17-5.08,11.69,6.82,14.7-1.92l.57,2.29c14-1.19,20.11-4.52,31.47-6-.42-6.74,4.18-5.66,7.05-11.42,8.57,1.34,18.37,5.71,28.39,4.15,6.75-4,1.5-5.9,4.29-10.2,1.13,6.06,11.13,4.48,6.35,9.4,12-2.22,15.33-2.75,30.09-9.3-1.92-2.33-3.89-3.23-3.14-5.42,2.67-1.28,6.57,1.92,6.47,4.9l-.66.71c16.18-10.92,41.42,13.71,53.72-.48l-.69.71,13.43-8.14c6.62.36-3.41,5,1.81,8.28,14.16-11.82,24.25-1.1,36.08-9.23,11.65,17,34.34-5,48.67,5.13l-1.21-4.17c2.94-4.52,4.36,2,7,2.7-.71-3.26-4.08-3.43-2.23-6,28.15-8.2,59.87-.13,89.63.66,10.86,0,3.83-22.61,18.42-13.87l-3,8.29c10.35-5.84,21.44-6.87,32.49-7.73s22.06-1.47,32.28-6.52c-1.09,1.94-.89,4.31-3,4.49,5,5.29,16.59-1.3,16.23-6,3.35.22,1.16,4.16,3.42,6.34,4.81,3,10.6-8.4,13.52-2.91.49.9-1.09,2-1.87,2.5,2.67-3.05,13.7-.54,10.29-6.9,8.25,2.43,15-4.33,21.67-1,3.49-7.76,13.94,2.39,14.35-8.2.37,10.88,14.7,7.5,19.31,2-1.41,3.4,4.66,3,3.06,7.72,5.73-.62,10.82-3.06,9.37-8.54,11.61,12.06,20.47-12.12,27.71,4a282.94,282.94,0,0,1,47.35-15.76c.17,10.81-16.92,2.26-15.47,13.54,14.23-5.5,22-15.27,36.68-13.59,3.83,1.24-1.84,4.83-3,6.75a45.23,45.23,0,0,1,10.63-2.5c3.51-.41,7-.53,10.4-.69,6.84-.32,13.46-.81,19.78-4.11,0,1-1.32,2.18-2.59,3.08,2.53-.5,6,1.28,5.47-3.62l-2.42,1.45c-4.47-6.93,9.38-15.39,9.66-19.18-3.64,14.29,13,2.91,7,21.05a6.71,6.71,0,0,0,3.09-6.71c2.54.83,3.42,2.71,1.07,6.58,9-3.12,5.53-8.22,13.83-8.45.07,2.39-1.56,3.37-2.29,6.21,4-4.81,8-9.63,15.11-7.9-.36,1.45.53,3.28-1.57,3.33,6-.59,11-3.93,16.21-6.54s10.58-4.57,17.27-2.54c-3.58,10.47,4.6,3.26,5.56,12.2l7-2.88-3-4.28c6.22,0,11.56-6.64,17-3.83l-4.54,3.79,11.63-2-6.68-3.25c6.21-4.76-.93-11.32,7.44-9-1.67,1,6.26-.06,9.6,5.2,0,0,0,0,0,0,3-2.9,6.18-5.94,10.83-3.78,1.23,2.85-.84,9.92,0,11.82,2.94-7.51,14.55-2.29,18.34-10.27-1.27,1.88-1.3,6.58-.87,7.54l2.51-6.09c2.9,1.93,3.33,2.88,2.88,6.63,8.68,1.09-2.82-11.36,7.52-6.49-.81.49-.42,1.4-2.1,2.33,5.18,1.26,10.17.28,15.07-.64s9.7-1.71,14.45-.18c2.74,9-8.32,2.14-5.15,9.77,6.84-.76,13.94-3.41,21-5.58s14.09-3.74,20.7-2.56l-2.45-1c2.1-12.68,9.75,6.45,16.58.64-1.67.88-2.33,7-1.85,5.58,9,2.35,18.6-2.58,32.53-6.08l-1.83,3.2c5.23,3.15,14,2.29,19.7,4,1.86-3.18,5.14-2.51,3.36-7.34a22.75,22.75,0,0,0,6.36,5.23,16.46,16.46,0,0,0,6.37,2c4.25.42,8.49-.69,12.69-1.89s8.36-2.53,12.39-2.47,7.92,1.47,11.59,5.62c-1.88-.1-4.68,2.54-3.18,2.65l13.62-2.06c-.65-5.6-1.51-3.47-4-8,1.94-3.16,5.94-5.44,9.29-5.2-6.35,3.24-.62,8.88,1.74,12.16-.31-1.73.73-3.52.65-5.26,6.24,10.43,2.06-11,11.14-3.59l-.75,2.86c3.71-1.18,7.35-4.73,11.17-3.58,1,6.53-4.09,2.66-4.79,7.9,5.44.11,11.82-11.25,16.16-4.36-2.47,1.53-5.8,1.27-8.27,2.85,4.68,7.95,5.46,6.13,9.31,7.71l-.37-.21,8.82,4.31-2.13-2.27c4.2-8,7.75-8.4,11.51-8.07s7.73,1.38,12.89-3.51c-10,9.29-2.11,5.8-3.58,13,2.11,2.27,5.39,4.92,4.16,6.84,4.95-5.34,6.62,5.41,13.67-2.42,0,2.36,4.56.76,2.9,6.48,5.79-1.19-.83-4.19,0-7a8,8,0,0,1,7.23-1.21,42.44,42.44,0,0,1,7.59,3.52c5.27,2.76,11,5.2,17.93.57,5.64-1.57,9.22-4.1,12.72-6.67s6.91-5,12.18-6.25c2.8,4.2-4,8-4,8,4.9,4.21,9,4.16,14.53,2.28-1.34,1.85-.55,3.73.59,6.58,4.15.06,4-8,8.87-3.68-1.34,2.42-3.18,6.35-5.54,8.62,5.11-1.35,10.53-4.89,15.84-6.16.64,4.24-4,5.61-6.18,8,5.85-.89,15-1.33,17.83-7.33-1.06-1-2.12-1.95-3.19-2.9,2.09,0,.11,5.64-1.59,6.56-5.61,4.21-6.5-3.33-6.39-5.7l3.79-.9c-1.38-14.14-14.61-.16-21.56-2.11l4.53-9.37-8.61,7c-1.16-2.79-1.39-8.46,2.38-9.42-4.4-5.63-5.09,2.84-8.69-3.25-.36-.92-.07-1.36.44-1.68l-5.47,2.2c1.29-1.93.19-7.1,3.08-5.22-8.25-7-15.66,5.27-18-2.72l.84-.5c-13,1.67-2.23,7.1-12.78,14.38l-4-18.75-2.18,7.11c-1.27-.43-3.76-1.31-2.92-4.16-5.46,4.35.42,3.27-3,7.6-5.4-7.5-17.55,1-17.6-10.74-2.89,5.27,5.48,4.95-1.64,8-.46-12.69-8,1.25-13-5.13,2.46-6.24,7.52-2.21,2.42-8.61-2.33,5.25-5,4.32-7.83,2.31s-5.63-5.11-8.16-4.3c-1.11,8.65-10.89,2.57-19.28,4.66.8-2.94-14.84-6.09-22.17-9.9l.35-1.43c-2.2,8.68-9.85,6.28-15.67,7.75.62-5.25,1.8-7.25,5.07-9.39l-5.36-.34c-1.48,2.73-3.26,4.1-6.8,4.86l1.82-6.47c-7.18-.12-14.88,6.67-23.77,1.74-.88,6.11,6.18,17.49-3.69,21-.16-3.34-.17-9,2.44-10.24-.86.38-3.12,2.58-4.7,1.07l4.2-5.36c-4-2.69-2.46,4.54-5.76,3.83.35-4.73-2.26-3.52-1.57-7.24.88-.41,2.8,2.12,4.18.33-3.71-1.06-8.1-4.12-9.41-7.79.18,2.71-.35,6.37-3.14,6.83-7.14-.06-2.13-5.83-6.17-8.5-1.9,3.16-6.29-.43-6.75,6.64-2.09-.13-2.32-3.45-3-5.4-3.85,3-17.3.14-13.46,7.85l.93.54c-.19.13-.39.13-.62.28h0a17.76,17.76,0,0,1-9.29,2,42.23,42.23,0,0,1-9.31-1.68c-6.2-1.7-12.4-3.9-18.44-2.57l.09-2.38c-7.23,2.48-16,1.27-21.18,6.24-2.12,0-4.92-4.42-4-7.22-5.5,1.69-6.14,4.27-14,.31,5.56-4.09-1.86-3.69,5.68-3-7.09-2.12-8.68-5.92-16.38.49,2.65-6-5.32-7.69-8.72-5.9l5,4.39c-3.81.85-7.14.28-10.52-.26l1.86-8c-7.3-4.89-13.91-.7-20,2.62s-11.81,5.8-17.44-2.23c-3.8,5.63,8,3.84,4.56,10.41-6.69-1-13.82-12.36-15.93-12.36-9.28-4.28-8.41,11.75-18.06,8.92,1.28,2.81,2.57,10.39-4.52,13.23-6.7-.9-8.49-11.75-4.31-14.13,1.61-.28,2.4.6,2.35,1.57,2.15-1.08,5-2.37,2.25-5.4l-.81,2.87c-3.39-2.83-12.63-2.31-10.57-7-5,2.83-2,4.72,1.74,6.11-8.72-3.93-13.46.16-22.4-2.3,1.46,1.52,2.85,4.82,1.45,4.84-13.09-3.11-5.55,5.58-14.28,7.11-5.14-4.18,1.43-10.41-7.3-6.49-5.51-2.74-1.42-7.53.65-9.91-7.88,5.78-15.24-3-19.91-3.83l4.17-2.47a12.59,12.59,0,0,1-6.71,1.59l2.67,5.59c-2.54-.89-4.66-.82-4.72-3.19-2.41,3.83,2.37,9.38-2.51,14.69-3.45-2.78-10,3.54-11.47-3.94,10.58,2.06-1.5-7.55,7.31-9.17-1.67,1-3.76,1-6.31.16-.42-.82.28-1.58.94-2.05-10.35-6.25-4.21,8.77-14.59,9.1,1.11-4.32-2.81-8-4.46-7,4.19-.12,2.35,7-1.31,10.45-6.82-3-7.1,2.82-10.59,2.63l4,1.34c-1.12,4.32-4.46,4-9,5.56-.58-3.29,4.07-2.52,2.34-3.89-4.71,7.77-12-7.08-18.92-1.64-3.49-2.69-.79-8-3.83-9.76-7.71,6-9.07-5.27-17.24-.18,2.8,5.55,3.13,4.13-2.46,10.08l13.62-4.9-8.38,8.87c4.19-.18,8.6-4.15,11.17-3.34-4,4.93-3.6,3.48-1.31,8.1-6.25-8.21-11,5.71-18,.35l-.72-14.16c-10.4-5.7-17.2,8.45-30.36,5.79l4.33,2.17c-1.34,5.74-7.92,1.34-11.93,3.91,0-4.76-2.7-6.27-4.7-9.08.48,3.49-9.48.4-9.93,9.93l-6.24-5.79c-10.63-1.76-10.83,14.37-21,13.58,2.6-5.38-2.22-8.35,4.19-12.57-3.35.22-6.42-.39-6.21,2.89-2.2-2.8-8.74,7.11-12.18,2.88-1.24,2.19-1.28,7.17-5.06,7.08a4,4,0,0,1-.18-2.33c.18,2.33-5.6,3.68-1.88,8.62-11.53-13.82-28.6,3.54-38.66-8.27a158.52,158.52,0,0,1-22.33,5.52c.29-1.45-.2-2.35,1.09-2-9.52-3.52-4.32,14.08-15.14,10.16-6-7.12,5.11-4.65,1.54-7.22-2.92-15.38-12.31,3.29-20.15-5.09l1.6-1.07c-5.85-4.75-12.44,7.16-21.25,6.9a4.27,4.27,0,0,0-.18-2.34c-5.17,8.48-16.16,12.25-24.3,15.29,2-6.33,3.47-3.6,1.26-9.6-3.66,1.25,2.1,9.79-5.21,12.27-2.77-3.07-8.46-5.43-9.85-11.94l7-1.07c-4.48-8.15-9.11,1.22-13,.13l.09-3.77c-10.7,2.33-9.88,11.72-21.57,12.25l1.49,2.7c-5.38,9.94-5.87-4.67-11.48,2.9l-2.9-9.22c-4,2.72-13.73,10.65-21,13.22,3.52-7.44,11.93-11.94,16.94-16.66-4.16.37-14,2.18-15.72,7.06,1.58-1.08,3.44-3.61,5.25-2.34-4.31,7.94-10.63,12.3-18.92,13-.48-18.42-22.06-2.31-29.57-15.84-13.92,8.32-29.34.24-46.27,3.15,7.57,13.56-4.93.94-2.32,15.42-3.87,1.36-5.41,1.28-5.86.37l-13-7.43c-3.31-3.94,3.43-3.62,2.71-6.85-8.81-.19-4.31-5.79-10.47-9.06,1.74,5.1-2.22,7.8-7.38,6.34l7.69,6c-11.32,9.07-11.8-11.13-23.21-2.13l3.38-5c-6,3.38-23.16,2.37-28.08,14.73-1.29-1.56-3.17-5.4-.52-6.75-15.17-.17-32.09,16-44.49,9.94l.78-3.69c-2.69,1.32-4.19,7.21-8.06,4,0-1.5.77-3.68-.55-3.76-1.35,1.38-6.79,7-10.71,5.3l2.76-4.34c-15.08-3.19-21.46,12-33.5,15.68-1-10.52-12.83-12.8-18.72-14l.05-1.51c-17.12.3-28.07,11.45-43.47,17-10.81-10.52-33.58-1.86-49.83-7,2.56,1.73.29,8.24-2.42,9.52-3.86-1.83-9.62,8.13-9.81-1.57l1.33.07c-3.54-9.25-10.91-6.1-16.84-5.91v12.71c-8.46-8.61-18.46-6.16-27.59-3.54s-17.38,5.31-22.16-2.64c-3.52,3.42-8.15,3.72-11.65,7.09l-.24-6.79c-10.46-1.1-15.66-1.6-28.35.78l2.32-5c-7.22,0-8,20.07-14.64,20.83l-2.56-10c-12.6.89-25.75-7.45-37.76,2.33.14-1.49.38-4.44,2.4-4.94-5.95.06-23.17-5.91-20.47,7.92-.51-9.06-13-.36-19.7,3.86l.83-6.71c-5.45,8.71-5.57,11.05-13.53,13.66-1.94-.81-1.83-5.3.75-3.66-6.45-3.32-4.77,6.48-12.57,3.15l2.76-4.36c-6.54-.32-6,2-9.44,7-4.05,2.77-12.44-1.42-13.52-7.45-.8,3.7-4.29,8.7-8.17,7a4.51,4.51,0,0,1,1.5-4.42c-5.49-2.15-9.51-.16-13.12,1.57s-6.81,3.21-10.6,0c-.17-2.21-.67-3.32-1.3-4,8.66.07,15.64.35,15,.85-.1-6.17-7.09-7.18-1.66-15.75-5.51,4.71-15,14.91-21.85,12.09a8.35,8.35,0,0,1-.91-2.12l.7-.7c-1.58-.6-3,0-4.3,1-2.18-1-3.56-1.76-5.64-1.85-.83-5.1-8-2.75-11.48-3,.29,6.75-4.28,5.67,0,11.24-.55-.48.66-.81,3-1.09a3.55,3.55,0,0,0,1.49-.7c-.07.19-.15.4-.24.59,2.29-.19,5.28-.35,8.67-.45-2.74,3.43-5.63,6.31-9.49,2.57-1.79,4.34-3.77,8.79-4.89,10.89-4.78-9.4-14-14.5-15.19-20.34-5.32,1.84-11.58,2.39-17.37,4.07a28.29,28.29,0,0,0-8.16,3.65,19.86,19.86,0,0,0-6.43,7c-3.06,1.57-3.42-3.7-4.51-5.72,1.78-1.24,3.85-1,4.83-2.8-6.11,3.12-17.94.88-19.62,9.7-7.54-4.17,4.5-8-6-6.86l1.49-2.66c-10.09-7.42-18.59-2.05-27.47,2.8s-18.07,9-29.05-.61c1.53,1.19,2.29,1.74,2.54,3.24a65.77,65.77,0,0,0-19.65-3.5c-6.66-.29-13.41.17-20.14.33-13.44.29-26.89.11-39.14-7.42-7-3.18-8.33,2.38-13.19,6.27l-.9-7.35c-2.8,2.57-5.59,5.08-8.4,7.59-5.69,2.49-9.94-2.41-14.56-6.67S65.15,216.1,57.71,221l1.21,5.06c-4.79-1.49-15.85,1-14.36-4.44-.61.82-2.21,4.85-3.82,2.1l.31-3.78c-4.27,1.69-8.54,3.36-12.82,5-8.94-4,3.37-14.74-10-17.27-5.19.78-15.82,9-14.29,11.79a6.47,6.47,0,0,1,4.51,6.82l-4.91,1.34c-2.38,10.95-7.65,21.79,2.84,31.07l9-5.7,1.88,5.72-6.82-.57c3.16,5.57,6.21,1.42,9.33-1.28.27,2.94,1.15,5.09,2.61,6.37,3.09-3.19,6.17-6.33,9.24-9.56.42,4.45-4.63,8.19.39,11.21,4.31-4.48-2.34-10.15,4.18-12.65,3.22,5.48,1.62,9.47,6.65,5.69.29,2.93-.88,4.64-2.83,5.68,4.44-2.95,10.85-.19,13.59-5.85,1.65,3.34,5.1,3.36,7.93,3.79s5.06,1.32,4.3,6.56c1.55-2.39,8-7.53,11.71-7.59-8,11.9,13.78,2.15,10.69,15.48,6.1-10.85,18.63-3.43,28.05-8.94-.57.86-1.7,2.6-2.43,1.95,4.92,1.37,6.09,5,9.15,7.32,1.39-9.32,9.34-10.9,13.94-16.38,5.46,9.5-4.52,10.75-3.25,19.58.26-7.63,11.22-6.81,9.58-13.3,4.29,5.95,3.84,3,5.73,11,1.61-11.66,4.51-1.69,8.87-8.68,6.42,6.19,1.06,11.1,8.75,8C169.89,280.26,163,284,163,284ZM341,268.2v.13l-3.65.43C338.11,268.65,339.17,268.51,341,268.2Zm14.85-.27a42.42,42.42,0,0,0-6.45-.19c-.54-2.32,0-4.73,1.49-4.62C350.1,264.68,353.6,266,355.85,267.93Zm-31.51-46.52c2.31-1,3.09.37,3.41,1.75a25.5,25.5,0,0,0-4,.81c-.07.25-.21.54-.27.83A12.62,12.62,0,0,1,324.34,221.41Z"/><path class="cls-2" d="M320.19,230.26c-.33.15-.52.43-1,.49a13.23,13.23,0,0,0,1.39,1.52c.28-.72.57-1.43.82-2.12C321,230.19,320.58,230.21,320.19,230.26Z"/><path class="cls-2" d="M1654.75,154.4l-.3-.17a2.69,2.69,0,0,1,.61,1A8.13,8.13,0,0,1,1654.75,154.4Z"/><polygon class="cls-2" points="561.3 272.18 561.17 270.48 559.97 272.05 561.3 272.18"/><path class="cls-2" d="M1734.46,182.29a3.34,3.34,0,0,0,.92,1.81A4.36,4.36,0,0,0,1734.46,182.29Z"/><path class="cls-2" d="M1769.08,186.82l4.68,2.88A20.11,20.11,0,0,0,1769.08,186.82Z"/><path class="cls-2" d="M1795.39,192.83a15.6,15.6,0,0,0,.83-2.81s0,0,0-.06Z"/><path class="cls-2" d="M1370,193.08a2.83,2.83,0,0,0-1,.36C1366.6,194.89,1368.22,194.28,1370,193.08Z"/><path class="cls-2" d="M1496.42,172.77a22.25,22.25,0,0,1-4,3.24C1494.66,176.49,1496.42,176.61,1496.42,172.77Z"/><path class="cls-2" d="M1229.11,211c0-.05,0-.06,0-.12-.3,0-.57,0-.87.07Z"/><path class="cls-2" d="M1486.47,176a5.51,5.51,0,0,0,5.91,0C1490.52,175.6,1488.32,175,1486.47,176Z"/><path class="cls-2" d="M1909.66,211.79l1.22.48a2.81,2.81,0,0,1,.34-1.05Z"/><path class="cls-2" d="M1911.22,211.22l1.54-.55C1912.11,210.56,1911.54,210.52,1911.22,211.22Z"/><path class="cls-2" d="M1916,209.54l-3.25,1.13C1913.78,210.88,1915,211.31,1916,209.54Z"/><path class="cls-2" d="M1875.24,203.11l-.76,2.37A7.16,7.16,0,0,0,1875.24,203.11Z"/><path class="cls-2" d="M1864.5,202.25c2.46.93,5.6,6.1,9.36,5.1l.62-1.87C1872.28,208.83,1867.51,198.52,1864.5,202.25Z"/><path class="cls-2" d="M1823.63,166.28c3,1,5.9,2,8.84,3.08-1.26-2.79-2.92-6.54,1.3-6.62C1823.25,153.54,1835.42,168.78,1823.63,166.28Z"/><path class="cls-2" d="M1795.83,159.31c5-.68.35-3.78.76-5.21C1793.22,156.15,1792.41,156.68,1795.83,159.31Z"/><path class="cls-2" d="M1590.94,147.16l.6-6.13C1587.73,141.84,1591.47,143.41,1590.94,147.16Z"/><polygon class="cls-2" points="1551.68 178.51 1555.31 182.34 1557.06 176.72 1551.68 178.51"/><polygon class="cls-2" points="1528.51 134.84 1530.17 133.96 1523.84 136.21 1528.51 134.84"/><path class="cls-2" d="M1184.51,155.34l1.81,7.43C1188.75,161.19,1188.53,152.68,1184.51,155.34Z"/><path class="cls-2" d="M1037.78,177.43c-2-3.6-6.39-5.58-8.56-1.62C1032.58,176,1036.19,178.57,1037.78,177.43Z"/><polygon class="cls-2" points="596.08 208.88 598.83 206.14 593.44 208.66 596.08 208.88"/><path class="cls-3" d="M158.39,3226.23c-1.5-5.5-4-11.83-6.29-8.14,2.75,5.41,1.74,6.78,5,12.59.49,4.72-.53,8.28-1.54,7.52.74,1.65-.3,7.37,1.46,9.85,1.81-6.23,1.6-14-.4-22.1C157.13,3224.18,157.88,3225.85,158.39,3226.23Z"/><path class="cls-3" d="M145.84,2764.19l-.22,3A18.2,18.2,0,0,0,145.84,2764.19Z"/><path class="cls-3" d="M138.81,2477.93c.11,2.18.4,3.08.65,3.19C139.23,2479.1,139,2477.44,138.81,2477.93Z"/><path class="cls-3" d="M140.49,2429c-.06,1.05-.08,1.94-.12,2.89A6.76,6.76,0,0,0,140.49,2429Z"/><path class="cls-3" d="M145.84,2764.19l.58-7.67C145.54,2756,145.91,2760.46,145.84,2764.19Z"/><path class="cls-3" d="M149.6,3162.78a22.35,22.35,0,0,0,.85,4.13c-.17-1.31-.31-2.58-.43-3.89A1.8,1.8,0,0,1,149.6,3162.78Z"/><path class="cls-3" d="M152.28,2890.28l.08,2.32a12.1,12.1,0,0,0,1.14,1.9Z"/><path class="cls-3" d="M156.15,2987.08c0-2.19-2.26-2.87-3.27-3.68a9.19,9.19,0,0,1,1.71,4.72C155,2988.14,155.52,2987.84,156.15,2987.08Z"/><path class="cls-3" d="M157.89,3140.74l.41,2.71C158.18,3142.75,158,3141.56,157.89,3140.74Z"/><path class="cls-3" d="M150.37,2821a1.92,1.92,0,0,0,.77-.91C150.86,2820.07,150.6,2820.42,150.37,2821Z"/><path class="cls-3" d="M83.46,112.66c.16.07.26,0,.4,0C83.61,112.08,83.44,111.91,83.46,112.66Z"/><path class="cls-3" d="M89.66,0l.19,1.55a3.47,3.47,0,0,0,1.27.28Z"/><path class="cls-3" d="M141.33,2339.5l0,.4C141.6,2342.24,141.53,2340.91,141.33,2339.5Z"/><path class="cls-3" d="M136.91,1518.4c-2.09,9.29-2.45-15.17-4.81-1.18C133,1515.92,135.5,1530,136.91,1518.4Z"/><path class="cls-3" d="M149.8,3160.26c-.08-1.3-.15-2.63-.17-4A29,29,0,0,0,149.8,3160.26Z"/><path class="cls-3" d="M132.1,1517.22h0l-.23,1.45C132,1518.07,132,1517.73,132.1,1517.22Z"/><path class="cls-3" d="M136.48,2133.46a6.41,6.41,0,0,0-1,2.11C135.75,2135.5,136,2135,136.48,2133.46Z"/><path class="cls-3" d="M135.74,2287l.23-3.81A31.49,31.49,0,0,0,135.74,2287Z"/><path class="cls-3" d="M132.43,2053.78a20.85,20.85,0,0,0,.13-5.59,5.14,5.14,0,0,0-.27.86A10.35,10.35,0,0,1,132.43,2053.78Z"/><path class="cls-3" d="M131.81,1970.8c-.17.44-.29,1-.44,1.53l.13,2.63Z"/><path class="cls-3" d="M95.25,364.62a12.84,12.84,0,0,1,1.86-3.91C95.57,362.05,94.51,349.9,95.25,364.62Z"/><path class="cls-3" d="M150.86,3162.69a3.36,3.36,0,0,1-1.06-2.43c.06.95.14,1.87.22,2.76C150.36,3163.25,150.68,3163.29,150.86,3162.69Z"/><path class="cls-3" d="M114.66,2050.56l.22-13.19C114.7,2041.06,114.62,2045.85,114.66,2050.56Z"/><path class="cls-3" d="M115,959.61l-.33-3A9,9,0,0,0,115,959.61Z"/><path class="cls-3" d="M114.23,1998.21a36.08,36.08,0,0,0,1.5-7.44,6.43,6.43,0,0,0-.59-1.53Z"/><path class="cls-3" d="M97.13,360.68s0,0,0,0S97.13,360.71,97.13,360.68Z"/><path class="cls-3" d="M88.19,274.12c.46,12.56,3.14,5.78,5,8.37,1.46,14.95-1.89,7-3.18,12.19,1.17,9.32,4.18,16.38,4.36,23.37-.47.54-.59,1.9-1.26.34,2.76,9.79,1.34,29.35,4.75,40.76a3.52,3.52,0,0,1-.68,1.53c1.41-1.93,2.9-2.27,4-1.93.27,5.62,2.28,10.36.44,12.56-.08-3.45-.87-3.71-1.54-5.3l1.07,5.87c-2.56,5.42-1.28-8-3.34-7.93,1.37,11.46,4.21,24.77,3.78,33.62-2.64,1.95-1.74-20.57-3.68-8.72l.48-13.68c-3.86,10.6,0-8.29-4.23,1.47-.06,18,2.2,20,2.13,37.94,1.67,4,2.18-1.42,3.85,2.55,3.73,25.33-6,20.29-1.7,38.85,2,4.77,5.51,6.52,4.2,19.91l-3.24-4.43c.36,17.39,4.79,9.75,3.43,28-1.33-3.18-1.54-13.61-1.81-11-2,11.88,2.07,8.27,2.42,17.33l-2.65,2c1.13,18.48,3.82,38.78,5.06,59.25-.85-1.1-1.82-4.58-2.48.24,2.33,25.78,1.62,55.16.85,80.14l2.67,9.44c0,2.21-.92,4.14-1.45,1.76-.57,9.74,1.5.45,2.58,5.09.35,5.52-1.1,7.35-1.92,3.87,2.6,17.07,5.84,48.69,3.9,66.82l-.81-3.5c-.51,14.1,5.3,15.73,3.52,28.84l-.49-2.49c-.08,30.55,2.94,64.23.07,87.61,3.53,4.34-.73,30.25,4,32.09-1.92,17.49-2.88,12.52-3.86,37.11-.06,6.55,3.18,9.7,3.87,17.79l-2.46.26,2.85,10.94L113.83,949l.79,7.59c.08-3,1-6.46,1.69-6,1.36,11.85-1.13,29-2.38,29.3l2.65,28c-1-.6-1.44-5.3-2.15-9,2.83,15-2.54,2.78,0,16.48.52-1.86,1.49,1,2,1.27-1.33,6.88-1.09,22.47-.28,34l-1.74-2.18c-.1,20.84,1.53,43.91,1.85,67.3.68-8.4,3.66-6.51,4,.35l-2.58,2.77c1.67,4.41.91-7.17,3,1.89-.2,8.74-2.9,5.91-3.8.91l1,10.61c-.77.63-1.21-1.85-2.2-2.49,1.66,4.34-2.41,18.37.47,24.62l-.77.61c.23,23.37,1.31,34,1.56,53,2.26.36,1.8,7.81,3.66,13.47-.63,14-2.3,29.55-2,46.41,1.19,11.85,1.93,3.46,3.29,8.78-1,.44-1.45,4.87-1.83,8.1s-.7,5.26-1.44.89c.35,20.24.43,25.85,2.12,51.45.84-2.78,1.2-5.9,1.9-4.29.34,4.65-.85,10.58-1.84,9.91l-.21-1.23c3.16,28.75-6,66.31-1.9,89.2l-.2-1.28,2.09,23.74c-.43,10.92-1.5-6.56-2.82,1.52,3.24,25.62-.79,40.44,1.31,61.54-6.17,16.27-.1,57.92-4.17,79.92l1.44-1.26c1.34,5.71-.88,6.88-1.25,11.08,1.11-.59,1.34-6.17,2.08-2.62,1.25,48.25-3,99.56-4.65,149-.49,18.1,7.29,10.31,3.78,33.11l-2.62-6.49c.76,9.13,1.1,18.37,1.24,27.64s.13,18.59.07,27.88c-.11,18.57-.28,37,1,54.93-.61-2.13-1.4-2.19-1.39-5.68-2,7.55-.06,27.93,1.51,28-.15,5.57-1.41,1.3-2.19,4.73-1.11,7.58,2.52,19,.62,23-.31.69-.63-2.13-.78-3.51.94,4.93-.16,23,2,18.26-1,13.43,1.06,25.67-.18,36.38,2.53,7-1,23,2.51,25.17-3.62-.93-2.72,23.55-.95,32-1.12-2.83-1.08,7.39-2.62,4.08.13,9.68.87,18.55,2.72,16.84-4.19,17.89,3.91,35.81-1.54,45.92,2.31,28.74,3.91,55.33,5.22,81.18-3.62-.87-.83-28.58-4.59-27.42,1.88,24.53,5.21,38.63,4.73,63-.39,6.31-1.62-3.55-2.27-5.67,1,12.24,1,24.1,1.22,35.61s.47,22.69,1.67,33.57c-.34-.05-.75-2.4-1.07-4.61.2,4.29-.33,10,1.3,9.49l-.53-4.19c2.24-6.91,5.31,17,6.58,17.72-4.84-7.2-.75,21.57-6.92,10.1.37,2.82,1.21,6.35,2.3,5.68-.24,4.21-.85,5.55-2.19,1.32,1.21,15.38,2.83,9.87,3.09,23.82-.8,0-1.17-2.84-2.13-4.26,1.7,7,3.42,14.09,3,25.89-.49-.69-1.09.69-1.15-2.83.7,20.24,4.92,34.41,3.93,56.65-3.6-6.46-1,7.58-3.92,8.83l1.2,11.92,1.32-4.82c.22,10.46,2.64,19.65,1.89,28.66l-1.43-7.74,1.08,19.59.84-11.12c1.82,10.54,3.75-1.24,3.28,12.71-.38-2.82.24,10.46-1.38,16,0,0,0,0,0,0,1.09,5.15,2.23,10.45,1.69,18.2-.91,2-3.35-1.53-4-.2,2.61,5,1.37,24.48,4.21,30.87-.68-2.14-2.25-2.21-2.55-1.49l2.15,4.22c-.51,4.87-.81,5.58-2.08,4.83,0,14.59,3.66-4.73,2.52,12.61-.2-1.35-.49-.7-.88-3.52-.35,17.4,2.25,33.53,1.71,49.52-2.87,4.8-1.13-13.93-3.51-8.46,1.2,23,5.06,47.55,5,69.84l.21-4.16c4.33,2.95-1.59,16.65.76,27.85-.4-2.75-2.46-3.54-2-2.81-.22,15.27,2.06,31.14,4.14,54.21l-1.18-2.83c-.68,9,.22,23.68,0,33.41,1.18,2.84,1.19,8.4,2.66,5-5.21,30.14,5.29,57,1,83.71-.12-3.18-1.21-7.54-1.13-5l1.79,22.58c1.78-1.85,1-3,2.29-7.8,1.2,2.82,2.26,9.18,2.46,14.78-1.59-10.13-3,.19-3.84,4.62.54-.75,1.22.73,1.78.34-2.86,11.93,3.79,1.85,2.16,18.06l-1-.82c.71,6,2.19,11.53,2.15,18.05-2,2.78-1.23-6.39-3-6.74.45,9.14,4.69,17.9,2.86,26.25-.74-3.86-1-9.45-1.68-13.31-2.18,9.11-1.51,10.13-1.67,16.84l0-.66-.58,15.52.53-4c6,11.25,1.87,23.27,6.08,38.55-4-14.86-2.09-2.4-4.55-3.46-.53,4-1.06,10-1.8,8.29,2.22,7.21-1.09,12.22,2.14,22.4-.76.49.21,7.79-1.81,6.22,1,9.45,1.28-2.29,2.29-1.53,3.2,14.51-2,34.44,2.47,55.31,2.18,18,4.94,21.3,6.88,38.06-1,5.72-3-4.54-3-4.54a100.33,100.33,0,0,0,.88,24.66c-.74-1.72-1.25.1-2,2.76.47,6.91,3,4.52,2.21,13.69a25.84,25.84,0,0,1-3.39-6.79c1,8.12,2.78,16.12,3.81,24.54-1.28,2.29-2.26-5-3.26-8,1,9.46,2.16,24.53,4.42,27.38l.54-6.11c.24,3.45-1.78,1.85-2.27-.69-2-8.07.3-11.75,1.07-12.24l.73,6c4.34-6.35-1.65-24.12-1.84-36.23l3.52,4.92-3.23-12.31c.77-2.67,2.56-4.55,3.28,1.41,1.31-8.74-1.47-7.64.08-15.16.26-.83.43-.47.59.29l-1.31-8.44c.76,1.64,2.3-1.5,2,3.73,1.35-15.29-3.41-24.44-1.11-30.27l.25,1.27c-1.91-21.07-2.52-2-6-17.68l5.62-10.88-2.52-2c0-2.18,0-6.49,1-5.73-2-8.05-1,1.42-2.76-3.23,1.84-10.56-2.11-28.86,1.69-31.37-2-3.69-1.06,10.08-2.76-1.06,4.07-3.35-1.19-12.92.37-22.56,2.27,2.86,1.46,12,3,2.32-3.87-5.64.11-18.68-.89-26.73-2.92-.27-1.84-17.52-3.3-31,1,.82.69-25.56,1.29-38.21l.5.36c-3-2.34-2.94-15.37-3.89-24.82,1.77.31,2.53,2,3.5,7.1l-.33-8.91c-1-2.06-1.61-4.82-2.14-10.59l2.27,2.16c-.53-11.84-3.41-23.77-2.47-39.07-2.08-.78-5.28,12.33-7.2-3.75,1.08-.64,3-1.3,3.55,2.91-.19-1.38-1.09-4.9-.71-7.7l2.08,6.38c.58-7-1.68-3.58-1.7-9.14,1.59.06,1-4.15,2.27-3.39.2,1.41-.49,4.86.21,7,.06-6.27.74-13.87,1.85-16.41-.88.57-2.13.07-2.49-4.51-.53-11.85,1.76-4.12,2.33-11.06-1.19-2.83-.3-10.43-2.67-10.55-.1-3.47,1-4.15,1.57-5.51-1.24-6.09-1.24-28.63-3.52-21.64l-.12,1.58c-.05-.29-.07-.64-.13-1v0c-3-20-.05-41.8-1.69-61.72h.79c-1.27-11.88-1.36-26.49-3.32-34.94-.1-3.52,1.19-8.35,2.17-6.88-.87-9.08-1.79-10.07-.89-23.26,1.66,9.11,1.12-3.2,1.3,9.35.31-11.85,1.49-14.57-1.06-27.2,2.15,4.26,2.29-9,1.53-14.58l-1.21,8.33c-.48-6.32-.46-11.85-.45-17.47l2.75,3c2.54-24.29-6.76-43.49-1.87-62.07-2-6.35-.93,13.18-3.27,7.52,0-11.14,3.53-22.85,3.46-26.33,1.07-15.29-4.26-14.13-3.67-30.11-.89,2.06-3.38,4.06-4.58-7.85.06-11.15,3.62-13.8,4.57-6.78.15,2.67-.12,4-.44,3.86.43,3.59,1,8.3,1.88,3.86l-1-1.42c.83-5.55.32-20.87,2-17.31-1.12-8.4-1.65-3.56-2,2.68,1-14.32-.57-22.32,0-37-.47,2.35-1.53,4.53-1.58,2.2.68-21.6-2-9.45-2.77-24.06,1.26-8.35,3.52,2.89,2-11.8.77-9,2.48-2,3.33,1.6-2.14-13.37.63-25.08.78-32.74l.93,7a95.82,95.82,0,0,1-.69-11.19l-1.81,4.07c.24-4.15.16-7.66.95-7.6-1.34-4.25-3.08,3.34-5-5.1.83-5.55-1.38-16.82,1.1-18.78-.51,17.4,2.49-2,3.19,12.73a57.35,57.35,0,0,1-.17-10.46c.27-.63.54.58.7,1.71,1.93-16.68-3-7.59-3.28-24.83,1.46,2.16,2.61-4.05,2.25-6.86.11,7-2.3,3.37-3.51-3,.88-11.08-1.06-12-1-17.79l-.39,6.62c-1.46-2.22-1.39-7.75-2-15.45,1.1-.68.9,7,1.34,4.23-2.66-8.51,2.17-19.39.31-31.29.87-5.54,2.66-.58,3.23-5.45-2.06-13.34,1.71-14.51,0-28.54-1.84,4.08-1.36,4.78-3.38-5.08l1.71,23.08-3-14.78c.08,7,1.44,14.7,1.18,18.88-1.67-7-1.19-6.32-2.72-3,2.71-9.59-2-18.89-.22-30l4.73.27c1.86-16.62-3-29.43-2-51l-.74,6.93c-1.91-2.86-.42-13.29-1.27-20.26,1.59.63,2.11-3.74,3.05-6.73-1.16.38-.08-15.76-3.26-17.68l2-9.64c.65-17.39-4.77-19.79-4.39-36.51,1.76,5,2.81-2.59,4.15,8.59,0-5.58.21-10.6-.89-10.68,1-3.27-2.25-15.46-.8-20.6-.71-2.35-2.37-3.1-2.29-9.37.32-.69.78,0,.78,0-.78,0-1.14-9.8-2.84-4.31,4.81-17.23-.81-48.06,3.43-63.06-.58-12.17-1.14-26.85-1.29-37.91.48.71.79,0,.63,2.13,1.42-15.26-4.57-9.37-3-26.73,2.52-8.88,1.41,9.21,2.36,3.68,5.19-2.41-.79-21,2.29-32.63l.3,2.83c1.78-8.93-1.94-21.78-1.55-36.37,0,0,.46.71.78.08-2.63-10-3.49-28.87-4.2-42.91,2,4.38,1.07,6.38,3.14,3.73-.28-6.29-3.34,1.83-3.86-10.73,1.13-4.08,2.15-13.14,4.36-14.33l.06,11.85c2.89-6.06,0-15.33.51-21.57l1.24.8c-.29-18.15-3.45-18.42-3.08-37.93l-1,2c-3-10.69,1.81-8.93-.42-19.58l3.19-3.2c-.71-7-2.86-24.67-3.34-37.29,2.28,7.17,3.35,21.94,4.67,31.09.08-7,0-23.7-1.56-27.35.28,2.81,1,6.36.51,9.13-2.4-8.57-3.53-19.84-3.35-33.74,6.1,2.52,1.89-36.22,6.74-46.25-2-24.61,1.44-48.77,1.33-77.43-4.85,10.12-.06-8.36-5-6.65-.25-6.67-.15-9.22.17-9.81l3.09-20.2c1.47-4.78,1,6.36,2.13,5.75.49-14.61,2.13-6.11,3.5-15.77-1.77,2-2.46-5.1-1.74-13.43l-2.34,11.71c-2.45-20.44,4.24-17.62,1.79-38.23l1.5,6.53c-.84-10.57.25-39-3.64-49.36.57-1.86,1.92-4.33,2.25.32.35-12.62-.65-26.68-1.47-40s-1.43-26-.22-35.81l1.19,1.92c-.35-4.71-2.25-8.2-1.05-14.1.49.3,1.19,1.9,1.26-.29-.42-2.49-2.11-12.51-1.42-18.75l1.35,5.33a148.26,148.26,0,0,0-1.25-30.71c-1.17-9-2.64-17.4-3.12-27.72,3.53,0,4.55-19.36,5.06-29l.5.34a363.86,363.86,0,0,0-1.82-38.43c-1.1-11.9-2.41-23.54-3.25-36.8,1.79-8.27,2.1-22.24,2-37.45s-.33-31.67.53-44.94c-.58,4.06-2.76-.61-3.18-5.32.61-6.22-2.72-17.14.52-16.21l0,2.22c1.54-2.37,2.05-6.75,2.17-11.78s-.21-10.71-.27-15.7l-4.26-1.57c5.59-26.21-3.59-68.3,1.51-82.66-1.21-6.27-1.38-14.07-2.59-20.29l2.27.29c.16-17.46.23-26.18-.83-47.72L134,863.7c-.13-12.17-6.94-15.18-7.37-26.39l3.29-3.47c-.65-21.21,1.72-42.77-1.93-63.64.51.33,1.5.92,1.74,4.35-.2-10,1.09-38.69-3.43-34.92,3-.34-.38-21.89-2.07-33.31l2.29,1.72c-3.15-9.58-3.94-9.87-5.15-23.34.18-3.21,1.69-2.86,1.26,1.41.81-10.7-2.39-8.24-1.64-21.2l1.59,4.77c-.2-11-.94-10.08-2.8-16.06-1.13-6.87-.15-20.83,1.81-22.52-1.27-1.43-3.12-7.38-2.76-13.86.73-.9,1.28,1.43,1.55,2.61.91-18.39-3.52-27.18-1.8-39.86.73-.29,1.07-1.13,1.25-2.18.48,14.57.78,26.3.57,25.21,2.06-.07,2-11.85,5.17-2.59-1.88-9.39-5.84-25.42-5.29-36.93a5.81,5.81,0,0,1,.65-1.54l.28,1.18a30.68,30.68,0,0,0-.6-7.24c.21-3.67.37-6,.27-9.52,1.65-1.42.43-13.53.3-19.4-2.23.57-2.15-7.13-3.75.14.13-.94.31,1.1.55,5a24,24,0,0,0,.32,2.5c-.06-.11-.14-.25-.21-.4.18,3.85.42,8.88.68,14.58-1.31-4.59-2.44-9.4-1.43-15.93-1.56-3-3.16-6.22-3.93-8.06,2.86-8.15,4-23.69,5.8-25.91-2-17.87-2.46-42.17-7.12-53.27-.74-5.07,1-5.91,1.57-7.83.54,2.92.61,6.42,1.28,8-1.47-10.14-1.6-30.16-4.65-32.47.81-12.89,3,7.1,1.81-10.51l1,2.34c3.31-34.88-9.77-56.09-5.35-94.8-.26,2.68-.38,4-.85,4.59.86-44-6.31-90.25-3.94-133.69.33-12.34-1.62-13.59-3.38-21l2.3-2.77-3.35-12.71C95.66,126.63,103,113,98.18,90.1l-1.49,3c-.06-8.29-2.11-26.16-.18-24.86a7.9,7.9,0,0,1-1.11-5.91l1.25-.31L93.6,41.83C93.82,26,98.72,44.08,98,21.08,97.09,12.55,93.2-3.1,92.5.15c.09,3.45-.4,8.85-1.65,9.16l-1-7.79C86.06.27,82-5.57,80.23,13.73L83.1,27l-1.62,4.38-.61-11.24c-1.42,6.45.26,10.44,1.5,14.92-.92,1.12-1.51,3-1.75,5.69l4.13,13c-1.38,1.65-3.14-5.76-3.56,3.08,1.92,6.08,3-6,4.54,4.09-1.41,6.47-2.87,4.67-1.1,12.11-.91,1.1-1.59-.47-2.14-3.42,1.44,6.63,1.26,17.66,3.39,21-1.8,6.76,1.53,22.54-2,22,.93,2.07,3.28,11.65,3.69,17.78-4.71-11,.75,23-3.9,20.22,4.16,8.13,3,29.9,5.72,44.51a8.53,8.53,0,0,1-.87-3.71c0,8.29-1,10.74-1.49,16.09,3.18.93,4.44,13.78,6.67,20.65-2.58,10.26-3.94-6-6.7-2.7,2.51-.62,3.29,17.51,5.25,14-1.53,7.84-.62,6.72-3,10.83,4,1.19,1,7.19,3.64,13.52-1.46,11.31-3.54,3-1.84,15.32C90,285,88.19,274.12,88.19,274.12Zm18.36,293h0l-.35-6.05Zm.93,24.64c0-3-.14-6.74-.3-10.69.74-.89,1.58,0,1.63,2.5C108.24,582.2,108,588,107.48,591.72ZM121.15,539c.46,3.89.07,5.21-.37,5.77-.11-1.85-.26-4-.52-6.82-.09-.11-.19-.34-.29-.45A3.79,3.79,0,0,1,121.15,539Z"/><path class="cls-3" d="M118,532.11c-.07-.56-.18-.87-.22-1.6-.17.81-.31,1.57-.42,2.35.25.46.51.94.75,1.35Z"/><path class="cls-3" d="M145.59,2767.7l0-.52a4.38,4.38,0,0,1-.28,1.1A4.48,4.48,0,0,1,145.59,2767.7Z"/><polygon class="cls-3" points="113.24 932.18 113.81 932.14 113.26 929.99 113.24 932.18"/><path class="cls-3" d="M142.51,2903.73a4.53,4.53,0,0,0-.51,1.81A5.42,5.42,0,0,0,142.51,2903.73Z"/><path class="cls-3" d="M144.11,2962.4l-.5,8.32C143.94,2967.12,144.06,2964.49,144.11,2962.4Z"/><path class="cls-3" d="M144.64,3007.53a2.36,2.36,0,0,0,1,.85v-.09Z"/><path class="cls-3" d="M120.76,2290.44c0-.61-.07-1.21-.14-1.74C120.11,2284.62,120.33,2287.39,120.76,2290.44Z"/><path class="cls-3" d="M130.93,2503.78c-.47-2.25-.92-4.47-1.24-6.83C129.62,2500.75,129.65,2503.71,130.93,2503.78Z"/><path class="cls-3" d="M114.63,2052s0,0,0,0v-1.48Z"/><path class="cls-3" d="M129.47,2487a43.28,43.28,0,0,0,.22,9.93A67.25,67.25,0,0,0,129.47,2487Z"/><path class="cls-3" d="M150.91,3203v2.18c.14-.05.27.08.37.24Z"/><path class="cls-3" d="M151.27,3205.41l.35,2.4A5.7,5.7,0,0,0,151.27,3205.41Z"/><path class="cls-3" d="M152.38,3212.87l-.76-5.06C151.68,3209.57,151.7,3211.74,152.38,3212.87Z"/><path class="cls-3" d="M149.7,3143.26l-.84-.65A1.06,1.06,0,0,0,149.7,3143.26Z"/><path class="cls-3" d="M148.78,3125.14c0,4.33-1.33,10.92-.59,16.93l.67.54C147.54,3139.82,150.31,3129.19,148.78,3125.14Z"/><path class="cls-3" d="M156,3049.05l-.09,15.23c.77-2.69,1.81-6.23,2.28.67C160.1,3045.7,156.42,3069,156,3049.05Z"/><path class="cls-3" d="M155.56,3001.88c.7,8.15,1.26-.14,1.76.27C156.34,2997,156.09,2995.76,155.56,3001.88Z"/><path class="cls-3" d="M144,2661.3l2.06.76C145.57,2655.78,145.26,2662,144,2661.3Z"/><polygon class="cls-3" points="131.46 2596.5 130.36 2602.67 132.32 2605.53 131.46 2596.5"/><polygon class="cls-3" points="144.93 2557.62 145.3 2560.36 144.25 2549.88 144.93 2557.62"/><path class="cls-3" d="M133.86,1985.55l-2.52,1.92C131.83,1991.72,134.66,1992.6,133.86,1985.55Z"/><path class="cls-3" d="M131.47,1738.54c1.28-2.68,2.14-9.62.93-13.91C132.19,1730.18,131.17,1735.71,131.47,1738.54Z"/><polygon class="cls-3" points="134.82 997.28 135.77 1002.23 134.87 992.88 134.82 997.28"/><path class="cls-3" d="M1751.9,3232.82c.63,1.72,2.23.81,2.07-3.88l-2.53-3.42Z"/><path class="cls-3" d="M1757.84,3201.45c-1.11-5.56-3.15-12-5.7-8.5,2.36,5.54,1.26,6.83,4.09,12.81.16,4.7-1.11,8.16-2.06,7.33.62,1.68-.82,7.27.76,9.85,2.25-6,2.58-13.77,1.15-21.9C1756.72,3199.33,1757.36,3201,1757.84,3201.45Z"/><path class="cls-3" d="M1776.19,2743.22l-.4,2.94A17.88,17.88,0,0,0,1776.19,2743.22Z"/><path class="cls-3" d="M1785.44,2459.22c0,2.17.24,3.08.48,3.19C1785.8,2460.4,1785.68,2458.75,1785.44,2459.22Z"/><path class="cls-3" d="M1789.61,2410.8c-.1,1-.16,1.92-.25,2.86A6.35,6.35,0,0,0,1789.61,2410.8Z"/><path class="cls-3" d="M1776.19,2743.22l1-7.57C1776.39,2735.1,1776.49,2739.52,1776.19,2743.22Z"/><path class="cls-3" d="M1753.52,3138a22.54,22.54,0,0,0,.56,4.15c-.07-1.31-.13-2.58-.15-3.88A1.71,1.71,0,0,1,1753.52,3138Z"/><path class="cls-3" d="M1774.67,2868.48l-.07,2.31a12.45,12.45,0,0,0,1,1.95Z"/><path class="cls-3" d="M1772.13,2964.58c.16-2.17-2.06-3-3-3.86a9.15,9.15,0,0,1,1.4,4.79C1770.94,2965.55,1771.46,2965.29,1772.13,2964.58Z"/><path class="cls-3" d="M1763.33,3116.8l.22,2.71C1763.48,3118.81,1763.43,3117.62,1763.33,3116.8Z"/><path class="cls-3" d="M1777.21,2799.72a1.83,1.83,0,0,0,.82-.85C1777.75,2798.86,1777.48,2799.2,1777.21,2799.72Z"/><path class="cls-3" d="M1803,111.4c.16.07.27,0,.4,0C1803.13,110.83,1803,110.66,1803,111.4Z"/><path class="cls-3" d="M1814.35,0l.11,1.54a3.6,3.6,0,0,0,1.26.34Z"/><path class="cls-3" d="M1794.68,2322.11c0,.18,0,.24-.06.4C1794.82,2324.85,1794.81,2323.53,1794.68,2322.11Z"/><path class="cls-3" d="M1809.7,1507.16c-2.16,9.2-2.33-15.06-4.79-1.2C1805.81,1504.68,1808.2,1518.65,1809.7,1507.16Z"/><path class="cls-3" d="M1753.89,3135.56c0-1.3,0-2.62.11-3.94A32.31,32.31,0,0,0,1753.89,3135.56Z"/><path class="cls-3" d="M1804.91,1506h0l-.24,1.43C1804.76,1506.8,1804.82,1506.46,1804.91,1506Z"/><path class="cls-3" d="M1798.14,2117.56a6.07,6.07,0,0,0-1,2.06C1797.34,2119.56,1797.63,2119.09,1798.14,2117.56Z"/><path class="cls-3" d="M1791.41,2269.85l.39-3.76A32.48,32.48,0,0,0,1791.41,2269.85Z"/><path class="cls-3" d="M1796.75,2038.38a20.79,20.79,0,0,0,.31-5.54,4.34,4.34,0,0,0-.3.84A10.24,10.24,0,0,1,1796.75,2038.38Z"/><path class="cls-3" d="M1798.46,1956c-.18.43-.32,1-.48,1.51,0,.81,0,1.77.06,2.61Z"/><path class="cls-3" d="M1803.14,361.66a12.6,12.6,0,0,1,2-3.79C1803.57,359.13,1803.05,347,1803.14,361.66Z"/><path class="cls-3" d="M1754.78,3138a3.34,3.34,0,0,1-.89-2.47c0,.94,0,1.85,0,2.74C1754.25,3138.55,1754.57,3138.61,1754.78,3138Z"/><path class="cls-3" d="M1779.09,2034.65l.63-13.07C1779.41,2025.23,1779.19,2030,1779.09,2034.65Z"/><path class="cls-3" d="M1798.8,952.42l-.24-3A9,9,0,0,0,1798.8,952.42Z"/><path class="cls-3" d="M1780.18,1982.75a36.43,36.43,0,0,0,1.71-7.33,6.31,6.31,0,0,0-.55-1.53Z"/><path class="cls-3" d="M1805.2,357.84s0,0,0,0S1805.19,357.87,1805.2,357.84Z"/><path class="cls-3" d="M1800.23,271.64c-.12,12.47,2.87,5.87,4.55,8.52.78,14.88-2.2,6.88-3.74,11.93.74,9.3,3.43,16.43,3.28,23.36-.49.52-.67,1.86-1.27.28,2.3,9.84,0,29.16,2.89,40.62a3.62,3.62,0,0,1-.74,1.49c1.49-1.85,3-2.12,4.06-1.74,0,5.59,1.82,10.38-.12,12.48.07-3.43-.7-3.72-1.3-5.32l.81,5.86c-2.8,5.25-.92-8-3-8,.86,11.42,3.1,24.74,2.27,33.49-2.72,1.81-.82-20.47-3.29-8.81l1.1-13.53c-4.33,10.32.33-8.23-4.29,1.26-.87,17.81,1.31,19.93.41,37.7,1.49,4,2.24-1.31,3.73,2.7,2.55,25.28-7,19.85-3.46,38.44,1.78,4.82,5.21,6.7,3.3,19.91l-3-4.52c-.41,17.25,4.35,9.87,2.17,27.93-1.18-3.22-.93-13.57-1.31-11-2.5,11.69,1.69,8.29,1.63,17.28l-2.73,1.85c.31,18.37,2.15,38.61,2.51,59-.8-1.13-1.63-4.63-2.49.13.6,12.83.43,26.52-.11,40.09s-1.51,27-2.41,39.4l2.27,9.47c0,2.2-1.1,4.07-1.53,1.68-1,9.64,1.48.52,2.37,5.16.11,5.49-1.42,7.24-2.09,3.75,1.85,17,3.88,48.51,1.22,66.42l-.67-3.5c-1.07,14,4.68,15.8,2.38,28.73l-.39-2.49c-1.27,30.29.61,63.8-3.2,86.88,3.33,4.43-1.82,30,2.87,32-2.52,17.27-3.31,12.31-5.13,36.66-.29,6.5,2.84,9.73,3.25,17.78l-2.47.17,2.48,11-3,5.79.55,7.55c.18-3,1.17-6.38,1.88-5.91,1,11.8-2,28.71-3.28,29l1.79,27.91c-1-.63-1.27-5.3-1.87-9,2.36,14.91-2.62,2.67-.46,16.34.58-1.82,1.46,1,2,1.32-1.56,6.78-1.78,22.26-1.29,33.72l-1.67-2.22c-.69,20.68.27,43.62,0,66.84.9-8.32,3.82-6.37,4,.44l-2.64,2.69c1.56,4.41,1.07-7.1,2.93,2-.41,8.67-3,5.79-3.82.8l.77,10.56c-.78.6-1.16-1.87-2.15-2.53,1.57,4.35-2.84,18.17-.1,24.44l-.79.59c-.31,23.2.46,33.74.35,52.65,2.25.4,1.66,7.78,3.41,13.44-.92,13.88-2.91,29.28-3,46,1,11.78,1.85,3.46,3.11,8.77-2.06.83-2.11,17.55-3.46,8.86,0,20.1,0,25.67,1.34,51.1.88-2.75,1.29-5.84,2-4.22.27,4.61-1,10.47-2,9.8l-.2-1.22c2.66,28.56-6.91,65.73-3,88.5l-.19-1.27,1.84,23.58c-.53,10.83-1.43-6.52-2.83,1.48,3,25.46-1.16,40.13.77,61.08-6.31,16.1-.52,57.47-4.74,79.26l1.45-1.23c1.3,5.67-.93,6.81-1.33,11,1.12-.57,1.38-6.1,2.1-2.58.93,47.88-3.88,98.73-6,147.76-.71,17.94,7.18,10.33,3.36,32.88l-2.52-6.47c1.25,18.14.88,36.65.45,55.06s-1,36.73,0,54.48c-.57-2.13-1.36-2.2-1.28-5.66-2.07,7.45-.66,27.68.9,27.84-.29,5.52-1.44,1.25-2.3,4.64-1.29,7.48,2.06,18.9.07,22.85-.33.67-.58-2.13-.7-3.5.83,4.91-.71,22.79,1.6,18.15-1.33,13.29.47,25.47-1.06,36.06,2.33,7-1.66,22.75,1.79,25-3.6-1-3.38,23.26-1.89,31.71-1-2.84-1.3,7.29-2.73,4-.17,9.6.3,18.41,2.2,16.78-4.73,17.59,2.68,35.62-3.09,45.45,1.3,28.56,2,55,2.29,80.65-3.59-1,.28-28.36-3.53-27.35.94,24.37,3.72,38.48,2.3,62.59-.63,6.23-1.49-3.59-2-5.71.94,24.34-1.47,47,0,68.67-.34-.07-.65-2.41-.87-4.62,0,4.27-.77,9.9.88,9.46l-.34-4.17c2.54-6.75,4.55,17,5.79,17.85-4.52-7.35-1.71,21.33-7.36,9.7.24,2.81.93,6.35,2,5.73-.42,4.16-1.09,5.46-2.24,1.21.52,15.29,2.4,9.91,2,23.74-.79-.07-1-2.87-1.93-4.32,1.37,7,2.75,14.12,1.79,25.79-.46-.71-1.12.63-1-2.86-.25,20.09,3.28,34.33,1.25,56.32-3.29-6.58-1.32,7.46-4.34,8.56l.59,11.86,1.57-4.71c-.32,10.37,1.61,19.6.39,28.49l-1-7.74.05,19.46,1.42-11c1.26,10.54,3.81-1,2.61,12.76-.23-2.81-.31,10.38-2.21,15.74,0,0,0,0,0,0,.81,5.15,1.67,10.46.73,18.11-1,2-3.26-1.69-3.93-.41,2.36,5.13,0,24.32,2.53,30.8-.57-2.15-2.13-2.31-2.47-1.61l1.92,4.3c-.78,4.79-1.11,5.49-2.34,4.67-.76,14.45,3.91-4.49,1.82,12.63-.13-1.35-.45-.72-.68-3.53-1.31,17.21.4,33.33-1,49.14-3.13,4.59-.37-13.86-3-8.58,0,22.85,2.34,47.38,1,69.45l.45-4.11c4.15,3.18-2.57,16.39-.89,27.62-.24-2.74-2.25-3.65-1.8-2.9-1.12,15.11.16,31,.83,53.93l-1-2.87c-1.22,8.89-1.23,23.46-2,33.08,1,2.89.67,8.39,2.35,5.09-7.07,29.52,1.74,56.75-4.26,83,.08-3.16-.73-7.54-.81-5l.32,22.48c1.9-1.72,1.21-2.91,2.79-7.58,1,2.87,1.66,9.23,1.49,14.79-.91-10.13-3,0-4.13,4.33.59-.72,1.16.8,1.75.45-3.65,11.62,3.66,2.07,1,18l-.94-.87c.31,6,1.42,11.56,1,18-2.22,2.62-.8-6.4-2.55-6.87-.15,9.08,3.5,18,1.12,26.18-.48-3.88-.32-9.42-.79-13.29-2.79,8.87-2.18,9.92-2.78,16.55l.08-.65-1.61,15.33.8-3.89c5.22,11.52.31,23.15,3.49,38.56-3-15-1.93-2.52-4.31-3.73-.79,3.88-1.73,9.79-2.36,8.08,1.73,7.29-1.91,12,.64,22.31-.8.43-.32,7.73-2.23,6,.33,9.42,1.43-2.18,2.38-1.36,2.24,14.58-4.33,33.95-1.35,54.91.92,18,3.44,21.42,4.21,38.14-1.43,5.59-2.69-4.7-2.69-4.7a98.17,98.17,0,0,0-.85,24.47c-.62-1.76-1.25,0-2.21,2.59,0,6.87,2.68,4.68,1.24,13.7a25.33,25.33,0,0,1-2.91-7c.45,8.11,1.65,16.15,2.08,24.55-1.43,2.18-1.9-5.12-2.69-8.1.3,9.43.43,24.43,2.49,27.41l1-6c0,3.44-1.91,1.71-2.22-.84-1.42-8.12,1.12-11.61,1.92-12l.31,6c4.77-6,0-24,.71-36l3.16,5.11-2.36-12.4c1-2.59,2.87-4.33,3.17,1.62,1.93-8.56-.93-7.66,1.14-15,.32-.8.46-.43.57.33l-.72-8.44c.65,1.67,2.4-1.33,1.75,3.83,2.41-15-1.7-24.43,1-30l.16,1.27c-.44-21-2.38-2.1-4.73-17.91l6.37-10.38-2.37-2.14c.16-2.16.48-6.42,1.43-5.6-1.41-8.1-1.11,1.34-2.53-3.38,2.58-10.33-.14-28.72,3.82-30.94-1.74-3.79-1.73,9.9-2.68-1.24,4.28-3-.32-12.87,1.89-22.31,2.07,3,.65,12,2.86,2.51-3.47-5.85,1.37-18.49.92-26.52-2.89-.47-.68-17.47-1.23-31,1,.88,2.37-25.27,3.81-37.75l.47.39c-2.86-2.52-1.91-15.41-2.23-24.82,1.74.42,2.39,2.13,3,7.24l.25-8.83c-.87-2.11-1.28-4.88-1.44-10.63l2.12,2.29c.24-11.76-1.84-23.76.06-38.85-2-.91-6,11.87-6.95-4.17,1.12-.56,3-1.1,3.36,3.1-.1-1.37-.78-4.91-.22-7.66l1.68,6.44c1-6.86-1.46-3.65-1.13-9.15,1.58.16,1.25-4,2.48-3.22.11,1.41-.79,4.79-.23,6.92.46-6.21,1.61-13.69,2.88-16.14-.92.52-2.13-.06-2.2-4.61.22-11.77,2-4,3-10.81-1-2.88.33-10.35-2-10.62.11-3.44,1.23-4,1.91-5.35-.87-6.12.51-28.44-2.19-21.65l-.21,1.55c0-.29,0-.64-.08-1v0c-1.77-20,2.53-41.4,2.08-61.22l.79,0c-.56-11.84.22-26.31-1.24-34.8.11-3.49,1.68-8.21,2.58-6.69-.34-9.05-1.18-10.08.47-23.1,1.13,9.12,1.31-3.09.76,9.34,1-11.72,2.33-14.34.51-27,1.91,4.34,2.78-8.77,2.32-14.37l-1.66,8.19c-.13-6.28.2-11.76.52-17.33l2.58,3.08c3.87-23.93-4.36-43.46,1.55-61.6-1.7-6.4-1.66,13-3.69,7.27.66-11,4.78-22.45,4.88-25.91,1.88-15.09-3.51-14.22-2.08-30-1,2-3.59,3.84-4.17-8,.65-11,4.35-13.49,4.92-6.49,0,2.65-.32,3.92-.64,3.8.25,3.59.53,8.28,1.68,3.93l-.92-1.46c1.12-5.46,1.42-20.67,2.88-17.06-.68-8.38-1.46-3.61-2.11,2.56,1.74-14.14.64-22.15,1.91-36.72-.58,2.3-1.74,4.41-1.68,2.1,1.71-21.38-1.57-9.47-1.62-24,1.64-8.2,3.38,3,2.52-11.59,1.2-8.89,2.57-1.83,3.25,1.74-1.5-13.35,1.82-24.83,2.34-32.42l.59,7a95.94,95.94,0,0,1-.16-11.13l-2,4c.44-4.11.53-7.59,1.32-7.5-1.14-4.27-3.24,3.17-4.73-5.29,1.1-5.46-.63-16.73,1.94-18.56-1.28,17.23,2.58-1.84,2.62,12.77a57.35,57.35,0,0,1,.3-10.38c.3-.61.51.6.63,1.72,2.65-16.45-2.67-7.65-2.19-24.76,1.37,2.2,2.79-3.9,2.56-6.7-.2,6.89-2.45,3.24-3.38-3.12,1.37-10.94-.53-11.94-.26-17.68l-.68,6.54c-1.37-2.25-1-7.73-1.31-15.39,1.13-.63.59,7,1.15,4.24-2.29-8.55,3-19.12,1.66-31,1.1-5.47,2.68-.47,3.45-5.27-1.52-13.32,2.28-14.33,1.08-28.32-2,4-1.55,4.69-3.19-5.17l.83,23-2.45-14.78c-.18,6.92.87,14.63.46,18.77-1.4-7-.94-6.32-2.6-3,3.07-9.41-1.25-18.82.93-29.72l4.72.45c2.48-16.41-1.76-29.3-.09-50.64l-1,6.85c-1.81-2.91,0-13.2-.57-20.14,1.57.68,2.24-3.64,3.29-6.57-1.18.34.46-15.64-2.65-17.65l2.29-9.49c1.24-17.24-4-19.79-3.14-36.37,1.6,5,2.89-2.48,3.87,8.66.14-5.54.54-10.51-.55-10.62,1.06-3.22-1.78-15.41-.17-20.47-.64-2.35-2.28-3.15-2-9.36.33-.67.77,0,.77,0-.77,0-.85-9.76-2.71-4.36,5.28-17,.62-47.69,5.16-62.45-.28-12.1-.49-26.67-.38-37.65.45.71.78,0,.58,2.12,1.78-15.1-4.35-9.39-2.35-26.58,2.73-8.75,1.19,9.17,2.27,3.7,5.24-2.28-.28-20.8,3-32.33l.25,2.81c1.94-8.82-1.53-21.65-.86-36.12,0,0,.45.71.78.1-2.43-9.95-3-28.71-3.44-42.65,2,4.37,1,6.35,3.07,3.74-.18-6.24-3.35,1.77-3.7-10.7,1.19-4,2.33-13,4.55-14.15l-.09,11.75c3-6,.18-15.21.79-21.4l1.23.82c-.07-18-3.21-18.33-2.62-37.69l-1,2c-2.91-10.64,1.92-8.84-.2-19.44l3.22-3.13c-.63-7-2.6-24.51-3-37,2.21,7.13,3.13,21.8,4.36,30.9.15-6.92.2-23.53-1.29-27.16.25,2.8,1,6.32.42,9.07q-3.48-12.81-3-33.52c6.08,2.56,2.22-35.91,7.11-45.83-1.86-24.43,1.76-48.38,1.87-76.81-4.93,10,0-8.29-4.92-6.63-.2-6.62-.08-9.15.25-9.73l3.25-20c1.5-4.73,1,6.32,2.08,5.73.62-14.49,2.17-6,3.63-15.62-1.78,1.94-2.42-5.08-1.62-13.33l-2.44,11.59c-2.27-20.29,4.39-17.44,2.15-37.9l1.43,6.49c-.72-10.5.66-38.65-3.13-49,.59-1.84,2-4.27,2.25.35,1-25-3.38-55.8-.68-75.23L1813,1321c-.28-4.67-2.13-8.16-.84-14,.49.31,1.17,1.89,1.27-.27-.38-2.48-1.92-12.44-1.13-18.62l1.27,5.31c1.92-24.4-2.74-37.53-3.26-58,3.51.1,5-19.1,5.63-28.68l.5.34c.79-28.44-2.32-48.35-3.37-74.71,4-16.3,2.28-55.35,4.75-81.6-.69,4-2.73-.69-3-5.36.79-6.16-2.23-17.08,1-16.06l-.09,2.2c3.22-4.61,2.55-17.3,2.74-27.19l-4.21-1.68c6.41-25.81-1.55-67.83,4.1-81.9-1-6.26-.9-14-1.89-20.2l2.26.36c.76-17.3,1.13-25.93.81-47.33l1.58,4.38c.27-12.06-6.37-15.3-6.39-26.43l3.41-3.31c.19-21.05,3.31-42.33.42-63.16.5.35,1.47,1,1.58,4.39.17-9.91,2.6-38.31-2.07-34.75,3-.22.48-21.72-.76-33.1l2.22,1.79c-2.77-9.62-3.55-9.93-4.22-23.33.31-3.18,1.81-2.77,1.2,1.44,1.26-10.57-2-8.26-.75-21.08l1.39,4.79c.26-10.88-.51-10-2.12-16-.84-6.85.73-20.64,2.76-22.24-1.21-1.47-2.81-7.45-2.17-13.86.77-.86,1.22,1.48,1.44,2.66,1.67-18.19-2.41-27.09-.13-39.59.74-.25,1.11-1.07,1.34-2.1-.14,14.46-.34,26.1-.49,25,2,0,2.49-11.66,5.26-2.35-1.48-9.39-4.75-25.45-3.71-36.82a5.49,5.49,0,0,1,.72-1.5l.22,1.18a30.64,30.64,0,0,0-.28-7.2c.36-3.64.62-5.94.67-9.43,1.71-1.34,1-13.39,1.13-19.21-2.26.46-1.85-7.16-3.75,0,.17-.92.26,1.11.33,5a21.32,21.32,0,0,0,.22,2.48l-.2-.4c0,3.83,0,8.82.06,14.48-1.11-4.61-2-9.42-.75-15.85-1.43-3-2.89-6.3-3.58-8.16,3.19-8,5-23.3,6.93-25.43-1.15-17.79-.57-41.9-4.72-53.1-.51-5.07,1.25-5.81,1.92-7.7.41,2.92.32,6.4.92,8-1-10.12-.23-30-3.17-32.39,1.41-12.73,2.68,7.18,2.29-10.33l.9,2.37c4.86-34.43-7.3-56-1.08-94.2-.38,2.64-.56,4-1,4.5,2.84-43.52-2.08-89.72,2.26-132.67.88-12.21-1-13.54-2.42-21l2.42-2.64-2.76-12.75c-2-18.07,6-31.27,2.2-54.16l-1.64,3c.33-8.22-.9-26,1-24.65a7.79,7.79,0,0,1-.83-5.91l1.27-.25-2.12-20.18c1-15.65,5,2.45,5.31-20.38-.47-8.49-3.63-24.17-4.48-21-.07,3.43-.81,8.75-2.08,9l-.64-7.77c-3.72-1.41-7.52-7.38-10.16,11.67l2.24,13.28-1.81,4.27-.09-11.17c-1.72,6.33-.22,10.35.8,14.85-1,1.07-1.64,2.93-2,5.57l3.52,13c-1.46,1.57-2.87-5.86-3.7,2.89,1.64,6.11,3.28-5.85,4.34,4.26-1.7,6.35-3.08,4.49-1.65,12-1,1-1.57-.54-2-3.49,1.13,6.64.44,17.56,2.42,21-2.11,6.61.49,22.4-3,21.74.84,2.09,2.74,11.69,2.88,17.79-4.2-11.15-.3,22.81-4.82,19.86,3.77,8.25,1.61,29.77,3.69,44.37a8.27,8.27,0,0,1-.71-3.71c-.34,8.22-1.48,10.6-2.22,15.88,3.13,1.06,3.79,13.86,5.69,20.76-3.07,10.06-3.65-6.13-6.57-3,2.54-.49,2.46,17.51,4.59,14.09-1.9,7.7-.94,6.64-3.55,10.59,3.91,1.37.63,7.18,3,13.57-2,11.14-3.68,2.86-2.55,15.1C1801.57,282.53,1800.23,271.64,1800.23,271.64Zm5.2,291.21h0c0-2.51-.07-4.65-.09-6C1805.32,558.09,1805.36,559.82,1805.43,562.85Zm-.12,24.47c.1-3,.14-6.69.15-10.62.78-.85,1.58.09,1.52,2.55C1806.47,577.91,1806,583.67,1805.31,587.32Zm15.91-51.66c.29,3.88-.16,5.17-.62,5.7,0-1.83-.09-4-.23-6.78-.08-.11-.18-.34-.27-.45A3.65,3.65,0,0,1,1821.22,535.66Z"/><path class="cls-3" d="M1818.31,528.68c0-.56-.14-.87-.15-1.6-.21.79-.38,1.54-.52,2.31.23.47.47,1,.69,1.37C1818.33,530.06,1818.32,529.33,1818.31,528.68Z"/><path class="cls-3" d="M1775.73,2746.68l.06-.52a4.06,4.06,0,0,1-.35,1.07A2.94,2.94,0,0,1,1775.73,2746.68Z"/><polygon class="cls-3" points="1797.97 925.15 1798.54 925.12 1798.07 922.98 1797.97 925.15"/><path class="cls-3" d="M1764.05,2881.17a4.08,4.08,0,0,0-.63,1.75A5.58,5.58,0,0,0,1764.05,2881.17Z"/><path class="cls-3" d="M1761.76,2939.34l-1,8.21C1761.27,2944,1761.57,2941.41,1761.76,2939.34Z"/><path class="cls-3" d="M1759.27,2984.05a2.46,2.46,0,0,0,.94.91l0-.09Z"/><path class="cls-3" d="M1776.29,2272.57c0-.6,0-1.2-.06-1.73C1775.9,2266.78,1776,2269.54,1776.29,2272.57Z"/><path class="cls-3" d="M1776.22,2484.43c-.35-2.26-.69-4.49-.88-6.84C1775.06,2481.36,1774.94,2484.28,1776.22,2484.43Z"/><path class="cls-3" d="M1779,2036.08s0,0,0,0c0-.51,0-1,0-1.46Z"/><path class="cls-3" d="M1775.64,2467.75a42.23,42.23,0,0,0-.3,9.84A65.93,65.93,0,0,0,1775.64,2467.75Z"/><path class="cls-3" d="M1752,3177.92l-.17,2.15c.15,0,.27.1.36.27Z"/><path class="cls-3" d="M1752.2,3180.34l.18,2.4A5.7,5.7,0,0,0,1752.2,3180.34Z"/><path class="cls-3" d="M1752.78,3187.8l-.4-5.06C1752.32,3184.48,1752.18,3186.63,1752.78,3187.8Z"/><path class="cls-3" d="M1755,3118.73l-.79-.71A1.07,1.07,0,0,0,1755,3118.73Z"/><path class="cls-3" d="M1755.33,3100.72c-.32,4.29-2.09,10.72-1.77,16.72l.63.58C1753.07,3115.17,1756.58,3104.85,1755.33,3100.72Z"/><path class="cls-3" d="M1767.86,3025.92l-1.14,15.06c1-2.6,2.24-6,2.22.83C1772.15,3022.88,1766.88,3045.67,1767.86,3025.92Z"/><path class="cls-3" d="M1770.55,2979.19c.15,8.12,1.26-.05,1.74.39C1771.66,2974.42,1771.49,2973.17,1770.55,2979.19Z"/><path class="cls-3" d="M1780.54,2641.2l2,.87C1782.45,2635.81,1781.77,2642,1780.54,2641.2Z"/><polygon class="cls-3" points="1771.72 2576.29 1770.28 2582.34 1772.08 2585.28 1771.72 2576.29"/><polygon class="cls-3" points="1787.31 2538.51 1787.52 2541.25 1787.06 2530.81 1787.31 2538.51"/><path class="cls-3" d="M1800.15,1970.73l-2.56,1.83C1798,1976.79,1800.77,1977.74,1800.15,1970.73Z"/><path class="cls-3" d="M1802.42,1725.55c1.31-2.65,2.25-9.53,1.09-13.8C1803.24,1717.26,1802.15,1722.73,1802.42,1725.55Z"/><polygon class="cls-3" points="1817.51 990.39 1818.3 995.33 1817.69 986.03 1817.51 990.39"/></svg>