<?xml version="1.0" encoding="utf-8"?>
<!-- Generator: Adobe Illustrator 26.0.2, SVG Export Plug-In . SVG Version: 6.00 Build 0)  -->
<svg version="1.1" id="Layer_1" xmlns="http://www.w3.org/2000/svg" xmlns:xlink="http://www.w3.org/1999/xlink" x="0px" y="0px"
	 viewBox="0 0 1920 3233" style="enable-background:new 0 0 1920 3233;" xml:space="preserve">
<style type="text/css">
	.st0{fill:#C8543A;}
	.st1{fill:#D47B2D;}
	.st2{fill:#373737;}
</style>
<path class="st0" d="M159.3,3232.6c1.2,1.7,4.2,0.9,3.8-3.8l-4.9-3.5L159.3,3232.6z"/>
<path class="st0" d="M169.5,3201.4c-2.2-5.6-6.3-12.1-10.9-8.7c4.6,5.6,2.6,6.9,8.1,12.9c0.4,4.7-1.9,8.1-3.6,7.3
	c1.2,1.7-1.3,7.2,1.7,9.9c4-6,4.4-13.7,1.5-21.9C167.3,3199.3,168.6,3201,169.5,3201.4z"/>
<path class="st0" d="M188.8,2743.1l-0.6,2.9C188.6,2745.2,188.8,2744.2,188.8,2743.1z"/>
<path class="st0" d="M195.2,2459c0.1,2.2,0.6,3.1,1,3.2C195.9,2460.2,195.6,2458.5,195.2,2459z"/>
<path class="st0" d="M201.1,2410.5c-0.2,1-0.2,1.9-0.3,2.9C201.3,2412.5,201.4,2411.5,201.1,2410.5z"/>
<path class="st0" d="M188.8,2743.1l1.7-7.6C188.9,2735,189.2,2739.5,188.8,2743.1z"/>
<path class="st0" d="M159.5,3137.9c0.2,1.4,0.6,2.8,1.2,4.2c-0.2-1.3-0.3-2.6-0.4-3.9C160,3138.1,159.8,3138,159.5,3137.9z"/>
<path class="st0" d="M190.5,2868.5v2.3c0.6,0.7,1.3,1.4,2,2L190.5,2868.5z"/>
<path class="st0" d="M189,2964.6c0.2-2.2-4-3-5.8-3.9c1.6,1.1,2.6,2.9,2.8,4.8C187.1,2965.6,188.1,2965.2,189,2964.6z"/>
<path class="st0" d="M177.3,3116.9l0.5,2.7C177.6,3118.9,177.5,3117.7,177.3,3116.9z"/>
<path class="st0" d="M192.8,2799.7c0.6-0.1,1.1-0.4,1.5-0.8C193.7,2798.9,193.2,2799.2,192.8,2799.7z"/>
<path class="st0" d="M127.8,112c0.2,0,0.5,0,0.8,0C128.1,111.4,127.8,111.2,127.8,112z"/>
<path class="st0" d="M145.4,0l0.3,1.5c0.8,0.2,1.6,0.3,2.4,0.3L145.4,0z"/>
<path class="st0" d="M206.9,2321.7c0,0.2-0.1,0.2-0.1,0.4C207.2,2324.5,207.2,2323.1,206.9,2321.7z"/>
<path class="st0" d="M198.7,1506.4c-3.6,9.3-5.1-15-9-1C191.3,1504.1,196.4,1517.9,198.7,1506.4z"/>
<path class="st0" d="M160.1,3135.4c0-1.3,0-2.6,0.1-3.9C160,3132.7,160,3134.1,160.1,3135.4z"/>
<path class="st0" d="M189.7,1505.4L189.7,1505.4l-0.4,1.4L189.7,1505.4z"/>
<path class="st0" d="M204.6,2117.1c-0.8,0.5-1.4,1.3-1.8,2.1C203.2,2119.1,203.7,2118.6,204.6,2117.1z"/>
<path class="st0" d="M198.6,2269.5l0.6-3.8C198.8,2267,198.6,2268.2,198.6,2269.5z"/>
<path class="st0" d="M198.5,2037.9c0.3-2.1,0.9-2.8,0.3-5.6c-0.2,0.3-0.4,0.5-0.5,0.8C198.9,2034.2,199.2,2035.6,198.5,2037.9z"/>
<path class="st0" d="M198.1,1955.5c-0.3,0.5-0.6,1-0.8,1.5l0.2,2.6L198.1,1955.5z"/>
<path class="st0" d="M137.1,362.1c0.9-1.5,2.2-2.9,3.7-3.9C137.8,359.5,136.4,347.5,137.1,362.1z"/>
<path class="st0" d="M161.9,3137.9c-1-0.4-1.7-1.4-1.7-2.5c0,0.9,0.1,1.9,0.1,2.7C160.9,3138.4,161.5,3138.4,161.9,3137.9z"/>
<path class="st0" d="M165.3,2034.7l0.6-13.1C165.4,2025.9,165.2,2030.3,165.3,2034.7z"/>
<path class="st0" d="M153.2,952.6l-0.6-3C152.5,950.6,152.7,951.7,153.2,952.6z"/>
<path class="st0" d="M165,1982.8c1.4-2.3,2.4-4.8,2.9-7.4c-0.3-0.6-0.6-1.1-1.1-1.5L165,1982.8z"/>
<path class="st0" d="M140.8,358.1L140.8,358.1L140.8,358.1z"/>
<path class="st0" d="M116.3,272.3c0.2,12.5,5.6,5.7,8.9,8.2c2,14.8-3.9,7-6.6,12.1c1.7,9.2,7,16.2,7,23.2c-0.9,0.5-1.2,1.9-2.4,0.4
	c4.7,9.7,1.1,29.1,6.9,40.4c-0.3,0.6-0.7,1.2-1.3,1.5c2.2-1.6,4.9-2.3,7.6-2c0.3,5.6,3.8,10.3,0.2,12.5c0-3.4-1.5-3.7-2.6-5.2
	l1.7,5.8c-5,5.4-2-7.9-5.9-7.8c2,11.4,6.7,24.5,5.5,33.3c-5,2-2.3-20.4-6.5-8.6l1.6-13.6c-7.7,10.6,0.3-8.2-8,1.5
	c-1,17.9,3.2,19.9,2.2,37.6c2.9,3.9,4.1-1.4,7.1,2.5c5.8,25.1-12.2,20.2-5,38.6c3.5,4.7,10,6.4,7,19.7l-5.9-4.3
	c-0.1,17.3,8.6,9.6,5.2,27.8c-2.4-3.1-2.3-13.5-2.9-10.9c-4.2,11.8,3.5,8.2,3.7,17.2l-5.1,2c1.3,18.3,5.6,38.5,7.1,58.8
	c-1.6-1.1-3.2-4.5-4.7,0.3c3.3,25.6,0.9,54.8-1.5,79.6l4.6,9.3c0,2.2-1.9,4.1-2.8,1.8c-1.4,9.7,2.8,0.4,4.6,5
	c0.4,5.5-2.3,7.3-3.8,3.9c4.2,16.9,9.3,48.2,5.1,66.3l-1.4-3.5c-1.4,14,9.4,15.5,5.7,28.6l-0.8-2.5c-1.1,30.3,3.8,63.7-2.3,87
	c6.4,4.2-2.1,30,6.8,31.8c-4,17.4-5.7,12.5-8,36.9c-0.3,6.6,5.7,9.6,6.9,17.6l-4.6,0.3l5.1,10.8l-5.4,5.9l1.4,7.5
	c0.2-3,1.9-6.4,3.3-6c2.4,11.7-2.5,28.8-4.9,29.2l4.6,27.8c-1.9-0.6-2.6-5.2-3.9-8.9c5.1,14.8-4.8,2.8-0.1,16.3
	c1-1.8,2.8,0.9,3.7,1.2c-2.6,6.9-2.3,22.3-0.9,33.8l-3.2-2.1c-0.4,20.7,2.5,43.6,2.9,66.8c1.3-8.4,6.9-6.6,7.5,0.2l-4.8,2.8
	c3.1,4.3,1.7-7.2,5.6,1.8c-0.4,8.7-5.4,6-7.1,1l1.9,10.5c-1.4,0.7-2.3-1.8-4.1-2.4c3.1,4.3-4.5,18.3,0.9,24.4l-1.4,0.6
	c0.5,23.2,2.4,33.7,3,52.6c4.2,0.3,3.4,7.7,7,13.3c-1.1,13.9-4.1,29.4-3.4,46.1c2.3,11.7,3.6,3.4,6.2,8.6c-3.8,0.9-3.2,17.7-6.1,9
	c1,20.1,1.2,25.6,4.8,51c1.5-2.8,2.1-5.9,3.5-4.3c0.7,4.6-1.4,10.5-3.3,9.9l-0.4-1.2c6.3,28.4-10,66-1.6,88.6l-0.4-1.3l4.5,23.5
	c-0.5,10.8-3-6.4-5.2,1.6c6.8,25.3-0.3,40.1,4.3,61c-11.1,16.4,1.7,57.4-5.2,79.4l2.6-1.3c2.7,5.6-1.4,6.9-2,11
	c2.1-0.6,2.3-6.2,3.8-2.7c2,23.9,1.3,48.6-0.1,73.5s-3.5,49.9-4.4,74.4c-0.5,17.9,13.9,10,7.8,32.7l-5-6.4c3.2,18.1,3.3,36.6,3.4,55
	s-0.2,36.7,2.4,54.4c-1.2-2.1-2.6-2.2-2.6-5.6c-3.6,7.5,0,27.7,2.9,27.8c-0.3,5.5-2.6,1.3-4.1,4.7c-2.1,7.5,4.7,18.8,1.2,22.8
	c-0.6,0.7-1.2-2.1-1.5-3.5c1.8,4.9-0.3,22.8,3.8,18.1c-1.9,13.3,2,25.4-0.4,36.1c4.7,6.9-2.1,22.8,4.5,24.9
	c-6.8-0.9-5.3,23.3-2.1,31.8c-2.1-2.8-2.1,7.3-5,4c0.1,9.6,1.4,18.4,4.9,16.7c-8.1,17.7,6.6,35.5-3.8,45.5
	c3.7,28.5,6.2,54.9,7.8,80.5c-6.8-0.9-0.7-28.4-7.8-27.2c2.8,24.3,8.6,38.4,7.1,62.5c-0.9,6.2-2.9-3.6-4.1-5.7
	c1.4,12.1,1.2,23.9,1.1,35.3s-0.1,22.5,1.7,33.3c-0.6-0.1-1.3-2.4-1.8-4.6c0.2,4.3-1,9.9,2,9.4l-0.8-4.2c4.5-6.8,9.2,17,11.6,17.7
	c-8.8-7.3-2.3,21.4-13.4,9.8c0.6,2.8,2,6.3,4.1,5.7c-0.6,4.2-1.8,5.5-4.1,1.2c1.6,15.3,4.9,9.9,4.8,23.7c-1.5,0-2.1-2.9-3.8-4.3
	c2.9,7,5.8,14.1,4.4,25.8c-0.9-0.7-2.1,0.6-2-2.9c0.4,20.1,7.6,34.3,4.7,56.3c-6.4-6.5-2.2,7.5-7.8,8.6l1.6,11.9l2.8-4.7
	c-0.2,10.4,3.8,19.6,1.9,28.5l-2.2-7.7l0.9,19.4l2.2-11c2.8,10.5,7.1-1.1,5.4,12.7c-0.5-2.8-0.2,10.4-3.5,15.8l0,0
	c1.7,5.1,3.6,10.4,2.1,18.1c-1.8,2-6.2-1.7-7.4-0.4c4.6,5.1,1.1,24.3,6,30.8c-1.1-2.1-4.1-2.3-4.7-1.6l3.8,4.3
	c-1.3,4.8-1.9,5.5-4.2,4.7c-0.8,14.4,7.1-4.5,3.9,12.6c-0.3-1.4-0.9-0.7-1.4-3.5c-1.8,17.2,2.1,33.3,0,49.1
	c-5.7,4.6-1.2-13.9-6.1-8.6c0.4,11.4,2,23.3,3.2,35s2.1,23.4,1.3,34.4l0.7-4.1c7.9,3.2-4.2,16.4-0.6,27.6c-0.5-2.8-4.4-3.7-3.5-2.9
	c-1.5,15.1,1.4,31,3.6,53.9l-2-2.9c-2,8.9-1.4,23.5-2.5,33.1c2,2.9,1.6,8.4,4.6,5.1c-6.1,14.7-4.7,28.9-3.2,42.7
	c0.8,6.9,1.7,13.7,1.6,20.4c0.1,6.8-1.1,13.5-3.5,19.9c0.1-3.1-1.6-7.6-1.7-5l1.3,22.5c3.5-1.7,2.2-2.9,5-7.6
	c2,2.9,3.4,9.2,3.3,14.8c-2.1-10.1-5.6,0-7.6,4.3c1.1-0.7,2.2,0.8,3.3,0.5c-6.4,11.6,6.9,2.1,2.4,18l-1.8-0.9c0.8,6,3.1,11.6,2.4,18
	c-4.1,2.6-1.7-6.4-5-6.9c0,9.1,7.2,18.1,3,26.2c-1-3.9-0.9-9.4-1.9-13.3c-4.9,8.8-3.8,9.9-4.7,16.5l0.1-0.6l-2.5,15.3l1.4-3.9
	c10.2,11.6,1.4,23.2,7.8,38.6c-6.1-15-3.7-2.6-8.2-3.8c-1.4,3.9-2.9,9.8-4.1,8.1c3.5,7.3-3.2,12,1.9,22.3c-1.5,0.4-0.3,7.7-4,6
	c0.9,9.4,2.6-2.1,4.4-1.3c1.1,3.8,1.4,7.8,1,11.8c-0.4,4.2-1.2,8.6-2,13.3c-1.6,9.3-2.9,19.3,0.1,29.9c2.3,18.1,7.1,21.5,9,38.3
	c-2.5,5.6-5.2-4.8-5.2-4.8c-2.4,9-2.3,15.9-0.9,24.5c-1.2-1.8-2.4,0-4.1,2.5c0.2,6.9,5.2,4.8,2.7,13.7c-1.6-1.6-4.1-3.7-5.7-7
	c1.1,8.1,3.6,16.2,4.6,24.6c-2.6,2.1-3.7-5.2-5.3-8.2c0.9,9.4,1.5,24.5,5.5,27.5l1.6-6c0.1,3.4-3.5,1.6-4.2-0.9
	c-2.9-8.2,1.8-11.6,3.2-12l0.8,6c8.8-5.8-0.6-24,0.2-36l6.1,5.2l-4.8-12.5c1.7-2.6,5.2-4.2,6,1.7c3.4-8.5-2-7.7,1.7-15
	c0.6-0.8,0.9-0.4,1.1,0.3l-1.6-8.5c1.3,1.7,4.4-1.3,3.4,3.9c4.1-15-3.9-24.5,1-30l0.3,1.3c-1.4-21-4.5-2.2-9.4-18l11.6-10.2
	l-4.5-2.2c0.2-2.2,0.7-6.4,2.5-5.6c-2.9-8.1-2,1.3-4.9-3.4c4.6-10.3-1.2-28.7,6.2-30.9c-3.4-3.8-2.9,9.9-5.1-1.3
	c7.9-3-1-12.9,2.8-22.3c4,3,1.6,12,5.5,2.6c-6.7-5.9,1.9-18.5,0.8-26.5c-5.4-0.5-1.9-17.5-3.4-31c1.8,0.9,3.6-25.2,5.9-37.7l0.9,0.4
	c-5.4-2.6-4.1-15.4-5-24.9c3.3,0.4,4.6,2.2,5.9,7.3l0.2-8.8c-1.7-2.1-2.6-4.9-3.1-10.6l4.1,2.3c0-11.8-4.2-23.8-1.2-38.9
	c-3.8-0.9-10.9,11.8-13.2-4.2c2.1-0.6,5.6-1.1,6.4,3.1c-0.2-1.4-1.6-4.9-0.7-7.7l3.4,6.5c1.6-6.9-2.9-3.7-2.4-9.2
	c3,0.2,2.2-4,4.5-3.2c0.3,1.4-1.3,4.8-0.2,6.9c0.6-6.2,2.5-13.7,4.8-16.1c-1.7,0.5-4-0.1-4.3-4.6c0-11.8,3.6-4,5.3-10.8
	c-2-2.9,0.2-10.4-4.2-10.6c0.1-3.4,2.2-4,3.4-5.4c-1.8-6.1-0.1-28.5-4.9-21.7l-0.3,1.6c-0.1-0.3-0.1-0.6-0.2-1l0,0
	c-4.1-20,3.2-41.4,1.6-61.3l1.5,0.1c-1.5-11.9-0.6-26.3-3.6-34.8c0.1-3.5,2.8-8.2,4.6-6.7c-1-9.1-2.6-10.1,0-23.1
	c2.5,9.1,2.4-3.1,1.8,9.3c1.4-11.7,3.8-14.4-0.1-27c3.7,4.3,4.9-8.8,3.8-14.4l-2.8,8.2c-0.3-5.8-0.3-11.6,0.3-17.3l5,3.1
	c6.3-24-9.9-43.5,0.5-61.6c-3.4-6.4-2.6,13-6.6,7.3c0.8-11,8.1-22.5,8.1-25.9c2.9-15.1-7.1-14.2-5.1-30c-1.8,2-6.6,3.9-8.1-8
	c0.8-11.1,7.6-13.5,9-6.5c0.1,2.6-0.4,3.9-1.1,3.8c0.6,3.6,1.3,8.3,3.3,3.9l-1.8-1.4c1.9-5.5,1.8-20.7,4.7-17.1
	c-1.6-8.4-2.9-3.6-3.9,2.6c2.7-14.2,0.4-22.2,2.1-36.8c-1,2.3-3.1,4.4-3.1,2.1c2.3-21.4-3.3-9.5-4.1-24c2.7-8.2,6.5,3,4.2-11.6
	c1.9-8.9,4.7-1.9,6.2,1.7c-3.4-13.3,2.4-24.9,3-32.5l1.4,7c-0.7-3.7-0.9-7.4-0.8-11.1l-3.6,4c0.6-4.1,0.7-7.6,2.1-7.5
	c-2.3-4.2-5.9,3.2-9.1-5.2c1.8-5.5-1.9-16.7,2.9-18.6c-1.7,17.3,4.8-1.9,5.4,12.7c-0.5-3.4-0.5-7,0.1-10.4c0.5-0.6,1,0.6,1.2,1.7
	c4.3-16.5-5.3-7.6-5.1-24.7c2.7,2.2,5.1-3.9,4.5-6.7c-0.1,6.9-4.4,3.3-6.5-3c2.1-11-1.5-11.9-1.2-17.7l-1,6.6
	c-2.6-2.2-2.3-7.7-3.1-15.4c2.1-0.6,1.4,6.9,2.3,4.2c-4.6-8.5,4.9-19.2,1.8-31c1.8-5.5,5-0.5,6.2-5.3c-3.4-13.3,3.6-14.4,0.8-28.3
	c-3.6,4-2.7,4.7-6.2-5.1l2.5,23l-5.2-14.7c0,6.9,2.3,14.6,1.7,18.8c-2.9-7-2-6.3-5-3c5.4-9.5-3.1-18.8,0.5-29.7l8.9,0.3
	c3.9-16.5-4.6-29.3-2.4-50.6l-1.5,6.9c-3.5-2.9-0.5-13.2-1.9-20.1c3,0.6,4-3.7,5.9-6.6c-2.2,0.4,0.2-15.6-5.7-17.6l3.9-9.6
	c1.6-17.3-8.5-19.7-7.5-36.3c3.2,5,5.3-2.6,7.6,8.6c0-5.6,0.6-10.5-1.5-10.6c1.9-3.2-4-15.3-1.2-20.5c-1.3-2.3-4.4-3.1-4.2-9.3
	c0.6-0.7,1.5,0,1.5,0c-1.4,0-2-9.7-5.3-4.3c9.1-17.1-1-47.7,6.9-62.6c-1.1-12.1-2.1-26.7-2.4-37.6c0.9,0.7,1.5,0,1.2,2.1
	c2.7-15.2-8.6-9.2-5.6-26.5c4.7-8.8,2.6,9.1,4.4,3.6c9.7-2.4-1.5-20.8,4.1-32.4l0.6,2.8c3.3-8.9-3.8-21.6-3.2-36.1
	c0,0,0.9,0.7,1.5,0.1c-5-9.9-6.9-28.6-8.4-42.5c3.9,4.3,2.1,6.3,5.9,3.6c-0.6-6.2-6.2,1.9-7.4-10.6c2-4.1,3.8-13.1,7.9-14.3
	l0.4,11.8c5.3-6.1-0.4-15.2,0.5-21.4l2.4,0.8c-1-18-6.9-18.2-6.6-37.6l-1.8,2c-5.9-10.5,3.2-8.9-1.3-19.4l5.9-3.3
	c-1.5-7-6-24.4-7.2-36.9c4.5,7,6.9,21.7,9.6,30.7c0-6.9-0.7-23.5-3.6-27.1c0.6,2.8,2.1,6.3,1.2,9.1c-4.7-8.4-7.2-19.6-7.2-33.4
	c11.5,2.3,2.5-36,11.2-46.1c-4.6-24.3,1.1-48.4,0-76.8c-8.8,10.2-0.4-8.3-9.5-6.4c-0.7-6.6-0.6-9.1,0-9.7l5.2-20.2
	c2.6-4.8,2.1,6.3,4.2,5.6c0.5-14.5,3.8-6.2,6.1-15.8c-3.2,2-4.8-5-3.6-13.2l-4.1,11.7c-5.2-20.2,7.4-17.6,2.3-38l3,6.4
	c-0.9-5.2-1.1-14.9-1.9-24.5s-2.4-19.2-6.2-24.3c1-1.9,3.5-4.4,4.2,0.2c0.6-25.1-8.9-55.6-4.7-75.2l2.3,1.9c-0.7-4.7-4.4-8.1-2.2-14
	c0.9,0.3,2.3,1.8,2.4-0.3c-0.8-2.5-4.2-12.3-3-18.6l2.6,5.2c2.5-24.5-6.8-37.4-8.8-57.8c6.6-0.1,8.4-19.3,9.3-29l0.9,0.3
	c0.2-28.5-6.5-48.2-9.7-74.5c6.8-16.5,1.8-55.4,5.3-81.8c-1.1,4-5.2-0.5-5.9-5.2c1.2-6.2-5-16.9,1.1-16.1l-0.1,2.2
	c5.8-4.8,4-17.4,3.9-27.3l-8-1.5c10.9-26.1-5.9-67.7,4.1-82.1c-2.1-6.2-2.3-13.9-4.4-20.1l4.3,0.2c0.7-17.3,1-26-0.5-47.3l3.1,4.3
	c0-12.1-12.6-14.9-13.1-26l6.3-3.5c-0.6-21,4.4-42.5-1.9-63.1c0.9,0.3,2.8,0.9,3.1,4.3c-0.1-9.9,3.3-38.4-5.3-34.6
	c5.7-0.4,0-21.7-2.8-33l4.2,1.7c-5.6-9.5-7.1-9.7-8.9-23.1c0.5-3.2,3.3-2.9,2.3,1.4c1.9-10.6-4.2-8.1-2.3-21l2.8,4.7
	c0-10.9-1.4-10-4.6-15.9c-1.9-6.8,0.5-20.7,4.2-22.4c-2.3-1.4-5.6-7.3-4.6-13.7c1.4-0.9,2.4,1.4,2.8,2.6c2.4-18.3-5.6-26.9-1.8-39.5
	c1.2-0.2,2.1-1.1,2.4-2.2c0.3,14.5,0.4,26.1,0.1,25c3.9-0.1,4.2-11.8,9.8-2.7c-3.2-9.3-9.9-25.2-8.4-36.6c0.3-0.6,0.8-1.1,1.3-1.5
	l0.5,1.2c0.3-2.4,0-4.9-0.8-7.2c0.6-3.1,0.9-6.3,0.9-9.5c3.1-1.4,1.4-13.4,1.4-19.3c-4.2,0.6-3.7-7-7,0.2c0.3-0.9,0.5,1.1,0.8,5
	c0.1,0.8,0.3,1.7,0.5,2.5c-0.1-0.1-0.3-0.3-0.4-0.4c0.2,3.8,0.5,8.8,0.7,14.5c-2.3-4.5-4.2-9.3-2-15.8c-2.5-2.5-4.8-5.2-7-8
	c5.6-8.1,8.4-23.6,12-25.8c-2.9-17.7-2.7-41.8-10.9-52.8c-1.2-5,2.1-5.9,3.3-7.8c0.9,2.9,0.9,6.4,2,7.9c-2.3-10-1.6-29.9-7.2-32.2
	c2.1-12.8,5.3,7,3.9-10.5l1.8,2.3c7.9-34.7-15.7-55.6-5.5-94.1c-0.6,2.7-0.9,4-1.8,4.6c3.7-43.7-7.3-89.6-0.6-132.8
	c1.2-12.3-2.3-13.5-5.2-20.9l4.5-2.8l-5.6-12.6c-4.4-17.9,10.2-31.6,2.3-54.3l-3,3c0.3-8.2-2.6-26,1-24.7c-0.6-0.8-3.3-2.6-1.8-5.9
	l2.4-0.3l-4.6-20c1.3-15.7,9.5,2.2,9.3-20.7c-1.2-8.5-7.6-24-9.1-20.7c0,3.4-1.2,8.8-3.6,9.1l-1.4-7.7c-7-1.2-14.3-6.9-18.7,12.2
	l4.6,13.1l-3.3,4.4l-0.5-11.2c-3,6.4-0.1,10.4,2,14.8c-1.9,1.3-3.2,3.4-3.6,5.7l7,12.8c-2.7,1.7-5.6-5.7-6.8,3.1c3.3,6,5.9-6,8.3,4
	c-3,6.4-5.6,4.7-2.7,12c-1.8,1.1-3-0.4-3.8-3.4c2.4,6.6,1.4,17.5,5.2,20.8c-3.7,6.7,1.7,22.4-4.9,21.9c1.6,2,5.5,11.5,6,17.6
	c-8.2-10.9,0.2,22.8-8.4,20.1c7.3,8,4,29.7,8.4,44.2c-0.6-0.8-1.8-2.4-1.4-3.7c-0.4,8.2-2.4,10.7-3.6,16c5.9,0.9,7.6,13.6,11.4,20.4
	c-5.4,10.2-7.1-5.9-12.4-2.6c4.7-0.6,5.2,17.4,9.1,13.8c-3.3,7.8-1.5,6.7-6.3,10.8c7.4,1.1,1.4,7.1,6.1,13.4
	c-3.3,11.2-6.8,3.1-4.2,15.2C119.2,283.1,116.3,272.3,116.3,272.3z M137.2,563L137.2,563c-0.3-2.5-0.4-4.6-0.5-6
	C136.8,558.2,136.9,560,137.2,563z M137.9,587.5c0.1-3,0-6.7-0.1-10.6c1.4-0.9,3,0,3,2.5C139.7,578,139.1,583.8,137.9,587.5
	L137.9,587.5z M165.7,534.9c0.7,3.8-0.1,5.2-0.9,5.7c-0.1-1.8-0.3-4-0.7-6.8c-0.2-0.1-0.4-0.3-0.5-0.4
	C164.4,533.7,165.1,534.2,165.7,534.9z"/>
<path class="st0" d="M172,528.1c-0.2-0.5-0.3-1.1-0.4-1.6c-0.3,0.8-0.6,1.5-0.9,2.3c0.5,0.5,0.9,0.9,1.4,1.3L172,528.1z"/>
<path class="st0" d="M188.1,2746.6l0.1-0.5c-0.1,0.4-0.3,0.8-0.6,1.1C187.8,2746.8,187.9,2746.8,188.1,2746.6z"/>
<polygon class="st0" points="150.5,925.4 151.5,925.3 150.6,923.2 "/>
<path class="st0" d="M171,2881.1c-0.6,0.4-0.9,1.1-1.1,1.7C170.1,2882.8,170.6,2882,171,2881.1z"/>
<path class="st0" d="M168.7,2939.2l-1.7,8.2C167.7,2944.7,168.3,2942,168.7,2939.2z"/>
<path class="st0" d="M165.5,2983.9c0.5,0.4,1.1,0.7,1.8,0.9c0,0,0-0.1,0-0.1L165.5,2983.9z"/>
<path class="st0" d="M170.3,2272.5c0-0.6-0.1-1.2-0.2-1.7C169.3,2266.7,169.6,2269.5,170.3,2272.5z"/>
<path class="st0" d="M178.9,2484.3c-0.8-2.2-1.4-4.5-1.9-6.8C176.6,2481.2,176.5,2484.2,178.9,2484.3z"/>
<path class="st0" d="M165.2,2036.1C165.2,2036.1,165.2,2036.1,165.2,2036.1c0.1-0.5,0.1-1,0.1-1.5L165.2,2036.1z"/>
<path class="st0" d="M177.2,2467.6c-0.8,3.2-0.8,6.6-0.2,9.9C177.3,2474.4,177.8,2470.8,177.2,2467.6z"/>
<path class="st0" d="M157.9,3177.7l-0.2,2.1c0.3,0,0.5,0.1,0.7,0.3L157.9,3177.7z"/>
<path class="st0" d="M158.3,3180.1l0.4,2.4C158.8,3181.4,158.7,3180.5,158.3,3180.1z"/>
<path class="st0" d="M159.6,3187.6l-0.9-5.1C158.6,3184.3,158.4,3186.4,159.6,3187.6z"/>
<path class="st0" d="M161.7,3118.6l-1.5-0.7C160.5,3118.3,161.1,3118.5,161.7,3118.6z"/>
<path class="st0" d="M161.8,3100.6c-0.5,4.3-3.6,10.7-2.8,16.7l1.2,0.6C158,3115,164.2,3104.7,161.8,3100.6z"/>
<path class="st0" d="M183,3026c-0.5,5-1.1,10-1.6,15.1c1.7-2.6,4-6,4.2,0.9C191,3023,181.8,3045.7,183,3026z"/>
<path class="st0" d="M186.5,2979.3c0.6,8.1,2.4,0,3.3,0.4C188.4,2974.5,188.1,2973.2,186.5,2979.3z"/>
<path class="st0" d="M193.2,2641.1l3.8,0.9C196.6,2635.7,195.6,2641.9,193.2,2641.1z"/>
<polygon class="st0" points="174.1,2576.2 171.7,2582.2 175.2,2585.2 "/>
<polygon class="st0" points="201.9,2538.3 202.4,2541.1 201.1,2530.6 "/>
<path class="st0" d="M201.9,1970.2l-4.7,1.9C198,1976.3,203.4,1977.2,201.9,1970.2z"/>
<path class="st0" d="M195.1,1725c2.3-2.7,3.8-9.6,1.4-13.8C196.2,1716.7,194.4,1722.2,195.1,1725z"/>
<polygon class="st0" points="189.9,989.5 191.6,994.4 190.1,985.2 "/>
<path class="st0" d="M187.4,3129.9c1.2,1.7,4.2,0.9,3.8-3.6l-4.8-3.4L187.4,3129.9z"/>
<path class="st0" d="M197.5,3099.7c-2.4-5.4-6.6-11.6-11.1-8.2c4.7,5.3,2.8,6.5,8.3,12.3c0.4,4.6-1.9,7.9-3.7,7
	c1.2,1.6-1.3,7,1.7,9.5c2-2.9,3.2-6.3,3.4-9.8c0.1-1.9,0-3.7-0.3-5.6c-0.2-1-0.4-1.9-0.6-2.9s-0.6-1.9-1-2.9
	C195.3,3097.7,196.6,3099.3,197.5,3099.7z"/>
<path class="st0" d="M159.9,2656.7l-0.2,2.9C159.9,2658.7,159.9,2657.7,159.9,2656.7z"/>
<path class="st0" d="M140,2382.4c0.2,2.1,0.8,2.9,1.2,3C140.7,2383.5,140.4,2381.9,140,2382.4z"/>
<path class="st0" d="M143.4,2335.3c-0.1,1-0.2,1.9-0.2,2.8C143.6,2337.2,143.7,2336.2,143.4,2335.3z"/>
<path class="st0" d="M159.9,2656.7l0.7-7.5C158.9,2648.9,159.8,2653.1,159.9,2656.7z"/>
<path class="st0" d="M184.9,3038.9c0.3,1.4,0.8,2.7,1.5,3.9c-0.3-1.2-0.5-2.4-0.7-3.7C185.4,3039,185.1,3039,184.9,3038.9z"/>
<path class="st0" d="M180,2776.4l0.3,2.2c0.7,0.6,1.5,1.1,2.3,1.6L180,2776.4z"/>
<path class="st0" d="M193.8,2868.8c-0.1-2.1-4.4-2.3-6.3-2.9c1.7,0.8,3,2.4,3.5,4.2C192,2870,193,2869.5,193.8,2868.8z"/>
<path class="st0" d="M201,3017.3c0.3,0.9,0.5,1.7,0.7,2.6C201.5,3019.2,201.3,3018.1,201,3017.3z"/>
<path class="st0" d="M171.6,2710.3c0.5-0.2,1-0.5,1.4-1C172.4,2709.4,171.9,2709.8,171.6,2710.3z"/>
<path class="st0" d="M167.5,109.4c0.3,0,0.5,0,0.8-0.1C167.8,108.8,167.5,108.7,167.5,109.4z"/>
<path class="st0" d="M176.5-0.1l0.4,1.5c0.8,0.1,1.6,0.1,2.4,0L176.5-0.1z"/>
<path class="st0" d="M146.5,2249.3c0,0.2,0,0.2-0.1,0.4C147,2252,146.9,2250.7,146.5,2249.3z"/>
<path class="st0" d="M174.2,1461c-4.4,8.7-3.8-14.9-8.9-1.7C167,1458.1,170.9,1471.9,174.2,1461z"/>
<path class="st0" d="M185.3,3036.5c-0.1-1.2-0.2-2.5-0.2-3.8C185,3034,185.1,3035.2,185.3,3036.5z"/>
<path class="st0" d="M165.2,1459.2L165.2,1459.2l-0.5,1.4L165.2,1459.2z"/>
<path class="st0" d="M144.2,2051.5c-0.8,0.5-1.4,1.2-1.9,2C142.8,2053.5,143.3,2053,144.2,2051.5z"/>
<path class="st0" d="M137.3,2199l0.5-3.7C137.5,2196.5,137.4,2197.8,137.3,2199z"/>
<path class="st0" d="M140.1,1974.8c0.4-2,1-2.6,0.5-5.4c-0.2,0.2-0.4,0.5-0.5,0.8C140.6,1971.2,140.9,1972.6,140.1,1974.8z"/>
<path class="st0" d="M142.9,1895.1c-0.3,0.5-0.6,0.9-0.9,1.4c0,0.8,0.1,1.7,0.1,2.5L142.9,1895.1z"/>
<path class="st0" d="M185.1,350.4c1-1.5,2.2-2.8,3.7-3.8C185.9,347.9,184.4,336.3,185.1,350.4z"/>
<path class="st0" d="M187.2,3038.8c-1-0.3-1.8-1.2-1.9-2.3c0.1,0.9,0.2,1.8,0.3,2.6C186.3,3039.3,186.9,3039.3,187.2,3038.8z"/>
<path class="st0" d="M107,1970.6l1-12.7C107.4,1962.1,107.1,1966.3,107,1970.6z"/>
<path class="st0" d="M176.5,921.9l-0.3-2.9C176,920,176.1,921,176.5,921.9z"/>
<path class="st0" d="M108.6,1920.1c1.5-2.1,2.6-4.5,3.2-7c-0.2-0.6-0.6-1.1-1-1.5L108.6,1920.1z"/>
<path class="st0" d="M188.9,346.6L188.9,346.6C188.9,346.6,188.8,346.6,188.9,346.6z"/>
<path class="st0" d="M163.1,263.9c0.5,12,5.7,5.4,9,7.7c2.3,14.3-3.8,6.9-6.4,11.9c1.9,8.9,7.3,15.5,7.4,22.2
	c-0.9,0.5-1.2,1.9-2.4,0.4c4.8,9.3,1.7,28.1,7.4,39c-0.3,0.6-0.8,1.1-1.3,1.5c2.2-1.6,4.9-2.3,7.6-2c0.3,5.4,3.8,9.9,0.2,12.1
	c0-3.3-1.5-3.5-2.6-5.1l1.7,5.6c-5.1,5.3-2-7.7-5.9-7.5c2,11,6.7,23.7,5.5,32.3c-5,1.9-2.3-19.8-6.5-8.3l1.6-13.2
	c-7.7,10.3,0.3-8-8,1.5c-1,17.2,3.2,19.2,2.2,36.4c2.9,3.8,4.1-1.4,7.1,2.4c2.9,12.2-0.1,17-3.1,21.1s-5.7,7.3-2.2,16.2
	c3.4,4.6,9.9,6.3,6.7,19.2l-5.8-4.2c-0.4,16.7,8.4,9.4,4.7,27c-2.3-3.1-2.1-13.1-2.7-10.6c-4.4,11.4,3.4,8,3.5,16.7l-5.1,1.8
	c0.2,4.4,0.7,9,1.2,13.6s1,9.4,1.6,14.1c1.1,9.6,2.2,19.4,2.6,29.2c-1.5-1.1-3.1-4.5-4.7,0.1c1.1,12.9,1.2,25.9,0.1,38.8
	c-1.1,13.1-2.9,26.1-4.6,38.1l4.2,9.2c-0.1,2.1-2.1,3.9-2.9,1.6c-1.8,9.3,2.8,0.5,4.4,5.1c0.2,5.3-2.6,7-3.9,3.6
	c0.9,4.1,1.7,9.2,2.5,14.6s1.4,11.4,1.7,17.3c0.6,11.9,0.1,23.8-2.5,32.4l-1.2-3.4c-2.2,13.5,8.6,15.5,4.1,28l-0.7-2.4
	c-0.7,7.3-1,14.8-1.3,22.4s-0.5,15-0.8,22.3c-0.6,14.4-1.9,28.1-5.6,39.2c6.1,4.5-4,28.9,4.7,31.2c-5.2,16.5-6.6,11.7-10.7,35.1
	c-0.7,6.3,5,9.7,5.6,17.5h-4.6l4.3,10.8l-5.8,5.3l0.8,7.4c0.4-2.9,2.4-6.1,3.7-5.6c1.5,11.5-4.8,27.6-7.2,27.8l2.3,27.2
	c-1.8-0.7-2.2-5.3-3.2-8.9c3.9,14.7-5,2.3-1.5,15.8c1.1-1.7,2.7,1.1,3.6,1.5c-3.2,6.4-4,21.4-3.6,32.5l-3-2.3
	c-2.1,20-1.2,42.3-2.7,64.7c2-8,7.4-5.8,7.5,0.9l-5.1,2.3c2.7,4.4,2.3-6.8,5.4,2.2c-1.1,8.4-5.9,5.3-7.2,0.3l1,10.3
	c-1.5,0.5-2.1-1.9-3.9-2.7c2.8,4.4-6.1,17.3-1.2,23.7l-1.5,0.5c-1.6,22.4-0.6,32.7-1.6,51c4.2,0.7,2.8,7.7,5.8,13.4
	c-2.3,13.3-6.7,28-7.5,44.2c1.3,11.5,3.3,3.6,5.4,8.9c-3.9,0.6-4.7,16.8-6.9,8.2c-0.8,19.5-1,24.9,0.3,49.7c1.8-2.6,2.7-5.5,3.9-3.9
	c0.3,4.5-2.4,10-4.1,9.3l-0.3-1.2c3.7,28-15.9,62.9-9.5,85.5l-0.3-1.3l2.5,23.1c-1.4,10.4-2.4-6.5-5.4,1.1c4.6,25.1-3.8,38.8-1,59.4
	c-12.4,14.9-3.2,55.7-11.9,76.4l2.8-1c2.2,5.7-2,6.5-2.9,10.5c2.1-0.4,2.8-5.8,4-2.3c0,11.7-0.6,23.4-1.7,35.3s-2.6,23.8-4.2,35.8
	c-3.2,24-7.2,48.1-9.8,71.8c-1.7,17.4,13.2,10.7,5.6,32.3l-4.6-6.5c2,17.7,0.9,35.7-0.3,53.6s-2.2,35.7-0.6,53
	c-1-2.1-2.5-2.2-2.3-5.6c-4,7.1-1.5,26.9,1.4,27.1c-0.6,5.3-2.7,1.1-4.4,4.4c-2.5,7.2,3.8,18.5,0,22.2c-0.6,0.6-1.1-2.1-1.3-3.4
	c1.6,4.8-1.3,22.2,3,17.8c-2.5,12.9,0.8,24.8-2,35c4.4,6.9-3.2,22.1,3.4,24.4c-6.8-1.2-6.1,22.5-3.2,30.8c-2-2.8-2.3,7-5.1,3.8
	c-0.2,9.3,0.8,17.9,4.4,16.4c-4.3,8.5-2.9,17.2-1.8,24.9c0.6,3.5,0.9,7.2,0.8,10.8c-0.1,3.3-1.6,6.3-4,8.5
	c1.6,13.9,2.9,27.3,3.9,40.3c0.5,6.5,1,12.9,1.4,19.3s0.8,12.6,1.2,18.9c-3.3-0.5-3.6-7.4-3.6-14s-0.2-13.1-3.8-12.6
	c0.6,5.9,1.4,11.2,2.2,16.2s1.8,9.7,2.6,14.3c1.9,10,2.4,20.2,1.7,30.4c-0.9,6.1-2.9-3.5-4.1-5.5c1.4,11.8,1.2,23.3,1.1,34.4
	c0,2.8,0,5.5,0,8.3s0.1,5.5,0.3,8.2c0.3,5.4,0.9,10.7,1.8,16c-0.6,0-1.3-2.3-1.9-4.5c0.3,4.1-0.9,9.7,2.2,9.2l-0.9-4
	c4.4-6.7,9.6,16.4,11.9,17.1c-8.9-6.9-1.9,20.8-13.2,9.8c0.6,2.7,2.1,6.1,4.2,5.5c-0.5,4.1-1.7,5.4-4.1,1.3c1.9,14.9,5.1,9.5,5.2,23
	c-1.5,0-2.1-2.7-3.9-4.1c1.7,3.5,3,7,4,10.7c1.2,4.6,1.6,9.4,1.2,14.2c-0.9-0.7-2.1,0.7-2.1-2.7c1,19.5,8.8,33.1,6.6,54.6
	c-6.7-6.1-1.9,7.4-7.5,8.7c0.7,3.8,1.3,7.6,2.1,11.5c0.8-1.6,1.7-3.1,2.5-4.7c0.3,10.1,4.9,18.8,3.5,27.6l-2.7-7.4l2,18.9l1.6-10.8
	c3.4,10.1,7-1.4,6.1,12.1c-0.7-2.7,0.4,10.1-2.6,15.5l0,0c2,4.9,4.2,9.9,3.1,17.4c-1.7,2-6.3-1.2-7.4,0.1c2.5,2.3,3,8.2,3.8,14.2
	s1.6,12.2,4.3,15.2c-1.3-2-4.2-1.9-4.8-1.2l4.1,3.9c-0.9,4.8-1.4,5.5-3.8,4.9c0.3,14.1,6.8-4.9,4.9,11.9c-0.4-1.3-0.9-0.6-1.7-3.3
	c-0.4,16.8,4.7,32.1,3.9,47.6c-5.3,5-2.3-13.3-6.7-7.8c1.2,11.1,4.1,22.4,6.5,33.6s4.6,22.4,4.9,33.2l0.2-4
	c8.2,2.2-2.4,16.3,2.3,26.8c-0.8-2.6-4.7-3-3.8-2.4c0,7.4,1.4,14.8,3.4,23.1s4.5,17.5,7,28.4l-2.4-2.5c-0.8,8.8,1.6,22.8,1.8,32.3
	c2.4,2.5,2.6,7.9,5.2,4.3c-1,3.6-1.6,7.3-1.7,11c-0.2,3.5,0,7,0.4,10.5c0.9,6.8,2.4,13.5,4.4,20c3.6,13,7.5,25.5,4.5,38.9
	c-0.5-3-2.8-7-2.5-4.6l5,21.3c3.2-2.2,1.7-3.1,3.7-8c2.4,2.4,4.9,8.3,5.7,13.6c-3.7-9.4-5.5,0.9-6.8,5.3c1-0.9,2.3,0.4,3.3-0.1
	c-4.5,12.1,7.2,0.9,5.3,16.9l-1.9-0.6c1.8,5.6,4.9,10.6,5.3,16.9c-3.6,3.1-2.7-5.9-6.1-5.8c1.5,8.7,9.9,16.1,7.1,24.6
	c-1.6-3.6-2.4-8.9-4-12.4c-3.5,9.2-2.1,10.1-2,16.6v-0.6c0,5-0.1,10-0.1,15l0.8-3.9c11.8,9.5,4.9,21.9,13.5,35.8
	c-8.2-13.5-4-1.9-8.7-2.4c-0.8,3.9-1.5,9.8-3,8.3c2.2,3.2,1.9,6.2,1.8,9.5c-0.4,4.1,0.7,8.2,3.2,11.5c-1.4,0.6,0.7,7.4-3.1,6.3
	c2.2,8.9,2.3-2.4,4.2-1.9c1.6,3.5,2.4,7.3,2.5,11.2c0.2,4.1-0.1,8.4-0.3,12.9c-0.3,4.7-0.2,9.3,0.2,14c0.4,5,1.6,9.9,3.5,14.5
	c4.3,17.1,9.3,19.9,12.8,35.9c-2,5.6-5.6-4.1-5.6-4.1c-1.5,8.9-0.9,15.4,1.1,23.6c-1.3-1.6-2.4,0.1-3.9,2.7
	c0.6,6.6,5.6,4.2,3.7,13.1c-1.6-1.4-4.3-3.3-6.1-6.4c0.9,3.9,1.9,7.7,3,11.6s2.2,7.8,2.9,11.9c-2.5,2.2-4-4.8-5.7-7.6
	c0.7,4.5,1.4,10.4,2.4,15.4s2.2,9.4,4.2,10.8l1.5-5.8c0.2,3.3-3.5,1.7-4.2-0.7c-1.5-3.9-1.3-6.7-0.4-8.6c0.6-1.4,1.7-2.5,3.1-3.1
	l1,5.8c4.2-3,3.8-8.8,2.3-15.3c-0.7-3.2-1.7-6.7-2.5-10c-0.9-3.1-1.4-6.3-1.5-9.5l6.4,4.6l-5.7-11.7c1.5-2.6,4.9-4.5,6.1,1.2
	c2.7-8.5-2.5-7.3,0.6-14.6c0.5-0.8,0.8-0.5,1.1,0.2l-2.4-8.1c1.4,1.5,4.3-1.6,3.7,3.5c2.6-14.9-6.1-23.4-1.9-29.2l0.5,1.2
	c-3.8-20.2-4.7-1.6-11.3-16.4l5.2-5.6l5.1-5.6l-4.8-1.6c0-2.1-0.1-6.3,1.8-5.7c-3.9-7.5-1.9,1.5-5.2-2.7c3.2-10.5-4.9-27.5,2.1-30.6
	c-3.9-3.2-1.6,9.9-5.2-0.5c3.7-2,3-5,1.7-8.8s-3.3-8.2-2.1-13c4.4,2.3,3.3,11.3,5.8,1.6c-7.5-4.7-0.7-18.1-3.1-25.6
	c-5.5,0.4-4.4-16.5-8.1-29.2c1.9,0.6-0.4-24.8-0.2-37.1l1,0.2c-5.8-1.6-6.6-14.1-9-23c3.3-0.1,4.8,1.3,7,6l-1.2-8.5
	c-2-1.8-3.4-4.3-4.8-9.7l4.4,1.5c-1.8-11.2-8.1-22.1-7.4-37c-3.9-0.3-9,13.1-13.7-2c2-0.9,5.4-1.9,6.8,2c-0.4-1.3-2.4-4.5-1.9-7.2
	l4.3,5.7c0.6-6.8-3.4-3.1-3.8-8.4c3-0.3,1.6-4.2,4-3.8c0.5,1.3-0.6,4.8,0.9,6.6c-0.3-6,0.4-13.5,2.3-16.2c-1.6,0.8-4,0.6-4.9-3.8
	c-1.7-11.3,3-4.3,3.6-11.1c-2.4-2.5-1.2-9.9-5.7-9.6c-0.4-3.3,1.6-4.2,2.6-5.6c-2.6-5.6-3.8-27.2-7.7-20.1l-0.1,1.5
	c-0.1-0.3-0.2-0.6-0.3-0.9l0,0c-6.6-18.7-2.2-40.2-6.3-59l1.5-0.1c-2.7-11.2-3.4-25.3-7.3-33.1c-0.3-3.4,1.9-8.2,3.8-6.9
	c-1.9-8.6-3.7-9.4-2.4-22.2c3.4,8.5,2-3.2,2.7,8.8c0.2-11.4,2.4-14.2-2.8-26c2.1,1.9,3-0.3,3.4-3.7c0.3-3.5,0.1-7.1-0.8-10.5
	l-2.1,8.2c-0.8-5.5-1.2-11.1-1.1-16.8l5.2,2.5c2.2-11.8-1.1-22-3.9-31.7s-4.9-18.6-0.5-27.7c-3.9-5.9-1.6,12.7-6,7.5
	c0.2-5.3,1.2-10.6,3.1-15.6c1.6-4.6,3.3-8.4,3.2-10c2-14.8-8-13.2-6.8-28.6c-1.7,2-6.3,4.1-8.6-7.2c0.1-10.8,6.8-13.5,8.6-6.8
	c0.3,2.6-0.2,3.8-0.8,3.7c0.8,3.4,1.8,7.9,3.5,3.6l-1.9-1.3c1.6-5.4,0.6-20.1,3.7-16.8c-2.1-8-3.1-3.3-3.7,2.7
	c0.8-5.9,0.9-11.8,0.3-17.7c-0.5-6-0.5-12,0-17.9c-0.9,2.3-2.9,4.4-3,2.2c1.6-20.8-3.6-9-4.9-23c2.5-8.1,6.6,2.7,3.9-11.4
	c1.6-8.7,4.7-2,6.2,1.4c-3.8-12.8,1.5-24.1,1.9-31.4l1.6,6.7c-0.8-3.5-1.2-7.1-1.1-10.7l-3.4,3.9c0.5-4,0.4-7.4,1.9-7.3
	c-2.4-4.1-5.9,3.3-9.2-4.8c1.7-5.4-2.2-16.1,2.5-18.1c-1.4,16.7,4.7-1.9,5.7,12.2c-0.6-3.3-0.6-6.7,0-10c0.5-0.6,1,0.6,1.3,1.6
	c4-16-5.4-7.2-5.6-23.8c2.7,2.1,5-3.9,4.4-6.6c0,6.7-4.4,3.2-6.5-2.9c1.9-10.6-1.7-11.5-1.5-17.1l-0.9,6.4
	c-2.7-2.1-2.4-7.4-3.4-14.9c2.1-0.6,1.5,6.7,2.4,4.1c-4.9-8.2,4.8-18.6,1.6-30.1c1.8-5.3,5-0.5,6.2-5.2c-3.4-12.9,3.7-13.9,0.9-27.4
	c-3.6,3.9-2.7,4.6-6.2-5l2.5,22.2l-5.2-14.3c-0.1,6.7,2.2,14.1,1.6,18.2c-2.9-6.8-2-6.1-5-2.9c5.4-9.2-3.1-18.2,0.6-28.8l8.9,0.4
	c2-7.9,0.8-15-0.4-22.7s-2.6-16-1.4-26.3l-1.7,6.6c-3.5-2.8-0.3-12.8-1.6-19.5c3,0.7,4.1-3.5,6-6.3c-2.2,0.3,0.4-15.1-5.4-17.1
	l4.1-9.2c0.9-8.3-1-13.2-3.1-17.9s-4.2-9.4-3.4-17.4c3.1,4.9,5.4-2.3,7.4,8.5c0.2-5.4,0.9-10.2-1.2-10.3c1.9-3.1-3.6-15-0.6-19.8
	c-1.2-2.3-4.3-3.1-3.9-9.2c0.6-0.6,1.5,0.1,1.5,0.1c-1.5-0.1-1.7-9.5-5.1-4.3c2.4-4.1,3.7-9,4.3-14.3c0.3-2.7,0.5-5.4,0.6-8.2
	s0.2-5.6,0.2-8.5c0.1-11.3,0.1-22.3,4.3-29.4c-0.5-11.7-0.9-25.9-0.7-36.5c0.9,0.7,1.5,0.1,1.1,2.1c3.3-14.5-8.1-9.4-4.2-26
	c5.2-8.3,2.1,9,4.2,3.8c9.9-1.8-0.3-20.2,5.9-31.1l0.4,2.7c3.7-8.4-2.6-21.1-1.2-35.1c0,0,0.8,0.7,1.5,0.2
	c-4.5-9.8-5.1-28.1-5.7-41.7c3.6,4.4,1.7,6.2,5.7,3.9c-0.2-6.1-6.3,1.4-6.7-10.7c2.3-3.8,4.6-12.4,8.8-13.3l-0.4,11.4
	c5.7-5.5,0.7-14.7,1.9-20.7l2.3,0.9c0.3-17.5-5.7-18.1-4-36.8l-1.9,1.8c-5.2-10.6,3.8-8.4,0.1-18.9l6.1-2.7c-1-6.8-4.2-24-4.5-36.2
	c3.9,7.2,5.3,21.5,7.3,30.4c0.5-6.7,1-22.8-1.7-26.5c0.4,2.7,1.6,6.2,0.6,8.8c-4.1-8.5-5.7-19.5-4.7-32.8
	c11.3,3.1,5.3-34.6,14.8-43.7c-1.3-12,0-23.6,1.7-35.8s4-24.7,4.7-38.5c-9.6,9.1,0.3-8.1-8.9-7c-0.1-6.4,0.2-8.9,0.8-9.4l6.9-19
	c3-4.4,1.6,6.2,3.7,5.8c1.7-14,4.3-5.6,7.4-14.7c-3.4,1.7-4.3-5.2-2.5-13.1l-5,11c-3.4-20,8.9-16.4,5.6-36.5l2.4,6.5
	c-0.9-10.3,2.8-37.4-3.8-47.9c1.2-1.7,3.9-3.9,4.2,0.6c2.9-24.2-3.9-54.5,2.1-73l2.1,2c-0.3-4.6-3.6-8.2-1-13.7
	c0.9,0.4,2.1,2,2.4-0.1c-0.6-2.4-3-12.3-1.3-18.2l2.1,5.3c4.6-23.4-3.5-36.7-3.6-56.7c6.6,0.5,10.1-17.9,11.8-27.2l0.9,0.4
	c2.7-27.5-2.2-47.2-3.1-72.9c8.2-15.4,6.5-53.5,12.1-78.7c-1.4,3.8-5.1-1-5.5-5.5c1.7-5.9-3.6-16.8,2.4-15.5l-0.2,2.1
	c6.2-4.1,5.3-16.5,6.1-26.1l-7.8-2c6.5-12.2,6.4-28.7,6.1-43.8s-1.1-28.8,4.4-35.3c-1.7-6.2-1.3-13.7-2.9-19.8l4.2,0.5
	c1-8.4,1.7-14.7,2.2-21.4s0.8-14.1,0.7-24.5l2.9,4.4c0.8-11.7-11.6-15.3-11.4-26.2l6.5-3c0.4-10.2,2.2-20.5,3.2-30.7
	s1.5-20.5-1.1-30.7c0.9,0.4,2.7,1,2.9,4.3c0.5-9.6,5.4-37.2-3.4-33.9c5.7-0.1,1.2-21.1-1-32.2l4.1,1.8c-5.1-9.5-6.4-9.8-7.7-22.8
	c0.6-3.1,3.4-2.6,2.2,1.5c2.4-10.2-3.8-8.1-1.4-20.5l2.6,4.7c0.5-10.6-0.9-9.8-4-15.6c-1.6-6.7,1.4-20,5.2-21.5
	c-2.3-1.5-5.2-7.3-4-13.5c1.4-0.8,2.3,1.5,2.7,2.6c0.7-3.9,0.9-7.8,0.7-11.8c-0.3-3.2-0.7-6.4-1.3-9.6c-1-5.9-1.9-11.1,0.2-17.2
	c1.1-0.1,2.1-0.9,2.5-2c-0.2,14.1-0.4,25.4-0.7,24.3c3.9,0,4.6-11.3,9.9-2.2c-2.9-9.2-9.1-24.8-7.3-35.9c0.3-0.6,0.8-1.1,1.3-1.5
	l0.4,1.2c0.3-2.3,0.1-4.7-0.6-7c0.7-3,1.1-6.1,1.2-9.2c3.2-1.3,1.8-13,1.9-18.7c-4.2,0.5-3.5-6.9-7,0c0.3-0.9,0.5,1.1,0.7,4.8
	c0.1,0.8,0.2,1.6,0.4,2.4l-0.4-0.4c0.1,3.7,0.2,8.6,0.2,14.1c-2.1-4.5-3.9-9.2-1.5-15.4c-2.4-2.5-4.7-5.1-6.8-7.9
	c3-3.9,5.1-9.6,7.1-14.5s3.6-9.2,5.4-10.3c-2.6-17.3-2.1-40.8-10.1-51.5c-1.1-4.9,2.2-5.7,3.4-7.5c0.8,2.8,0.8,6.2,1.9,7.7
	c-2-9.8-1.4-29.1-7-31.3c2.1-12.5,5.3,6.8,3.9-10.2l1.8,2.3c3.9-16.9,0-30.4-3.6-44.4c-0.9-3.5-1.8-7-2.5-10.6
	c-0.9-3.8-1.5-7.6-1.9-11.4c-0.9-8.5-0.3-17.1,1.9-25.4c-0.6,2.6-0.8,3.9-1.7,4.5c0.7-10.7,0.6-21.5-0.1-32.2
	c-0.6-10.8-1.5-21.6-2.8-32.5c-2.3-21.6-4.2-43.2-1.7-64.4c0.2-2.4,0.1-4.8-0.2-7.2c-0.2-1.6-0.7-3.2-1.4-4.7
	c-1.3-2.6-3-4.6-4.7-8.1l4.3-2.9l-6.3-11.9c-5.4-17.1,8.3-31.3-0.9-52.8l-2.8,3.2c-0.1-2.4-0.3-4.9-0.7-7.3
	c-0.4-2.7-0.9-5.5-1.2-8.1c-0.7-5.1-0.9-9.1,1-8.7c-0.6-0.8-3.5-2.2-2.2-5.5l2.3-0.5l-6.3-19c-0.1-15.3,9.6,1.3,7.5-20.9
	c-1.9-8.1-9.6-22.5-10.8-19.3c0.3,3.3-0.5,8.6-2.8,9.2l-2.1-7.3C157.8,0.8,150-4,147.3,14.9l5.7,12.2l-2.9,4.5L148.7,21
	c-2.5,6.5,0.8,10,3.2,14.1c-1.8,1.4-2.9,3.5-3.1,5.8l8.1,11.8c-2.5,1.8-6-5-6.6,3.6c3.8,5.5,5.4-6.3,8.6,3.2
	c-2.4,6.5-5.2,5-1.7,11.8c-1.7,1.2-3-0.2-4.1-2.9c1.4,3.1,2.2,7.2,3,11c0.4,1.8,0.9,3.5,1.5,5.2c0.4,1.3,1.2,2.5,2.3,3.4
	c-3.3,6.8,3,21.5-3.6,21.5c1.8,1.8,6.2,10.8,7,16.6c-8.9-10,1.6,22-7.2,19.9c3.9,3.7,5.4,10.8,6.5,18.6c0.6,3.9,0.9,8.1,1.5,12.1
	c0.5,3.9,1.3,7.7,2.6,11.4c-0.6-0.8-1.9-2.2-1.6-3.5c0,8-2,10.4-3,15.6c5.9,0.6,8.1,12.8,12.2,19.3c-5,10.1-7.3-5.4-12.5-2
	c4.7-0.8,5.9,16.5,9.6,13c-3,7.6-1.2,6.5-5.9,10.6c3.7,0.4,4.1,2.1,4.3,4.5s-0.1,5.3,2.3,8.2c-3.1,11-6.7,3.2-3.9,14.8
	C166.2,274.2,163.1,263.9,163.1,263.9z M182.5,544.9L182.5,544.9l-0.3-5.8C182.2,540.3,182.3,542,182.5,544.9L182.5,544.9z
	 M182.5,568.6c0.2-2.9,0.2-6.5,0.2-10.3c1.5-0.8,3,0.1,2.9,2.5C184.5,559.5,183.7,565.1,182.5,568.6L182.5,568.6z M211.9,518.5
	c0.6,3.8-0.2,5-1.1,5.5c-0.1-1.8-0.2-3.9-0.5-6.6c-0.1-0.1-0.3-0.3-0.5-0.5C210.6,517.3,211.3,517.8,211.9,518.5L211.9,518.5z"/>
<path class="st0" d="M218.3,511.7c-0.1-0.5-0.3-1-0.3-1.5c-0.4,0.7-0.7,1.5-0.9,2.3c0.4,0.5,0.9,0.9,1.3,1.3L218.3,511.7z"/>
<path class="st0" d="M159.6,2660.1v-0.5c-0.1,0.4-0.2,0.8-0.5,1.1C159.3,2660.4,159.4,2660.4,159.6,2660.1z"/>
<polygon class="st0" points="175.8,895.4 176.9,895.5 176,893.3 "/>
<path class="st0" d="M162.9,2791.6c-0.5,0.5-0.8,1.2-0.8,1.9C162.3,2793.4,162.6,2792.6,162.9,2791.6z"/>
<path class="st0" d="M169.9,2847.7l-0.4,8.1C169.8,2853.1,169.9,2850.4,169.9,2847.7z"/>
<path class="st0" d="M173.4,2890.9c0.6,0.3,1.2,0.5,1.9,0.6c0,0,0,0,0-0.1L173.4,2890.9z"/>
<path class="st0" d="M109.2,2202.2c0-0.6-0.1-1.1-0.2-1.7C108.1,2196.6,108.4,2199.3,109.2,2202.2z"/>
<path class="st0" d="M125.2,2407.8c-0.9-2.1-1.7-4.3-2.3-6.5C122.7,2405,122.8,2407.8,125.2,2407.8z"/>
<path class="st0" d="M106.9,1972C106.9,1972,106.9,1972,106.9,1972c0.1-0.5,0.1-0.9,0.1-1.4L106.9,1972z"/>
<path class="st0" d="M122.5,2391.8c-0.6,3.2-0.4,6.4,0.4,9.6C123,2398.3,123.2,2394.7,122.5,2391.8z"/>
<path class="st0" d="M185.3,3077.2l-0.2,2.1c0.3,0,0.5,0.1,0.7,0.2L185.3,3077.2z"/>
<path class="st0" d="M185.8,3079.5l0.5,2.3C186.3,3080.7,186.3,3079.8,185.8,3079.5z"/>
<path class="st0" d="M187.3,3086.6l-1-4.8C186.3,3083.4,186.1,3085.5,187.3,3086.6z"/>
<path class="st0" d="M185.6,3020.2l-1.6-0.6C184.5,3020,185.1,3020.2,185.6,3020.2z"/>
<path class="st0" d="M184.1,3003c-0.1,4.2-2.6,10.5-1.3,16.2l1.2,0.5C181.6,3017.1,186.9,3006.7,184.1,3003z"/>
<path class="st0" d="M196.5,2928.8c0.2,4.9,0.2,9.8,0.3,14.7c1.4-2.7,3.2-6.3,4.3,0.3c1.5-9.5,0.7-8.4-0.6-7.4
	S197.3,2938.4,196.5,2928.8z"/>
<path class="st0" d="M193.5,2883.2c1.7,7.7,2.3-0.4,3.3-0.1C194.7,2878.4,194.2,2877.2,193.5,2883.2z"/>
<path class="st0" d="M152.1,2558.1l3.9,0.4C154.9,2552.6,154.5,2558.7,152.1,2558.1z"/>
<polygon class="st0" points="127,2497.3 125.1,2503.4 128.8,2505.9 "/>
<polygon class="st0" points="151.7,2458.4 152.4,2461.1 150.3,2451.1 "/>
<path class="st0" d="M146.1,1909.4l-4.8,1.7C141.9,1915.2,147.2,1916.2,146.1,1909.4z"/>
<path class="st0" d="M153.3,1671.9c2.5-2.4,4.5-9,2.4-13.3C155.1,1663.9,152.9,1669.1,153.3,1671.9z"/>
<polygon class="st0" points="210.2,960.5 211.5,965.4 210.7,956.3 "/>
<path class="st1" d="M1926.8,194.8c-3.9,3.2-8.9,9.2-8,16.8c4.5-6.9,4.8-3.7,9.8-12c2.9-0.4,4.4,3.4,3.4,6.2c1.3-1.8,4,2.5,6.4-2.1
	c-2.5-6.7-7.1-7.8-12.7-3.6C1925,198,1926.3,196.1,1926.8,194.8z"/>
<path class="st1" d="M1652.7,153.2l1.8,1C1654,153.7,1653.4,153.3,1652.7,153.2z"/>
<path class="st1" d="M1480.6,147.4c1,0,1.8-0.8,1.9-1.7C1481.3,146.3,1480.3,146.8,1480.6,147.4z"/>
<path class="st1" d="M1450.9,139.5c0.6,0.2,1.2,0.3,1.8,0.5C1452,139.2,1451.3,138.9,1450.9,139.5z"/>
<path class="st1" d="M1652.7,153.2l-4.5-2.7C1647.8,153.1,1650.5,152.5,1652.7,153.2z"/>
<path class="st1" d="M1886.3,207.3c1.1-0.3,2-0.9,2.8-1.7c-0.8,0.2-1.6,0.4-2.4,0.4C1886.5,206.5,1886.4,206.9,1886.3,207.3z"/>
<path class="st1" d="M1729,151.1l1.4,0.1c0.5-1,1-2.1,1.4-3.1L1729,151.1z"/>
<path class="st1" d="M1787.3,155.1c-1.3-0.4-2.4,6.2-3.2,9.1c1-2.7,2.1-3.9,3.3-4.3C1787.6,158.3,1787.5,156.6,1787.3,155.1z"/>
<path class="st1" d="M1877.6,178.4l1.8-0.7C1878.9,177.9,1878.2,178.1,1877.6,178.4z"/>
<path class="st1" d="M1687.3,147c0-0.8-0.1-1.6-0.4-2.4C1686.9,145.4,1687,146.2,1687.3,147z"/>
<path class="st1" d="M65.6,269.2c0.1-0.5,0.1-0.8,0.1-1.2C65.3,268.7,65.2,269.2,65.6,269.2z"/>
<path class="st1" d="M2.5,227.8l1-0.2c0.3-1.2,0.6-2.5,0.7-3.7L2.5,227.8z"/>
<path class="st1" d="M1396.7,132.9c0.1,0,0.2,0.1,0.2,0.1C1398.3,132.2,1397.5,132.4,1396.7,132.9z"/>
<path class="st1" d="M905.6,181.1c6.2,5.4-8.2,8.7,0.9,14.4C905.4,193,912.9,184.2,905.6,181.1z"/>
<path class="st1" d="M1885,206.2c-0.8,0-1.6-0.1-2.3-0.3C1883.4,206.2,1884.2,206.4,1885,206.2z"/>
<path class="st1" d="M906.5,195.5L906.5,195.5l0.9,0.5L906.5,195.5z"/>
<path class="st1" d="M1272.9,144.5c0.3,1,0.8,2,1.5,2.9C1274.1,146.3,1273.6,145.3,1272.9,144.5z"/>
<path class="st1" d="M1365.7,148.1l-2.3-0.8C1364.1,147.8,1364.9,148.1,1365.7,148.1z"/>
<path class="st1" d="M1225.8,157.7c-1.3-0.4-1.8-1.3-3.4-0.3c0.2,0.3,0.3,0.6,0.6,0.8C1223.6,157.3,1224.3,156.8,1225.8,157.7z"/>
<path class="st1" d="M1176.2,162.1c0.3,0.4,0.6,0.9,1,1.3c0.5-0.2,1-0.3,1.5-0.5L1176.2,162.1z"/>
<path class="st1" d="M218.5,276.9c-1-1.9-1.7-4-2.1-6.1C217,275.6,209.5,277,218.5,276.9z"/>
<path class="st1" d="M1886.8,203.6c-0.6,1.6-1.1,2.4-1.9,2.6c0.6,0,1.1,0,1.7-0.1C1886.9,205.3,1887,204.4,1886.8,203.6z"/>
<path class="st1" d="M1228.2,210.9l-7.9-0.4C1222.9,211.1,1225.6,211.2,1228.2,210.9z"/>
<path class="st1" d="M577.6,267.7l-1.8,0.9C576.5,268.8,577.3,268.4,577.6,267.7z"/>
<path class="st1" d="M1197.2,213.6c-1.2-1.8-2.9-3.3-4.8-4.3c-0.4,0.6-0.6,1.2-0.8,1.8L1197.2,213.6z"/>
<path class="st1" d="M216.4,270.7C216.4,270.7,216.4,270.7,216.4,270.7C216.4,270.7,216.4,270.7,216.4,270.7z"/>
<path class="st1" d="M163,284c7.6,0.6,4.1-8.4,6-13.4c9.2-2,3.8,6.8,6.6,11.5c5.8-2,10.6-9.9,14.8-9.4c0.2,1.5,1,2,0,3.8
	c6.3-6.8,17.8,0.5,25.1-8.1c0.4,0.7,0.7,1.4,0.8,2.2c-0.8-4-1-8.1-0.6-12.2c3.4,0,6.5-5.4,7.5,0.5c-2.1-0.2-2.3,2.1-3.4,3.9l3.6-2.4
	c2.9,8.4-5,2.7-5.2,8.9c7.1-2.5,15.3-9.1,20.6-6.6c0.9,8.2-12.5,2.3-5.6,9.8l-8.1-3.4c5.9,13.1-5-1.1,0.3,12.9
	c10.8,2.7,12.3-3.7,23.1-1.1c2.6-4.5-0.6-6.7,1.9-11.2c15.5-7.8,11.7,20.8,23.2,10.1c3-5.4,4.3-15.7,12.2-10.2l-2.9,9.2
	c10.5,1,6.1-13.2,17.1-6.9c-2,3.6-8.3,3-6.7,4.1c7.1,7.4,5.1-5.2,10.5-5.1l1.1,8.2c11.2-1.3,23.5-7.1,35.8-8.7
	c-0.7,2.4-2.8,5,0.1,7.5c7.8-2.1,16.1-2,24.4-0.7c8.2,1.3,16.2,3.3,24.1,5.8l5.6-7.2c1.3,0.1,2.6,3.1,1.1,4.5
	c5.9,2.5,0.2-4.5,2.9-7.3c3.3-0.6,4.5,3.9,2.5,6.1c10.2-6.3,29-13.7,40.2-6.7l-2,2.2c8.6,2.5,9-14.8,17.1-8.5l-1.5,1.3
	c9.2,1.1,18.9-0.2,28-0.5s17.7,0.2,25,5.1c1-5.1,5.7-4.3,10-3.9s8.6,0.2,8.7-6.9c10.9,6.3,8,9.1,23.1,12.8c4,0.4,5.3-9.2,10.1-11
	l0.6,7.4l6.1-8.2l4.1,8.6l4.4-2.2c-1.8-0.3-4.1-3-4-5.2c6.9-3.8,17.7,3.9,18.2,7.7l16.4-7.5c-0.2,3-2.9,4.2-5,6.3
	c8.4-8.2,2.2,7.6,10,0.1c-1.2-1.6,0.3-4.4,0.3-6c4.5,4.1,13.8,3.4,20.6,1l-0.9,5.2c12.6,0.3,26.2-4.6,40.2-5.8
	c-5.2-1.9-4.8-10.8-0.8-12l2.3,7.6c2.2-5.1-4.5-2.6,0.4-8.9c5.3,0.4,4.3,8.5,1.5,11.4l6.1-3.3c0.6,2.3-0.8,3.6-0.9,6.6
	c2.2-5.1,11.7,6.8,14.7-1.9l0.6,2.3c14-1.2,20.1-4.5,31.5-6c-0.4-6.7,4.2-5.7,7-11.4c8.6,1.3,18.4,5.7,28.4,4.1
	c6.8-4,1.5-5.9,4.3-10.2c1.1,6.1,11.1,4.5,6.3,9.4c12-2.2,15.3-2.8,30.1-9.3c-1.9-2.3-3.9-3.2-3.1-5.4c2.7-1.3,6.6,1.9,6.5,4.9
	l-0.7,0.7c16.2-10.9,41.4,13.7,53.7-0.5l-0.7,0.7l13.4-8.1c6.6,0.4-3.4,5,1.8,8.3c14.2-11.8,24.2-1.1,36.1-9.2
	c11.7,17,34.3-5,48.7,5.1l-1.2-4.2c2.9-4.5,4.4,2,7,2.7c-0.7-3.3-4.1-3.4-2.2-6c28.2-8.2,59.9-0.1,89.6,0.7
	c10.9,0,3.8-22.6,18.4-13.9l-3,8.3c10.3-5.8,21.4-6.9,32.5-7.7s22.1-1.5,32.3-6.5c-1.1,1.9-0.9,4.3-3,4.5c5,5.3,16.6-1.3,16.2-6
	c3.3,0.2,1.2,4.2,3.4,6.3c4.8,3,10.6-8.4,13.5-2.9c0.5,0.9-1.1,2-1.9,2.5c2.7-3.1,13.7-0.5,10.3-6.9c8.2,2.4,15-4.3,21.7-1
	c3.5-7.8,13.9,2.4,14.3-8.2c0.4,10.9,14.7,7.5,19.3,2c-1.4,3.4,4.7,3,3.1,7.7c5.7-0.6,10.8-3.1,9.4-8.5c11.6,12.1,20.5-12.1,27.7,4
	c15.3-6.6,31.1-11.9,47.3-15.8c0.2,10.8-16.9,2.3-15.5,13.5c14.2-5.5,22-15.3,36.7-13.6c3.8,1.2-1.8,4.8-3,6.8
	c3.4-1.3,7-2.1,10.6-2.5c3.5-0.4,7-0.5,10.4-0.7c6.8-0.3,13.5-0.8,19.8-4.1c0,1-1.3,2.2-2.6,3.1c2.5-0.5,6,1.3,5.5-3.6l-2.4,1.4
	c-4.5-6.9,9.4-15.4,9.7-19.2c-3.6,14.3,13,2.9,7,21.1c2.3-1.4,3.5-4.1,3.1-6.7c2.5,0.8,3.4,2.7,1.1,6.6c9-3.1,5.5-8.2,13.8-8.4
	c0.1,2.4-1.6,3.4-2.3,6.2c4-4.8,8-9.6,15.1-7.9c-0.4,1.4,0.5,3.3-1.6,3.3c6-0.6,11-3.9,16.2-6.5s10.6-4.6,17.3-2.5
	c-3.6,10.5,4.6,3.3,5.6,12.2l7-2.9l-3-4.3c6.2,0,11.6-6.6,17-3.8l-4.5,3.8l11.6-2l-6.7-3.2c6.2-4.8-0.9-11.3,7.4-9
	c-1.7,1,6.3-0.1,9.6,5.2l0,0c3-2.9,6.2-5.9,10.8-3.8c1.2,2.9-0.8,9.9,0,11.8c2.9-7.5,14.6-2.3,18.3-10.3c-1.3,1.9-1.3,6.6-0.9,7.5
	l2.5-6.1c2.9,1.9,3.3,2.9,2.9,6.6c8.7,1.1-2.8-11.4,7.5-6.5c-0.8,0.5-0.4,1.4-2.1,2.3c5.2,1.3,10.2,0.3,15.1-0.6s9.7-1.7,14.4-0.2
	c2.7,9-8.3,2.1-5.2,9.8c6.8-0.8,13.9-3.4,21-5.6s14.1-3.7,20.7-2.6l-2.4-1c2.1-12.7,9.8,6.4,16.6,0.6c-1.7,0.9-2.3,7-1.8,5.6
	c9,2.4,18.6-2.6,32.5-6.1l-1.8,3.2c5.2,3.1,14,2.3,19.7,4c1.9-3.2,5.1-2.5,3.4-7.3c1.8,2.1,3.9,3.9,6.4,5.2c2,1.1,4.1,1.8,6.4,2
	c4.2,0.4,8.5-0.7,12.7-1.9s8.4-2.5,12.4-2.5s7.9,1.5,11.6,5.6c-1.9-0.1-4.7,2.5-3.2,2.6l13.6-2.1c-0.7-5.6-1.5-3.5-4-8
	c1.9-3.2,5.9-5.4,9.3-5.2c-6.3,3.2-0.6,8.9,1.7,12.2c-0.3-1.7,0.7-3.5,0.7-5.3c6.2,10.4,2.1-11,11.1-3.6l-0.8,2.9
	c3.7-1.2,7.3-4.7,11.2-3.6c1,6.5-4.1,2.7-4.8,7.9c5.4,0.1,11.8-11.2,16.2-4.4c-2.5,1.5-5.8,1.3-8.3,2.9c4.7,7.9,5.5,6.1,9.3,7.7
	l-0.4-0.2l8.8,4.3l-2.1-2.3c4.2-8,7.8-8.4,11.5-8.1s7.7,1.4,12.9-3.5c-10,9.3-2.1,5.8-3.6,13c2.1,2.3,5.4,4.9,4.2,6.8
	c4.9-5.3,6.6,5.4,13.7-2.4c0,2.4,4.6,0.8,2.9,6.5c5.8-1.2-0.8-4.2,0-7c2.1-1.5,4.8-2,7.2-1.2c2.6,0.9,5.2,2.1,7.6,3.5
	c5.3,2.8,11,5.2,17.9,0.6c5.6-1.6,9.2-4.1,12.7-6.7s6.9-5,12.2-6.2c2.8,4.2-4,8-4,8c4.9,4.2,9,4.2,14.5,2.3
	c-1.3,1.9-0.6,3.7,0.6,6.6c4.2,0.1,4-8,8.9-3.7c-1.3,2.4-3.2,6.4-5.5,8.6c5.1-1.4,10.5-4.9,15.8-6.2c0.6,4.2-4,5.6-6.2,8
	c5.8-0.9,15-1.3,17.8-7.3c-1.1-1-2.1-1.9-3.2-2.9c2.1,0,0.1,5.6-1.6,6.6c-5.6,4.2-6.5-3.3-6.4-5.7l3.8-0.9
	c-1.4-14.1-14.6-0.2-21.6-2.1l4.5-9.4l-8.6,7c-1.2-2.8-1.4-8.5,2.4-9.4c-4.4-5.6-5.1,2.8-8.7-3.2c-0.4-0.9-0.1-1.4,0.4-1.7l-5.5,2.2
	c1.3-1.9,0.2-7.1,3.1-5.2c-8.2-7-15.7,5.3-18-2.7l0.8-0.5c-13,1.7-2.2,7.1-12.8,14.4l-4-18.8l-2.2,7.1c-1.3-0.4-3.8-1.3-2.9-4.2
	c-5.5,4.4,0.4,3.3-3,7.6c-5.4-7.5-17.6,1-17.6-10.7c-2.9,5.3,5.5,4.9-1.6,8c-0.5-12.7-8,1.2-13-5.1c2.5-6.2,7.5-2.2,2.4-8.6
	c-2.3,5.2-5,4.3-7.8,2.3s-5.6-5.1-8.2-4.3c-1.1,8.6-10.9,2.6-19.3,4.7c0.8-2.9-14.8-6.1-22.2-9.9l0.3-1.4c-2.2,8.7-9.8,6.3-15.7,7.8
	c0.6-5.2,1.8-7.2,5.1-9.4l-5.4-0.3c-1.5,2.7-3.3,4.1-6.8,4.9l1.8-6.5c-7.2-0.1-14.9,6.7-23.8,1.7c-0.9,6.1,6.2,17.5-3.7,21
	c-0.2-3.3-0.2-9,2.4-10.2c-0.9,0.4-3.1,2.6-4.7,1.1l4.2-5.4c-4-2.7-2.5,4.5-5.8,3.8c0.3-4.7-2.3-3.5-1.6-7.2
	c0.9-0.4,2.8,2.1,4.2,0.3c-3.7-1.1-8.1-4.1-9.4-7.8c0.2,2.7-0.3,6.4-3.1,6.8c-7.1-0.1-2.1-5.8-6.2-8.5c-1.9,3.2-6.3-0.4-6.8,6.6
	c-2.1-0.1-2.3-3.4-3-5.4c-3.8,3-17.3,0.1-13.5,7.9l0.9,0.5c-0.2,0.1-0.4,0.1-0.6,0.3l0,0c-2.9,1.5-6.1,2.2-9.3,2
	c-3.2-0.2-6.3-0.8-9.3-1.7c-6.2-1.7-12.4-3.9-18.4-2.6l0.1-2.4c-7.2,2.5-16,1.3-21.2,6.2c-2.1,0-4.9-4.4-4-7.2
	c-5.5,1.7-6.1,4.3-14,0.3c5.6-4.1-1.9-3.7,5.7-3c-7.1-2.1-8.7-5.9-16.4,0.5c2.7-6-5.3-7.7-8.7-5.9l5,4.4c-3.8,0.9-7.1,0.3-10.5-0.3
	l1.9-8c-7.3-4.9-13.9-0.7-20,2.6s-11.8,5.8-17.4-2.2c-3.8,5.6,8,3.8,4.6,10.4c-6.7-1-13.8-12.4-15.9-12.4
	c-9.3-4.3-8.4,11.8-18.1,8.9c1.3,2.8,2.6,10.4-4.5,13.2c-6.7-0.9-8.5-11.8-4.3-14.1c1.6-0.3,2.4,0.6,2.3,1.6c2.2-1.1,5-2.4,2.2-5.4
	l-0.8,2.9c-3.4-2.8-12.6-2.3-10.6-7c-5,2.8-2,4.7,1.7,6.1c-8.7-3.9-13.5,0.2-22.4-2.3c1.5,1.5,2.8,4.8,1.4,4.8
	c-13.1-3.1-5.6,5.6-14.3,7.1c-5.1-4.2,1.4-10.4-7.3-6.5c-5.5-2.7-1.4-7.5,0.7-9.9c-7.9,5.8-15.2-3-19.9-3.8l4.2-2.5
	c-2,1.1-4.4,1.7-6.7,1.6l2.7,5.6c-2.5-0.9-4.7-0.8-4.7-3.2c-2.4,3.8,2.4,9.4-2.5,14.7c-3.4-2.8-10,3.5-11.5-3.9
	c10.6,2.1-1.5-7.6,7.3-9.2c-1.7,1-3.8,1-6.3,0.2c-0.4-0.8,0.3-1.6,0.9-2.1c-10.3-6.2-4.2,8.8-14.6,9.1c1.1-4.3-2.8-8-4.5-7
	c4.2-0.1,2.3,7-1.3,10.4c-6.8-3-7.1,2.8-10.6,2.6l4,1.3c-1.1,4.3-4.5,4-9,5.6c-0.6-3.3,4.1-2.5,2.3-3.9c-4.7,7.8-12-7.1-18.9-1.6
	c-3.5-2.7-0.8-8-3.8-9.8c-7.7,6-9.1-5.3-17.2-0.2c2.8,5.6,3.1,4.1-2.5,10.1l13.6-4.9l-8.4,8.9c4.2-0.2,8.6-4.1,11.2-3.3
	c-4,4.9-3.6,3.5-1.3,8.1c-6.2-8.2-11,5.7-18,0.4l-0.7-14.2c-10.4-5.7-17.2,8.4-30.4,5.8l4.3,2.2c-1.3,5.7-7.9,1.3-11.9,3.9
	c0-4.8-2.7-6.3-4.7-9.1c0.5,3.5-9.5,0.4-9.9,9.9l-6.2-5.8c-10.6-1.8-10.8,14.4-21,13.6c2.6-5.4-2.2-8.4,4.2-12.6
	c-3.3,0.2-6.4-0.4-6.2,2.9c-2.2-2.8-8.7,7.1-12.2,2.9c-1.2,2.2-1.3,7.2-5.1,7.1c-0.3-0.7-0.4-1.6-0.2-2.3c0.2,2.3-5.6,3.7-1.9,8.6
	c-11.5-13.8-28.6,3.5-38.7-8.3c-7.3,2.4-14.8,4.2-22.3,5.5c0.3-1.4-0.2-2.4,1.1-2c-9.5-3.5-4.3,14.1-15.1,10.2
	c-6-7.1,5.1-4.6,1.5-7.2c-2.9-15.4-12.3,3.3-20.2-5.1l1.6-1.1c-5.8-4.8-12.4,7.2-21.2,6.9c0.2-0.8,0.1-1.6-0.2-2.3
	c-5.2,8.5-16.2,12.2-24.3,15.3c2-6.3,3.5-3.6,1.3-9.6c-3.7,1.2,2.1,9.8-5.2,12.3c-2.8-3.1-8.5-5.4-9.8-11.9l7-1.1
	c-4.5-8.1-9.1,1.2-13,0.1l0.1-3.8c-10.7,2.3-9.9,11.7-21.6,12.2l1.5,2.7c-5.4,9.9-5.9-4.7-11.5,2.9l-2.9-9.2
	c-4,2.7-13.7,10.6-21,13.2c3.5-7.4,11.9-11.9,16.9-16.7c-4.2,0.4-14,2.2-15.7,7.1c1.6-1.1,3.4-3.6,5.2-2.3
	c-4.3,7.9-10.6,12.3-18.9,13c-0.5-18.4-22.1-2.3-29.6-15.8c-13.9,8.3-29.3,0.2-46.3,3.1c7.6,13.6-4.9,0.9-2.3,15.4
	c-3.9,1.4-5.4,1.3-5.9,0.4l-13-7.4c-3.3-3.9,3.4-3.6,2.7-6.9c-8.8-0.2-4.3-5.8-10.5-9.1c1.7,5.1-2.2,7.8-7.4,6.3l7.7,6
	c-11.3,9.1-11.8-11.1-23.2-2.1l3.4-5c-6,3.4-23.2,2.4-28.1,14.7c-1.3-1.6-3.2-5.4-0.5-6.8c-15.2-0.2-32.1,16-44.5,9.9l0.8-3.7
	c-2.7,1.3-4.2,7.2-8.1,4c0-1.5,0.8-3.7-0.5-3.8c-1.3,1.4-6.8,7-10.7,5.3l2.8-4.3c-15.1-3.2-21.5,12-33.5,15.7
	c-1-10.5-12.8-12.8-18.7-14l0-1.5c-17.1,0.3-28.1,11.4-43.5,17c-10.8-10.5-33.6-1.9-49.8-7c2.6,1.7,0.3,8.2-2.4,9.5
	c-3.9-1.8-9.6,8.1-9.8-1.6l1.3,0.1c-3.5-9.2-10.9-6.1-16.8-5.9v12.7c-8.5-8.6-18.5-6.2-27.6-3.5s-17.4,5.3-22.2-2.6
	c-3.5,3.4-8.2,3.7-11.7,7.1l-0.2-6.8c-10.5-1.1-15.7-1.6-28.3,0.8l2.3-5c-7.2,0-8,20.1-14.6,20.8l-2.6-10
	c-12.6,0.9-25.8-7.4-37.8,2.3c0.1-1.5,0.4-4.4,2.4-4.9c-6,0.1-23.2-5.9-20.5,7.9c-0.5-9.1-13-0.4-19.7,3.9l0.8-6.7
	c-5.5,8.7-5.6,11.1-13.5,13.7c-1.9-0.8-1.8-5.3,0.8-3.7c-6.5-3.3-4.8,6.5-12.6,3.1l2.8-4.4c-6.5-0.3-6,2-9.4,7
	c-4,2.8-12.4-1.4-13.5-7.4c-0.8,3.7-4.3,8.7-8.2,7c-0.4-1.6,0.2-3.3,1.5-4.4c-5.5-2.1-9.5-0.2-13.1,1.6s-6.8,3.2-10.6,0
	c-0.2-2.2-0.7-3.3-1.3-4c8.7,0.1,15.6,0.4,15,0.9c-0.1-6.2-7.1-7.2-1.7-15.8c-5.5,4.7-15,14.9-21.9,12.1c-0.4-0.7-0.7-1.4-0.9-2.1
	l0.7-0.7c-1.6-0.6-3,0-4.3,1c-2.2-1-3.6-1.8-5.6-1.9c-0.8-5.1-8-2.8-11.5-3c0.3,6.8-4.3,5.7,0,11.2c-0.5-0.5,0.7-0.8,3-1.1
	c0.5-0.1,1.1-0.4,1.5-0.7c-0.1,0.2-0.1,0.4-0.2,0.6c2.3-0.2,5.3-0.4,8.7-0.4c-2.7,3.4-5.6,6.3-9.5,2.6c-1.8,4.3-3.8,8.8-4.9,10.9
	c-4.8-9.4-14-14.5-15.2-20.3c-5.3,1.8-11.6,2.4-17.4,4.1c-2.9,0.8-5.7,2-8.2,3.6c-2.7,1.8-4.9,4.2-6.4,7c-3.1,1.6-3.4-3.7-4.5-5.7
	c1.8-1.2,3.9-1,4.8-2.8c-6.1,3.1-17.9,0.9-19.6,9.7c-7.5-4.2,4.5-8-6-6.9l1.5-2.7c-10.1-7.4-18.6-2.1-27.5,2.8s-18.1,9-29.1-0.6
	c1.5,1.2,2.3,1.7,2.5,3.2c-6.3-2.2-13-3.3-19.6-3.5c-6.7-0.3-13.4,0.2-20.1,0.3c-13.4,0.3-26.9,0.1-39.1-7.4
	c-7-3.2-8.3,2.4-13.2,6.3l-0.9-7.4c-2.8,2.6-5.6,5.1-8.4,7.6c-5.7,2.5-9.9-2.4-14.6-6.7s-9.7-7.6-17.1-2.7l1.2,5.1
	c-4.8-1.5-15.8,1-14.4-4.4c-0.6,0.8-2.2,4.9-3.8,2.1l0.3-3.8c-4.3,1.7-8.5,3.4-12.8,5c-8.9-4,3.4-14.7-10-17.3
	c-5.2,0.8-15.8,9-14.3,11.8c2.9,0.9,4.8,3.8,4.5,6.8l-4.9,1.3c-2.4,10.9-7.7,21.8,2.8,31.1l9-5.7l1.9,5.7l-6.8-0.6
	c3.2,5.6,6.2,1.4,9.3-1.3c0.3,2.9,1.1,5.1,2.6,6.4c3.1-3.2,6.2-6.3,9.2-9.6c0.4,4.5-4.6,8.2,0.4,11.2c4.3-4.5-2.3-10.1,4.2-12.6
	c3.2,5.5,1.6,9.5,6.7,5.7c0.3,2.9-0.9,4.6-2.8,5.7c4.4-3,10.8-0.2,13.6-5.9c1.7,3.3,5.1,3.4,7.9,3.8c2.8,0.4,5.1,1.3,4.3,6.6
	c1.6-2.4,8-7.5,11.7-7.6c-8,11.9,13.8,2.1,10.7,15.5c6.1-10.9,18.6-3.4,28-8.9c-0.6,0.9-1.7,2.6-2.4,2c4.9,1.4,6.1,5,9.2,7.3
	c1.4-9.3,9.3-10.9,13.9-16.4c5.5,9.5-4.5,10.8-3.2,19.6c0.3-7.6,11.2-6.8,9.6-13.3c4.3,6,3.8,3,5.7,11c1.6-11.7,4.5-1.7,8.9-8.7
	c6.4,6.2,1.1,11.1,8.8,8C169.9,280.3,163,284,163,284z M341,268.2v0.1l-3.6,0.4C338.1,268.6,339.2,268.5,341,268.2z M355.9,267.9
	c-2.1-0.2-4.3-0.3-6.5-0.2c-0.5-2.3,0-4.7,1.5-4.6C350.1,264.7,353.6,266,355.9,267.9L355.9,267.9z M324.3,221.4
	c2.3-1,3.1,0.4,3.4,1.8c-1.4,0.2-2.7,0.4-4,0.8c-0.1,0.2-0.2,0.5-0.3,0.8C323.6,223.6,323.9,222.5,324.3,221.4L324.3,221.4z"/>
<path class="st1" d="M320.2,230.3c-0.3,0.1-0.5,0.4-1,0.5c0.4,0.5,0.9,1.1,1.4,1.5c0.3-0.7,0.6-1.4,0.8-2.1
	C321,230.2,320.6,230.2,320.2,230.3z"/>
<path class="st1" d="M1654.8,154.4l-0.3-0.2c0.3,0.3,0.5,0.6,0.6,1C1654.9,155,1654.8,154.7,1654.8,154.4z"/>
<polygon class="st1" points="561.3,272.2 561.2,270.5 560,272 "/>
<path class="st1" d="M1734.5,182.3c0.1,0.7,0.4,1.3,0.9,1.8C1735.2,183.4,1734.9,182.8,1734.5,182.3z"/>
<path class="st1" d="M1769.1,186.8l4.7,2.9C1772.3,188.5,1770.8,187.6,1769.1,186.8z"/>
<path class="st1" d="M1795.4,192.8c0.4-0.9,0.6-1.8,0.8-2.8c0,0,0,0,0-0.1L1795.4,192.8z"/>
<path class="st1" d="M1370,193.1c-0.4,0.1-0.7,0.2-1,0.4C1366.6,194.9,1368.2,194.3,1370,193.1z"/>
<path class="st1" d="M1496.4,172.8c-1.2,1.2-2.5,2.3-4,3.2C1494.7,176.5,1496.4,176.6,1496.4,172.8z"/>
<path class="st1" d="M1229.1,211c0-0.1,0-0.1,0-0.1c-0.3,0-0.6,0-0.9,0.1L1229.1,211z"/>
<path class="st1" d="M1486.5,176c1.8,1.1,4.1,1.1,5.9,0C1490.5,175.6,1488.3,175,1486.5,176z"/>
<path class="st1" d="M1909.7,211.8l1.2,0.5c0-0.4,0.2-0.7,0.3-1.1L1909.7,211.8z"/>
<path class="st1" d="M1911.2,211.2l1.5-0.6C1912.1,210.6,1911.5,210.5,1911.2,211.2z"/>
<path class="st1" d="M1916,209.5l-3.2,1.1C1913.8,210.9,1915,211.3,1916,209.5z"/>
<path class="st1" d="M1875.2,203.1l-0.8,2.4C1874.9,204.7,1875.1,203.9,1875.2,203.1z"/>
<path class="st1" d="M1864.5,202.2c2.5,0.9,5.6,6.1,9.4,5.1l0.6-1.9C1872.3,208.8,1867.5,198.5,1864.5,202.2z"/>
<path class="st1" d="M1823.6,166.3c3,1,5.9,2,8.8,3.1c-1.3-2.8-2.9-6.5,1.3-6.6C1823.2,153.5,1835.4,168.8,1823.6,166.3z"/>
<path class="st1" d="M1795.8,159.3c5-0.7,0.3-3.8,0.8-5.2C1793.2,156.1,1792.4,156.7,1795.8,159.3z"/>
<path class="st1" d="M1590.9,147.2l0.6-6.1C1587.7,141.8,1591.5,143.4,1590.9,147.2z"/>
<polygon class="st1" points="1551.7,178.5 1555.3,182.3 1557.1,176.7 "/>
<polygon class="st1" points="1528.5,134.8 1530.2,134 1523.8,136.2 "/>
<path class="st1" d="M1184.5,155.3l1.8,7.4C1188.8,161.2,1188.5,152.7,1184.5,155.3z"/>
<path class="st1" d="M1037.8,177.4c-2-3.6-6.4-5.6-8.6-1.6C1032.6,176,1036.2,178.6,1037.8,177.4z"/>
<polygon class="st1" points="596.1,208.9 598.8,206.1 593.4,208.7 "/>
<path class="st2" d="M158.4,3226.2c-1.5-5.5-4-11.8-6.3-8.1c2.8,5.4,1.7,6.8,5,12.6c0.5,4.7-0.5,8.3-1.5,7.5
	c0.7,1.6-0.3,7.4,1.5,9.9c1.8-6.2,1.6-14-0.4-22.1C157.1,3224.2,157.9,3225.9,158.4,3226.2z"/>
<path class="st2" d="M145.8,2764.2l-0.2,3C145.8,2766.2,145.8,2765.2,145.8,2764.2z"/>
<path class="st2" d="M138.8,2477.9c0.1,2.2,0.4,3.1,0.6,3.2C139.2,2479.1,139,2477.4,138.8,2477.9z"/>
<path class="st2" d="M140.5,2429c-0.1,1.1-0.1,1.9-0.1,2.9C140.6,2430.9,140.7,2430,140.5,2429z"/>
<path class="st2" d="M145.8,2764.2l0.6-7.7C145.5,2756,145.9,2760.5,145.8,2764.2z"/>
<path class="st2" d="M149.6,3162.8c0.2,1.4,0.4,2.8,0.9,4.1c-0.2-1.3-0.3-2.6-0.4-3.9C149.9,3163,149.7,3162.9,149.6,3162.8z"/>
<path class="st2" d="M152.3,2890.3l0.1,2.3c0.3,0.7,0.7,1.3,1.1,1.9L152.3,2890.3z"/>
<path class="st2" d="M156.1,2987.1c0-2.2-2.3-2.9-3.3-3.7c1,1.4,1.6,3,1.7,4.7C155,2988.1,155.5,2987.8,156.1,2987.1z"/>
<path class="st2" d="M157.9,3140.7l0.4,2.7C158.2,3142.8,158,3141.6,157.9,3140.7z"/>
<path class="st2" d="M150.4,2821c0.3-0.2,0.6-0.5,0.8-0.9C150.9,2820.1,150.6,2820.4,150.4,2821z"/>
<path class="st2" d="M83.5,112.7c0.2,0.1,0.3,0,0.4,0C83.6,112.1,83.4,111.9,83.5,112.7z"/>
<path class="st2" d="M89.7,0l0.2,1.5c0.4,0.2,0.8,0.3,1.3,0.3L89.7,0z"/>
<path class="st2" d="M141.3,2339.5v0.4C141.6,2342.2,141.5,2340.9,141.3,2339.5z"/>
<path class="st2" d="M136.9,1518.4c-2.1,9.3-2.4-15.2-4.8-1.2C133,1515.9,135.5,1530,136.9,1518.4z"/>
<path class="st2" d="M149.8,3160.3c-0.1-1.3-0.1-2.6-0.2-4C149.6,3157.6,149.7,3158.9,149.8,3160.3z"/>
<path class="st2" d="M132.1,1517.2L132.1,1517.2l-0.2,1.4C132,1518.1,132,1517.7,132.1,1517.2z"/>
<path class="st2" d="M136.5,2133.5c-0.5,0.6-0.8,1.4-1,2.1C135.8,2135.5,136,2135,136.5,2133.5z"/>
<path class="st2" d="M135.7,2287l0.2-3.8C135.8,2284.5,135.7,2285.7,135.7,2287z"/>
<path class="st2" d="M132.4,2053.8c0.3-1.8,0.3-3.7,0.1-5.6c-0.1,0.3-0.2,0.6-0.3,0.9C132.7,2050.6,132.7,2052.2,132.4,2053.8z"/>
<path class="st2" d="M131.8,1970.8c-0.2,0.4-0.3,1-0.4,1.5l0.1,2.6L131.8,1970.8z"/>
<path class="st2" d="M95.2,364.6c0.4-1.4,1-2.7,1.9-3.9C95.6,362,94.5,349.9,95.2,364.6z"/>
<path class="st2" d="M150.9,3162.7c-0.7-0.6-1.1-1.5-1.1-2.4c0.1,0.9,0.1,1.9,0.2,2.8C150.4,3163.2,150.7,3163.3,150.9,3162.7z"/>
<path class="st2" d="M114.7,2050.6l0.2-13.2C114.7,2041.1,114.6,2045.8,114.7,2050.6z"/>
<path class="st2" d="M115,959.6l-0.3-3C114.6,957.6,114.7,958.6,115,959.6z"/>
<path class="st2" d="M114.2,1998.2c0.8-2.4,1.3-4.9,1.5-7.4c-0.1-0.5-0.3-1-0.6-1.5L114.2,1998.2z"/>
<path class="st2" d="M97.1,360.7L97.1,360.7C97.1,360.7,97.1,360.7,97.1,360.7z"/>
<path class="st2" d="M88.2,274.1c0.5,12.6,3.1,5.8,5,8.4c1.5,15-1.9,7-3.2,12.2c1.2,9.3,4.2,16.4,4.4,23.4c-0.5,0.5-0.6,1.9-1.3,0.3
	c2.8,9.8,1.3,29.4,4.8,40.8c-0.1,0.6-0.3,1.1-0.7,1.5c1.4-1.9,2.9-2.3,4-1.9c0.3,5.6,2.3,10.4,0.4,12.6c-0.1-3.5-0.9-3.7-1.5-5.3
	l1.1,5.9c-2.6,5.4-1.3-8-3.3-7.9c1.4,11.5,4.2,24.8,3.8,33.6c-2.6,2-1.7-20.6-3.7-8.7l0.5-13.7c-3.9,10.6,0-8.3-4.2,1.5
	c-0.1,18,2.2,20,2.1,37.9c1.7,4,2.2-1.4,3.8,2.5c3.7,25.3-6,20.3-1.7,38.9c2,4.8,5.5,6.5,4.2,19.9l-3.2-4.4c0.4,17.4,4.8,9.8,3.4,28
	c-1.3-3.2-1.5-13.6-1.8-11c-2,11.9,2.1,8.3,2.4,17.3l-2.7,2c1.1,18.5,3.8,38.8,5.1,59.3c-0.8-1.1-1.8-4.6-2.5,0.2
	c2.3,25.8,1.6,55.2,0.8,80.1l2.7,9.4c0,2.2-0.9,4.1-1.4,1.8c-0.6,9.7,1.5,0.5,2.6,5.1c0.3,5.5-1.1,7.3-1.9,3.9
	c2.6,17.1,5.8,48.7,3.9,66.8l-0.8-3.5c-0.5,14.1,5.3,15.7,3.5,28.8l-0.5-2.5c-0.1,30.5,2.9,64.2,0.1,87.6c3.5,4.3-0.7,30.2,4,32.1
	c-1.9,17.5-2.9,12.5-3.9,37.1c-0.1,6.5,3.2,9.7,3.9,17.8l-2.5,0.3l2.8,10.9l-2.9,5.9l0.8,7.6c0.1-3,1-6.5,1.7-6
	c1.4,11.8-1.1,29-2.4,29.3l2.7,28c-1-0.6-1.4-5.3-2.2-9c2.8,15-2.5,2.8,0,16.5c0.5-1.9,1.5,1,2,1.3c-1.3,6.9-1.1,22.5-0.3,34
	l-1.7-2.2c-0.1,20.8,1.5,43.9,1.8,67.3c0.7-8.4,3.7-6.5,4,0.3l-2.6,2.8c1.7,4.4,0.9-7.2,3,1.9c-0.2,8.7-2.9,5.9-3.8,0.9l1,10.6
	c-0.8,0.6-1.2-1.8-2.2-2.5c1.7,4.3-2.4,18.4,0.5,24.6l-0.8,0.6c0.2,23.4,1.3,34,1.6,53c2.3,0.4,1.8,7.8,3.7,13.5
	c-0.6,14-2.3,29.6-2,46.4c1.2,11.8,1.9,3.5,3.3,8.8c-1,0.4-1.4,4.9-1.8,8.1s-0.7,5.3-1.4,0.9c0.3,20.2,0.4,25.8,2.1,51.4
	c0.8-2.8,1.2-5.9,1.9-4.3c0.3,4.7-0.8,10.6-1.8,9.9l-0.2-1.2c3.2,28.8-6,66.3-1.9,89.2l-0.2-1.3l2.1,23.7c-0.4,10.9-1.5-6.6-2.8,1.5
	c3.2,25.6-0.8,40.4,1.3,61.5c-6.2,16.3-0.1,57.9-4.2,79.9l1.4-1.3c1.3,5.7-0.9,6.9-1.2,11.1c1.1-0.6,1.3-6.2,2.1-2.6
	c1.2,48.2-3,99.6-4.7,149c-0.5,18.1,7.3,10.3,3.8,33.1l-2.6-6.5c0.8,9.1,1.1,18.4,1.2,27.6s0.1,18.6,0.1,27.9
	c-0.1,18.6-0.3,37,1,54.9c-0.6-2.1-1.4-2.2-1.4-5.7c-2,7.6-0.1,27.9,1.5,28c-0.2,5.6-1.4,1.3-2.2,4.7c-1.1,7.6,2.5,19,0.6,23
	c-0.3,0.7-0.6-2.1-0.8-3.5c0.9,4.9-0.2,23,2,18.3c-1,13.4,1.1,25.7-0.2,36.4c2.5,7-1,23,2.5,25.2c-3.6-0.9-2.7,23.6-0.9,32
	c-1.1-2.8-1.1,7.4-2.6,4.1c0.1,9.7,0.9,18.6,2.7,16.8c-4.2,17.9,3.9,35.8-1.5,45.9c2.3,28.7,3.9,55.3,5.2,81.2
	c-3.6-0.9-0.8-28.6-4.6-27.4c1.9,24.5,5.2,38.6,4.7,63c-0.4,6.3-1.6-3.6-2.3-5.7c1,12.2,1,24.1,1.2,35.6s0.5,22.7,1.7,33.6
	c-0.3-0.1-0.8-2.4-1.1-4.6c0.2,4.3-0.3,10,1.3,9.5l-0.5-4.2c2.2-6.9,5.3,17,6.6,17.7c-4.8-7.2-0.8,21.6-6.9,10.1
	c0.4,2.8,1.2,6.4,2.3,5.7c-0.2,4.2-0.8,5.6-2.2,1.3c1.2,15.4,2.8,9.9,3.1,23.8c-0.8,0-1.2-2.8-2.1-4.3c1.7,7,3.4,14.1,3,25.9
	c-0.5-0.7-1.1,0.7-1.2-2.8c0.7,20.2,4.9,34.4,3.9,56.6c-3.6-6.5-1,7.6-3.9,8.8l1.2,11.9l1.3-4.8c0.2,10.5,2.6,19.6,1.9,28.7
	l-1.4-7.7l1.1,19.6l0.8-11.1c1.8,10.5,3.8-1.2,3.3,12.7c-0.4-2.8,0.2,10.5-1.4,16l0,0c1.1,5.1,2.2,10.4,1.7,18.2
	c-0.9,2-3.4-1.5-4-0.2c2.6,5,1.4,24.5,4.2,30.9c-0.7-2.1-2.2-2.2-2.6-1.5l2.1,4.2c-0.5,4.9-0.8,5.6-2.1,4.8c0,14.6,3.7-4.7,2.5,12.6
	c-0.2-1.4-0.5-0.7-0.9-3.5c-0.4,17.4,2.2,33.5,1.7,49.5c-2.9,4.8-1.1-13.9-3.5-8.5c1.2,23,5.1,47.6,5,69.8l0.2-4.2
	c4.3,2.9-1.6,16.6,0.8,27.9c-0.4-2.8-2.5-3.5-2-2.8c-0.2,15.3,2.1,31.1,4.1,54.2l-1.2-2.8c-0.7,9,0.2,23.7,0,33.4
	c1.2,2.8,1.2,8.4,2.7,5c-5.2,30.1,5.3,57,1,83.7c-0.1-3.2-1.2-7.5-1.1-5l1.8,22.6c1.8-1.9,1-3,2.3-7.8c1.2,2.8,2.3,9.2,2.5,14.8
	c-1.6-10.1-3,0.2-3.8,4.6c0.5-0.8,1.2,0.7,1.8,0.3c-2.9,11.9,3.8,1.9,2.2,18.1l-1-0.8c0.7,6,2.2,11.5,2.1,18.1c-2,2.8-1.2-6.4-3-6.7
	c0.4,9.1,4.7,17.9,2.9,26.2c-0.7-3.9-1-9.4-1.7-13.3c-2.2,9.1-1.5,10.1-1.7,16.8v-0.7l-0.6,15.5l0.5-4c6,11.2,1.9,23.3,6.1,38.6
	c-4-14.9-2.1-2.4-4.6-3.5c-0.5,4-1.1,10-1.8,8.3c2.2,7.2-1.1,12.2,2.1,22.4c-0.8,0.5,0.2,7.8-1.8,6.2c1,9.4,1.3-2.3,2.3-1.5
	c3.2,14.5-2,34.4,2.5,55.3c2.2,18,4.9,21.3,6.9,38.1c-1,5.7-3-4.5-3-4.5c-0.7,8.2-0.4,16.5,0.9,24.7c-0.7-1.7-1.2,0.1-2,2.8
	c0.5,6.9,3,4.5,2.2,13.7c-1.5-2.1-2.6-4.4-3.4-6.8c1,8.1,2.8,16.1,3.8,24.5c-1.3,2.3-2.3-5-3.3-8c1,9.5,2.2,24.5,4.4,27.4l0.5-6.1
	c0.2,3.4-1.8,1.9-2.3-0.7c-2-8.1,0.3-11.8,1.1-12.2l0.7,6c4.3-6.4-1.6-24.1-1.8-36.2l3.5,4.9l-3.2-12.3c0.8-2.7,2.6-4.6,3.3,1.4
	c1.3-8.7-1.5-7.6,0.1-15.2c0.3-0.8,0.4-0.5,0.6,0.3l-1.3-8.4c0.8,1.6,2.3-1.5,2,3.7c1.4-15.3-3.4-24.4-1.1-30.3l0.2,1.3
	c-1.9-21.1-2.5-2-6-17.7l5.6-10.9l-2.5-2c0-2.2,0-6.5,1-5.7c-2-8.1-1,1.4-2.8-3.2c1.8-10.6-2.1-28.9,1.7-31.4
	c-2-3.7-1.1,10.1-2.8-1.1c4.1-3.4-1.2-12.9,0.4-22.6c2.3,2.9,1.5,12,3,2.3c-3.9-5.6,0.1-18.7-0.9-26.7c-2.9-0.3-1.8-17.5-3.3-31
	c1,0.8,0.7-25.6,1.3-38.2l0.5,0.4c-3-2.3-2.9-15.4-3.9-24.8c1.8,0.3,2.5,2,3.5,7.1l-0.3-8.9c-1-2.1-1.6-4.8-2.1-10.6l2.3,2.2
	c-0.5-11.8-3.4-23.8-2.5-39.1c-2.1-0.8-5.3,12.3-7.2-3.8c1.1-0.6,3-1.3,3.6,2.9c-0.2-1.4-1.1-4.9-0.7-7.7l2.1,6.4
	c0.6-7-1.7-3.6-1.7-9.1c1.6,0.1,1-4.1,2.3-3.4c0.2,1.4-0.5,4.9,0.2,7c0.1-6.3,0.7-13.9,1.9-16.4c-0.9,0.6-2.1,0.1-2.5-4.5
	c-0.5-11.9,1.8-4.1,2.3-11.1c-1.2-2.8-0.3-10.4-2.7-10.6c-0.1-3.5,1-4.1,1.6-5.5c-1.2-6.1-1.2-28.6-3.5-21.6l-0.1,1.6
	c-0.1-0.3-0.1-0.6-0.1-1l0,0c-3-20-0.1-41.8-1.7-61.7h0.8c-1.3-11.9-1.4-26.5-3.3-34.9c-0.1-3.5,1.2-8.4,2.2-6.9
	c-0.9-9.1-1.8-10.1-0.9-23.3c1.7,9.1,1.1-3.2,1.3,9.4c0.3-11.9,1.5-14.6-1.1-27.2c2.1,4.3,2.3-9,1.5-14.6l-1.2,8.3
	c-0.5-6.3-0.5-11.9-0.4-17.5l2.8,3c2.5-24.3-6.8-43.5-1.9-62.1c-2-6.4-0.9,13.2-3.3,7.5c0-11.1,3.5-22.9,3.5-26.3
	c1.1-15.3-4.3-14.1-3.7-30.1c-0.9,2.1-3.4,4.1-4.6-7.9c0.1-11.1,3.6-13.8,4.6-6.8c0.1,2.7-0.1,4-0.4,3.9c0.4,3.6,1,8.3,1.9,3.9
	l-1-1.4c0.8-5.6,0.3-20.9,2-17.3c-1.1-8.4-1.6-3.6-2,2.7c1-14.3-0.6-22.3,0-37c-0.5,2.4-1.5,4.5-1.6,2.2c0.7-21.6-2-9.4-2.8-24.1
	c1.3-8.4,3.5,2.9,2-11.8c0.8-9,2.5-2,3.3,1.6c-2.1-13.4,0.6-25.1,0.8-32.7l0.9,7c-0.4-3.7-0.7-7.4-0.7-11.2l-1.8,4.1
	c0.2-4.1,0.2-7.7,0.9-7.6c-1.3-4.2-3.1,3.3-5-5.1c0.8-5.6-1.4-16.8,1.1-18.8c-0.5,17.4,2.5-2,3.2,12.7c-0.4-3.5-0.4-7-0.2-10.5
	c0.3-0.6,0.5,0.6,0.7,1.7c1.9-16.7-3-7.6-3.3-24.8c1.5,2.2,2.6-4.1,2.2-6.9c0.1,7-2.3,3.4-3.5-3c0.9-11.1-1.1-12-1-17.8l-0.4,6.6
	c-1.5-2.2-1.4-7.8-2-15.4c1.1-0.7,0.9,7,1.3,4.2c-2.7-8.5,2.2-19.4,0.3-31.3c0.9-5.5,2.7-0.6,3.2-5.4c-2.1-13.3,1.7-14.5,0-28.5
	c-1.8,4.1-1.4,4.8-3.4-5.1l1.7,23.1l-3-14.8c0.1,7,1.4,14.7,1.2,18.9c-1.7-7-1.2-6.3-2.7-3c2.7-9.6-2-18.9-0.2-30l4.7,0.3
	c1.9-16.6-3-29.4-2-51l-0.7,6.9c-1.9-2.9-0.4-13.3-1.3-20.3c1.6,0.6,2.1-3.7,3.1-6.7c-1.2,0.4-0.1-15.8-3.3-17.7l2-9.6
	c0.6-17.4-4.8-19.8-4.4-36.5c1.8,5,2.8-2.6,4.1,8.6c0-5.6,0.2-10.6-0.9-10.7c1-3.3-2.2-15.5-0.8-20.6c-0.7-2.3-2.4-3.1-2.3-9.4
	c0.3-0.7,0.8,0,0.8,0c-0.8,0-1.1-9.8-2.8-4.3c4.8-17.2-0.8-48.1,3.4-63.1c-0.6-12.2-1.1-26.8-1.3-37.9c0.5,0.7,0.8,0,0.6,2.1
	c1.4-15.3-4.6-9.4-3-26.7c2.5-8.9,1.4,9.2,2.4,3.7c5.2-2.4-0.8-21,2.3-32.6l0.3,2.8c1.8-8.9-1.9-21.8-1.6-36.4c0,0,0.5,0.7,0.8,0.1
	c-2.6-10-3.5-28.9-4.2-42.9c2,4.4,1.1,6.4,3.1,3.7c-0.3-6.3-3.3,1.8-3.9-10.7c1.1-4.1,2.1-13.1,4.4-14.3l0.1,11.8
	c2.9-6.1,0-15.3,0.5-21.6l1.2,0.8c-0.3-18.2-3.4-18.4-3.1-37.9l-1,2c-3-10.7,1.8-8.9-0.4-19.6l3.2-3.2c-0.7-7-2.9-24.7-3.3-37.3
	c2.3,7.2,3.4,21.9,4.7,31.1c0.1-7,0-23.7-1.6-27.3c0.3,2.8,1,6.4,0.5,9.1c-2.4-8.6-3.5-19.8-3.4-33.7c6.1,2.5,1.9-36.2,6.7-46.2
	c-2-24.6,1.4-48.8,1.3-77.4c-4.9,10.1-0.1-8.4-5-6.7c-0.2-6.7-0.1-9.2,0.2-9.8l3.1-20.2c1.5-4.8,1,6.4,2.1,5.8
	c0.5-14.6,2.1-6.1,3.5-15.8c-1.8,2-2.5-5.1-1.7-13.4l-2.3,11.7c-2.4-20.4,4.2-17.6,1.8-38.2l1.5,6.5c-0.8-10.6,0.2-39-3.6-49.4
	c0.6-1.9,1.9-4.3,2.2,0.3c0.4-12.6-0.6-26.7-1.5-40s-1.4-26-0.2-35.8l1.2,1.9c-0.4-4.7-2.2-8.2-1.1-14.1c0.5,0.3,1.2,1.9,1.3-0.3
	c-0.4-2.5-2.1-12.5-1.4-18.8l1.4,5.3c0.6-10.3,0.2-20.5-1.2-30.7c-1.2-9-2.6-17.4-3.1-27.7c3.5,0,4.6-19.4,5.1-29l0.5,0.3
	c0.1-12.8-0.5-25.7-1.8-38.4c-1.1-11.9-2.4-23.5-3.2-36.8c1.8-8.3,2.1-22.2,2-37.4s-0.3-31.7,0.5-44.9c-0.6,4.1-2.8-0.6-3.2-5.3
	c0.6-6.2-2.7-17.1,0.5-16.2v2.2c1.5-2.4,2.1-6.8,2.2-11.8s-0.2-10.7-0.3-15.7l-4.3-1.6c5.6-26.2-3.6-68.3,1.5-82.7
	c-1.2-6.3-1.4-14.1-2.6-20.3l2.3,0.3c0.2-17.5,0.2-26.2-0.8-47.7l2.1,4.4c-0.1-12.2-6.9-15.2-7.4-26.4l3.3-3.5
	c-0.6-21.2,1.7-42.8-1.9-63.6c0.5,0.3,1.5,0.9,1.7,4.3c-0.2-10,1.1-38.7-3.4-34.9c3-0.3-0.4-21.9-2.1-33.3l2.3,1.7
	c-3.2-9.6-3.9-9.9-5.2-23.3c0.2-3.2,1.7-2.9,1.3,1.4c0.8-10.7-2.4-8.2-1.6-21.2l1.6,4.8c-0.2-11-0.9-10.1-2.8-16.1
	c-1.1-6.9-0.2-20.8,1.8-22.5c-1.3-1.4-3.1-7.4-2.8-13.9c0.7-0.9,1.3,1.4,1.6,2.6c0.9-18.4-3.5-27.2-1.8-39.9
	c0.7-0.3,1.1-1.1,1.2-2.2c0.5,14.6,0.8,26.3,0.6,25.2c2.1-0.1,2-11.8,5.2-2.6c-1.9-9.4-5.8-25.4-5.3-36.9c0.1-0.5,0.4-1.1,0.7-1.5
	l0.3,1.2c0.1-2.4-0.1-4.9-0.6-7.2c0.2-3.7,0.4-6,0.3-9.5c1.7-1.4,0.4-13.5,0.3-19.4c-2.2,0.6-2.2-7.1-3.8,0.1c0.1-0.9,0.3,1.1,0.6,5
	c0.1,0.8,0.2,1.7,0.3,2.5c-0.1-0.1-0.1-0.2-0.2-0.4c0.2,3.8,0.4,8.9,0.7,14.6c-1.3-4.6-2.4-9.4-1.4-15.9c-1.6-3-3.2-6.2-3.9-8.1
	c2.9-8.2,4-23.7,5.8-25.9c-2-17.9-2.5-42.2-7.1-53.3c-0.7-5.1,1-5.9,1.6-7.8c0.5,2.9,0.6,6.4,1.3,8c-1.5-10.1-1.6-30.2-4.7-32.5
	c0.8-12.9,3,7.1,1.8-10.5l1,2.3c3.3-34.9-9.8-56.1-5.3-94.8c-0.3,2.7-0.4,4-0.8,4.6c0.9-44-6.3-90.2-3.9-133.7
	c0.3-12.3-1.6-13.6-3.4-21l2.3-2.8l-3.3-12.7c-2.9-18.1,4.5-31.8-0.3-54.7l-1.5,3c-0.1-8.3-2.1-26.2-0.2-24.9
	c-1.1-1.7-1.5-3.9-1.1-5.9l1.2-0.3l-3.1-20.2c0.2-15.8,5.1,2.2,4.4-20.8c-0.9-8.5-4.8-24.2-5.5-20.9c0.1,3.5-0.4,8.9-1.7,9.2l-1-7.8
	c-3.8-1.2-7.8-7.1-9.6,12.2L83.1,27l-1.6,4.4l-0.6-11.2c-1.4,6.4,0.3,10.4,1.5,14.9c-0.9,1.1-1.5,3-1.8,5.7l4.1,13
	c-1.4,1.7-3.1-5.8-3.6,3.1c1.9,6.1,3-6,4.5,4.1c-1.4,6.5-2.9,4.7-1.1,12.1c-0.9,1.1-1.6-0.5-2.1-3.4c1.4,6.6,1.3,17.7,3.4,21
	c-1.8,6.8,1.5,22.5-2,22c0.9,2.1,3.3,11.7,3.7,17.8c-4.7-11,0.8,23-3.9,20.2c4.2,8.1,3,29.9,5.7,44.5c-0.6-1.2-0.9-2.4-0.9-3.7
	c0,8.3-1,10.7-1.5,16.1c3.2,0.9,4.4,13.8,6.7,20.6c-2.6,10.3-3.9-6-6.7-2.7c2.5-0.6,3.3,17.5,5.2,14c-1.5,7.8-0.6,6.7-3,10.8
	c4,1.2,1,7.2,3.6,13.5c-1.5,11.3-3.5,3-1.8,15.3C90,285,88.2,274.1,88.2,274.1z M106.6,567.1L106.6,567.1l-0.3-6L106.6,567.1z
	 M107.5,591.8c0-3-0.1-6.7-0.3-10.7c0.7-0.9,1.6,0,1.6,2.5C108.2,582.2,108,588,107.5,591.8L107.5,591.8z M121.2,539
	c0.5,3.9,0.1,5.2-0.4,5.8c-0.1-1.8-0.3-4-0.5-6.8c-0.1-0.1-0.2-0.3-0.3-0.5C120.5,537.9,120.9,538.4,121.2,539z"/>
<path class="st2" d="M118,532.1c-0.1-0.6-0.2-0.9-0.2-1.6c-0.2,0.8-0.3,1.6-0.4,2.3c0.2,0.5,0.5,0.9,0.8,1.3L118,532.1z"/>
<path class="st2" d="M145.6,2767.7v-0.5c0,0.4-0.1,0.7-0.3,1.1C145.4,2768.1,145.5,2767.9,145.6,2767.7z"/>
<polygon class="st2" points="113.2,932.2 113.8,932.1 113.3,930 "/>
<path class="st2" d="M142.5,2903.7c-0.3,0.6-0.5,1.2-0.5,1.8C142.3,2905,142.4,2904.4,142.5,2903.7z"/>
<path class="st2" d="M144.1,2962.4l-0.5,8.3C143.9,2967.1,144.1,2964.5,144.1,2962.4z"/>
<path class="st2" d="M144.6,3007.5c0.2,0.4,0.6,0.7,1,0.9v-0.1L144.6,3007.5z"/>
<path class="st2" d="M120.8,2290.4c0-0.6-0.1-1.2-0.1-1.7C120.1,2284.6,120.3,2287.4,120.8,2290.4z"/>
<path class="st2" d="M130.9,2503.8c-0.5-2.2-0.9-4.5-1.2-6.8C129.6,2500.8,129.6,2503.7,130.9,2503.8z"/>
<path class="st2" d="M114.6,2052L114.6,2052v-1.5V2052z"/>
<path class="st2" d="M129.5,2487c-0.3,3.3-0.2,6.6,0.2,9.9C129.9,2493.6,129.8,2490.3,129.5,2487z"/>
<path class="st2" d="M150.9,3203v2.2c0.1-0.1,0.3,0.1,0.4,0.2L150.9,3203z"/>
<path class="st2" d="M151.3,3205.4l0.4,2.4C151.7,3207,151.6,3206.2,151.3,3205.4z"/>
<path class="st2" d="M152.4,3212.9l-0.8-5.1C151.7,3209.6,151.7,3211.7,152.4,3212.9z"/>
<path class="st2" d="M149.7,3143.3l-0.8-0.6C149,3143,149.3,3143.2,149.7,3143.3z"/>
<path class="st2" d="M148.8,3125.1c0,4.3-1.3,10.9-0.6,16.9l0.7,0.5C147.5,3139.8,150.3,3129.2,148.8,3125.1z"/>
<path class="st2" d="M156,3049.1l-0.1,15.2c0.8-2.7,1.8-6.2,2.3,0.7C160.1,3045.7,156.4,3069,156,3049.1z"/>
<path class="st2" d="M155.6,3001.9c0.7,8.1,1.3-0.1,1.8,0.3C156.3,2997,156.1,2995.8,155.6,3001.9z"/>
<path class="st2" d="M144,2661.3l2.1,0.8C145.6,2655.8,145.3,2662,144,2661.3z"/>
<polygon class="st2" points="131.5,2596.5 130.4,2602.7 132.3,2605.5 "/>
<polygon class="st2" points="144.9,2557.6 145.3,2560.4 144.2,2549.9 "/>
<path class="st2" d="M133.9,1985.6l-2.5,1.9C131.8,1991.7,134.7,1992.6,133.9,1985.6z"/>
<path class="st2" d="M131.5,1738.5c1.3-2.7,2.1-9.6,0.9-13.9C132.2,1730.2,131.2,1735.7,131.5,1738.5z"/>
<polygon class="st2" points="134.8,997.3 135.8,1002.2 134.9,992.9 "/>
<path class="st2" d="M1751.9,3232.8c0.6,1.7,2.2,0.8,2.1-3.9l-2.5-3.4L1751.9,3232.8z"/>
<path class="st2" d="M1757.8,3201.4c-1.1-5.6-3.2-12-5.7-8.5c2.4,5.5,1.3,6.8,4.1,12.8c0.2,4.7-1.1,8.2-2.1,7.3
	c0.6,1.7-0.8,7.3,0.8,9.9c2.2-6,2.6-13.8,1.2-21.9C1756.7,3199.3,1757.4,3201,1757.8,3201.4z"/>
<path class="st2" d="M1823.6,2729.7l-0.4,2.9C1823.4,2731.7,1823.5,2730.7,1823.6,2729.7z"/>
<path class="st2" d="M1832.8,2445.7c0,2.2,0.2,3.1,0.5,3.2C1833.2,2446.9,1833.1,2445.2,1832.8,2445.7z"/>
<path class="st2" d="M1837,2397.3c-0.1,1-0.2,1.9-0.2,2.9C1837.1,2399.2,1837.1,2398.2,1837,2397.3z"/>
<path class="st2" d="M1823.6,2729.7l1-7.6C1823.8,2721.6,1823.9,2726,1823.6,2729.7z"/>
<path class="st2" d="M1753.5,3138c0.1,1.4,0.2,2.8,0.6,4.1c-0.1-1.3-0.1-2.6-0.2-3.9C1753.8,3138.2,1753.6,3138.1,1753.5,3138z"/>
<path class="st2" d="M1822.1,2855l-0.1,2.3c0.3,0.7,0.6,1.3,1,2L1822.1,2855z"/>
<path class="st2" d="M1819.5,2951.1c0.2-2.2-2.1-3-3-3.9c0.9,1.4,1.4,3.1,1.4,4.8C1818.3,2952,1818.8,2951.8,1819.5,2951.1z"/>
<path class="st2" d="M1763.3,3116.8l0.2,2.7C1763.5,3118.8,1763.4,3117.6,1763.3,3116.8z"/>
<path class="st2" d="M1824.6,2786.2c0.4-0.2,0.6-0.5,0.8-0.9C1825.1,2785.3,1824.9,2785.7,1824.6,2786.2z"/>
<path class="st2" d="M1803,111.4c0.2,0.1,0.3,0,0.4,0C1803.1,110.8,1803,110.7,1803,111.4z"/>
<path class="st2" d="M1814.3,0l0.1,1.5c0.4,0.2,0.8,0.3,1.3,0.3L1814.3,0z"/>
<path class="st2" d="M1842.1,2308.6c0,0.2,0,0.2-0.1,0.4C1842.2,2311.3,1842.2,2310,1842.1,2308.6z"/>
<path class="st2" d="M1857.1,1493.6c-2.2,9.2-2.3-15.1-4.8-1.2C1853.2,1491.2,1855.6,1505.1,1857.1,1493.6z"/>
<path class="st2" d="M1753.9,3135.6c0-1.3,0-2.6,0.1-3.9C1753.9,3132.9,1753.8,3134.2,1753.9,3135.6z"/>
<path class="st2" d="M1852.3,1492.5L1852.3,1492.5l-0.2,1.4C1852.1,1493.3,1852.2,1492.9,1852.3,1492.5z"/>
<path class="st2" d="M1845.5,2104c-0.5,0.6-0.8,1.3-1,2.1C1844.7,2106,1845,2105.6,1845.5,2104z"/>
<path class="st2" d="M1838.8,2256.3l0.4-3.8C1839,2253.8,1838.9,2255.1,1838.8,2256.3z"/>
<path class="st2" d="M1844.1,2024.9c0.4-1.8,0.5-3.7,0.3-5.5c-0.1,0.3-0.2,0.6-0.3,0.8C1844.5,2021.7,1844.5,2023.3,1844.1,2024.9z"
	/>
<path class="st2" d="M1845.8,1942.5c-0.2,0.4-0.3,1-0.5,1.5c0,0.8,0,1.8,0.1,2.6L1845.8,1942.5z"/>
<path class="st2" d="M1850.5,348.1c0.4-1.4,1.1-2.7,2-3.8C1851,345.6,1850.4,333.5,1850.5,348.1z"/>
<path class="st2" d="M1754.8,3138c-0.6-0.7-0.9-1.6-0.9-2.5c0,0.9,0,1.9,0,2.7C1754.2,3138.6,1754.6,3138.6,1754.8,3138z"/>
<path class="st2" d="M1826.5,2021.1l0.6-13.1C1826.8,2011.7,1826.6,2016.5,1826.5,2021.1z"/>
<path class="st2" d="M1846.2,938.9l-0.2-3C1845.9,936.9,1845.9,937.9,1846.2,938.9z"/>
<path class="st2" d="M1827.6,1969.2c0.8-2.4,1.4-4.8,1.7-7.3c-0.1-0.5-0.3-1-0.6-1.5L1827.6,1969.2z"/>
<path class="st2" d="M1852.6,344.3L1852.6,344.3C1852.6,344.3,1852.6,344.4,1852.6,344.3z"/>
<path class="st2" d="M1832.2,275.3c-0.1,12.5,2.9,5.9,4.6,8.5c0.8,14.9-2.2,6.9-3.7,11.9c0.7,9.3,3.4,16.4,3.3,23.4
	c-0.5,0.5-0.7,1.9-1.3,0.3c2.3,9.8,0,29.2,2.9,40.6c-0.1,0.5-0.4,1.1-0.7,1.5c1.5-1.9,3-2.1,4.1-1.7c0,5.6,1.8,10.4-0.1,12.5
	c0.1-3.4-0.7-3.7-1.3-5.3l0.8,5.9c-2.8,5.2-0.9-8-3-8c0.9,11.4,3.1,24.7,2.3,33.5c-2.7,1.8-0.8-20.5-3.3-8.8l1.1-13.5
	c-4.3,10.3,0.3-8.2-4.3,1.3c-0.9,17.8,1.3,19.9,0.4,37.7c1.5,4,2.2-1.3,3.7,2.7c2.6,25.3-7,19.9-3.5,38.4c1.8,4.8,5.2,6.7,3.3,19.9
	l-3-4.5c-0.4,17.2,4.3,9.9,2.2,27.9c-1.2-3.2-0.9-13.6-1.3-11c-2.5,11.7,1.7,8.3,1.6,17.3l-2.7,1.9c0.3,18.4,2.2,38.6,2.5,59
	c-0.8-1.1-1.6-4.6-2.5,0.1c0.6,12.8,0.4,26.5-0.1,40.1s-1.5,27-2.4,39.4l2.3,9.5c0,2.2-1.1,4.1-1.5,1.7c-1,9.6,1.5,0.5,2.4,5.2
	c0.1,5.5-1.4,7.2-2.1,3.8c1.8,17,3.9,48.5,1.2,66.4l-0.7-3.5c-1.1,14,4.7,15.8,2.4,28.7l-0.4-2.5c-1.3,30.3,0.6,63.8-3.2,86.9
	c3.3,4.4-1.8,30,2.9,32c-2.5,17.3-3.3,12.3-5.1,36.7c-0.3,6.5,2.8,9.7,3.2,17.8l-2.5,0.2l2.5,11l-3,5.8l0.6,7.5
	c0.2-3,1.2-6.4,1.9-5.9c1,11.8-2,28.7-3.3,29l1.8,27.9c-1-0.6-1.3-5.3-1.9-9c2.4,14.9-2.6,2.7-0.5,16.3c0.6-1.8,1.5,1,2,1.3
	c-1.6,6.8-1.8,22.3-1.3,33.7l-1.7-2.2c-0.7,20.7,0.3,43.6,0,66.8c0.9-8.3,3.8-6.4,4,0.4l-2.6,2.7c1.6,4.4,1.1-7.1,2.9,2
	c-0.4,8.7-3,5.8-3.8,0.8l0.8,10.6c-0.8,0.6-1.2-1.9-2.2-2.5c1.6,4.3-2.8,18.2-0.1,24.4l-0.8,0.6c-0.3,23.2,0.5,33.7,0.3,52.7
	c2.2,0.4,1.7,7.8,3.4,13.4c-0.9,13.9-2.9,29.3-3,46c1,11.8,1.8,3.5,3.1,8.8c-2.1,0.8-2.1,17.6-3.5,8.9c0,20.1,0,25.7,1.3,51.1
	c0.9-2.8,1.3-5.8,2-4.2c0.3,4.6-1,10.5-2,9.8l-0.2-1.2c2.7,28.6-6.9,65.7-3,88.5l-0.2-1.3l1.8,23.6c-0.5,10.8-1.4-6.5-2.8,1.5
	c3,25.5-1.2,40.1,0.8,61.1c-6.3,16.1-0.5,57.5-4.7,79.3l1.4-1.2c1.3,5.7-0.9,6.8-1.3,11c1.1-0.6,1.4-6.1,2.1-2.6
	c0.9,47.9-3.9,98.7-6,147.8c-0.7,17.9,7.2,10.3,3.4,32.9l-2.5-6.5c1.2,18.1,0.9,36.7,0.4,55.1s-1,36.7,0,54.5
	c-0.6-2.1-1.4-2.2-1.3-5.7c-2.1,7.4-0.7,27.7,0.9,27.8c-0.3,5.5-1.4,1.2-2.3,4.6c-1.3,7.5,2.1,18.9,0.1,22.8
	c-0.3,0.7-0.6-2.1-0.7-3.5c0.8,4.9-0.7,22.8,1.6,18.2c-1.3,13.3,0.5,25.5-1.1,36.1c2.3,7-1.7,22.8,1.8,25c-3.6-1-3.4,23.3-1.9,31.7
	c-1-2.8-1.3,7.3-2.7,4c-0.2,9.6,0.3,18.4,2.2,16.8c-4.7,17.6,2.7,35.6-3.1,45.4c1.3,28.6,2,55,2.3,80.6c-3.6-1,0.3-28.4-3.5-27.4
	c0.9,24.4,3.7,38.5,2.3,62.6c-0.6,6.2-1.5-3.6-2-5.7c0.9,24.3-1.5,47,0,68.7c-0.3-0.1-0.7-2.4-0.9-4.6c0,4.3-0.8,9.9,0.9,9.5
	l-0.3-4.2c2.5-6.8,4.6,17,5.8,17.9c-4.5-7.4-1.7,21.3-7.4,9.7c0.2,2.8,0.9,6.4,2,5.7c-0.4,4.2-1.1,5.5-2.2,1.2
	c0.5,15.3,2.4,9.9,2,23.7c-0.8-0.1-1-2.9-1.9-4.3c1.4,7,2.8,14.1,1.8,25.8c-0.5-0.7-1.1,0.6-1-2.9c-0.2,20.1,3.3,34.3,1.2,56.3
	c-3.3-6.6-1.3,7.5-4.3,8.6l0.6,11.9l1.6-4.7c-0.3,10.4,1.6,19.6,0.4,28.5l-1-7.7l0.1,19.5l1.4-11c1.3,10.5,3.8-1,2.6,12.8
	c-0.2-2.8-0.3,10.4-2.2,15.7l0,0c0.8,5.1,1.7,10.5,0.7,18.1c-1,2-3.3-1.7-3.9-0.4c2.4,5.1,0,24.3,2.5,30.8c-0.6-2.1-2.1-2.3-2.5-1.6
	l1.9,4.3c-0.8,4.8-1.1,5.5-2.3,4.7c-0.8,14.4,3.9-4.5,1.8,12.6c-0.1-1.4-0.4-0.7-0.7-3.5c-1.3,17.2,0.4,33.3-1,49.1
	c-3.1,4.6-0.4-13.9-3-8.6c0,22.9,2.3,47.4,1,69.4l0.4-4.1c4.2,3.2-2.6,16.4-0.9,27.6c-0.2-2.7-2.2-3.6-1.8-2.9
	c-1.1,15.1,0.2,31,0.8,53.9l-1-2.9c-1.2,8.9-1.2,23.5-2,33.1c1,2.9,0.7,8.4,2.3,5.1c-7.1,29.5,1.7,56.8-4.3,83
	c0.1-3.2-0.7-7.5-0.8-5l0.3,22.5c1.9-1.7,1.2-2.9,2.8-7.6c1,2.9,1.7,9.2,1.5,14.8c-0.9-10.1-3,0-4.1,4.3c0.6-0.7,1.2,0.8,1.8,0.4
	c-3.7,11.6,3.7,2.1,1,18l-0.9-0.9c0.3,6,1.4,11.6,1,18c-2.2,2.6-0.8-6.4-2.6-6.9c-0.2,9.1,3.5,18,1.1,26.2
	c-0.5-3.9-0.3-9.4-0.8-13.3c-2.8,8.9-2.2,9.9-2.8,16.6l0.1-0.6l-1.6,15.3l0.8-3.9c5.2,11.5,0.3,23.1,3.5,38.6c-3-15-1.9-2.5-4.3-3.7
	c-0.8,3.9-1.7,9.8-2.4,8.1c1.7,7.3-1.9,12,0.6,22.3c-0.8,0.4-0.3,7.7-2.2,6c0.3,9.4,1.4-2.2,2.4-1.4c2.2,14.6-4.3,33.9-1.3,54.9
	c0.9,18,3.4,21.4,4.2,38.1c-1.4,5.6-2.7-4.7-2.7-4.7c-1.3,8.1-1.6,16.3-0.8,24.5c-0.6-1.8-1.2,0-2.2,2.6c0,6.9,2.7,4.7,1.2,13.7
	c-1.3-2.2-2.3-4.5-2.9-7c0.4,8.1,1.7,16.1,2.1,24.6c-1.4,2.2-1.9-5.1-2.7-8.1c0.3,9.4,0.4,24.4,2.5,27.4l1-6c0,3.4-1.9,1.7-2.2-0.8
	c-1.4-8.1,1.1-11.6,1.9-12l0.3,6c4.8-6,0-24,0.7-36l3.2,5.1l-2.4-12.4c1-2.6,2.9-4.3,3.2,1.6c1.9-8.6-0.9-7.7,1.1-15
	c0.3-0.8,0.5-0.4,0.6,0.3l-0.7-8.4c0.7,1.7,2.4-1.3,1.8,3.8c2.4-15-1.7-24.4,1-30l0.2,1.3c-0.4-21-2.4-2.1-4.7-17.9l6.4-10.4
	l-2.4-2.1c0.2-2.2,0.5-6.4,1.4-5.6c-1.4-8.1-1.1,1.3-2.5-3.4c2.6-10.3-0.1-28.7,3.8-30.9c-1.7-3.8-1.7,9.9-2.7-1.2
	c4.3-3-0.3-12.9,1.9-22.3c2.1,3,0.7,12,2.9,2.5c-3.5-5.9,1.4-18.5,0.9-26.5c-2.9-0.5-0.7-17.5-1.2-31c1,0.9,2.4-25.3,3.8-37.8
	l0.5,0.4c-2.9-2.5-1.9-15.4-2.2-24.8c1.7,0.4,2.4,2.1,3,7.2l0.2-8.8c-0.9-2.1-1.3-4.9-1.4-10.6l2.1,2.3c0.2-11.8-1.8-23.8,0.1-38.9
	c-2-0.9-6,11.9-6.9-4.2c1.1-0.6,3-1.1,3.4,3.1c-0.1-1.4-0.8-4.9-0.2-7.7l1.7,6.4c1-6.9-1.5-3.6-1.1-9.1c1.6,0.2,1.2-4,2.5-3.2
	c0.1,1.4-0.8,4.8-0.2,6.9c0.5-6.2,1.6-13.7,2.9-16.1c-0.9,0.5-2.1-0.1-2.2-4.6c0.2-11.8,2-4,3-10.8c-1-2.9,0.3-10.4-2-10.6
	c0.1-3.4,1.2-4,1.9-5.4c-0.9-6.1,0.5-28.4-2.2-21.6l-0.2,1.6c0-0.3,0-0.6-0.1-1l0,0c-1.8-20,2.5-41.4,2.1-61.2h0.8
	c-0.6-11.8,0.2-26.3-1.2-34.8c0.1-3.5,1.7-8.2,2.6-6.7c-0.3-9.1-1.2-10.1,0.5-23.1c1.1,9.1,1.3-3.1,0.8,9.3c1-11.7,2.3-14.3,0.5-27
	c1.9,4.3,2.8-8.8,2.3-14.4l-1.7,8.2c-0.1-6.3,0.2-11.8,0.5-17.3l2.6,3.1c3.9-23.9-4.4-43.5,1.6-61.6c-1.7-6.4-1.7,13-3.7,7.3
	c0.7-11,4.8-22.4,4.9-25.9c1.9-15.1-3.5-14.2-2.1-30c-1,2-3.6,3.8-4.2-8c0.7-11,4.3-13.5,4.9-6.5c0,2.6-0.3,3.9-0.6,3.8
	c0.2,3.6,0.5,8.3,1.7,3.9l-0.9-1.5c1.1-5.5,1.4-20.7,2.9-17.1c-0.7-8.4-1.5-3.6-2.1,2.6c1.7-14.1,0.6-22.1,1.9-36.7
	c-0.6,2.3-1.7,4.4-1.7,2.1c1.7-21.4-1.6-9.5-1.6-24c1.6-8.2,3.4,3,2.5-11.6c1.2-8.9,2.6-1.8,3.2,1.7c-1.5-13.4,1.8-24.8,2.3-32.4
	l0.6,7c-0.3-3.7-0.3-7.4-0.2-11.1l-2,4c0.4-4.1,0.5-7.6,1.3-7.5c-1.1-4.3-3.2,3.2-4.7-5.3c1.1-5.5-0.6-16.7,1.9-18.6
	c-1.3,17.2,2.6-1.8,2.6,12.8c-0.2-3.5-0.1-6.9,0.3-10.4c0.3-0.6,0.5,0.6,0.6,1.7c2.7-16.4-2.7-7.6-2.2-24.8c1.4,2.2,2.8-3.9,2.6-6.7
	c-0.2,6.9-2.4,3.2-3.4-3.1c1.4-10.9-0.5-11.9-0.3-17.7l-0.7,6.5c-1.4-2.2-1-7.7-1.3-15.4c1.1-0.6,0.6,7,1.2,4.2
	c-2.3-8.6,3-19.1,1.7-31c1.1-5.5,2.7-0.5,3.4-5.3c-1.5-13.3,2.3-14.3,1.1-28.3c-2,4-1.6,4.7-3.2-5.2l0.8,23l-2.4-14.8
	c-0.2,6.9,0.9,14.6,0.5,18.8c-1.4-7-0.9-6.3-2.6-3c3.1-9.4-1.2-18.8,0.9-29.7l4.7,0.4c2.5-16.4-1.8-29.3-0.1-50.6l-1,6.9
	c-1.8-2.9,0-13.2-0.6-20.1c1.6,0.7,2.2-3.6,3.3-6.6c-1.2,0.3,0.5-15.6-2.7-17.6l2.3-9.5c1.2-17.2-4-19.8-3.1-36.4
	c1.6,5,2.9-2.5,3.9,8.7c0.1-5.5,0.5-10.5-0.6-10.6c1.1-3.2-1.8-15.4-0.2-20.5c-0.6-2.3-2.3-3.2-2-9.4c0.3-0.7,0.8,0,0.8,0
	c-0.8,0-0.8-9.8-2.7-4.4c5.3-17,0.6-47.7,5.2-62.4c-0.3-12.1-0.5-26.7-0.4-37.7c0.4,0.7,0.8,0,0.6,2.1c1.8-15.1-4.3-9.4-2.3-26.6
	c2.7-8.8,1.2,9.2,2.3,3.7c5.2-2.3-0.3-20.8,3-32.3l0.2,2.8c1.9-8.8-1.5-21.7-0.9-36.1c0,0,0.4,0.7,0.8,0.1c-2.4-9.9-3-28.7-3.4-42.7
	c2,4.4,1,6.3,3.1,3.7c-0.2-6.2-3.3,1.8-3.7-10.7c1.2-4,2.3-13,4.6-14.2l-0.1,11.8c3-6,0.2-15.2,0.8-21.4l1.2,0.8
	c-0.1-18-3.2-18.3-2.6-37.7l-1,2c-2.9-10.6,1.9-8.8-0.2-19.4l3.2-3.1c-0.6-7-2.6-24.5-3-37c2.2,7.1,3.1,21.8,4.4,30.9
	c0.2-6.9,0.2-23.5-1.3-27.2c0.2,2.8,1,6.3,0.4,9.1c-2.3-8.5-3.3-19.7-3-33.5c6.1,2.6,2.2-35.9,7.1-45.8c-1.9-24.4,1.8-48.4,1.9-76.8
	c-4.9,10,0-8.3-4.9-6.6c-0.2-6.6-0.1-9.2,0.2-9.7l3.2-20c1.5-4.7,1,6.3,2.1,5.7c0.6-14.5,2.2-6,3.6-15.6c-1.8,1.9-2.4-5.1-1.6-13.3
	l-2.4,11.6c-2.3-20.3,4.4-17.4,2.2-37.9l1.4,6.5c-0.7-10.5,0.7-38.7-3.1-49c0.6-1.8,2-4.3,2.2,0.3c1-25-3.4-55.8-0.7-75.2l0.8,1.6
	c-0.3-4.7-2.1-8.2-0.8-14c0.5,0.3,1.2,1.9,1.3-0.3c-0.4-2.5-1.9-12.4-1.1-18.6l1.3,5.3c1.9-24.4-2.7-37.5-3.3-58
	c3.5,0.1,5-19.1,5.6-28.7l0.5,0.3c0.8-28.4-2.3-48.3-3.4-74.7c4-16.3,2.3-55.3,4.8-81.6c-0.7,4-2.7-0.7-3-5.4
	c0.8-6.2-2.2-17.1,1-16.1l-0.1,2.2c3.2-4.6,2.6-17.3,2.7-27.2l-4.2-1.7c6.4-25.8-1.6-67.8,4.1-81.9c-1-6.3-0.9-14-1.9-20.2l2.3,0.4
	c0.8-17.3,1.1-25.9,0.8-47.3l1.6,4.4c0.3-12.1-6.4-15.3-6.4-26.4l3.4-3.3c0.2-21,3.3-42.3,0.4-63.2c0.5,0.3,1.5,1,1.6,4.4
	c0.2-9.9,2.6-38.3-2.1-34.8c3-0.2,0.5-21.7-0.8-33.1l2.2,1.8c-2.8-9.6-3.6-9.9-4.2-23.3c0.3-3.2,1.8-2.8,1.2,1.4
	c1.3-10.6-2-8.3-0.8-21.1l1.4,4.8c0.3-10.9-0.5-10-2.1-16c-0.8-6.8,0.7-20.6,2.8-22.2c-1.2-1.5-2.8-7.5-2.2-13.9
	c0.8-0.9,1.2,1.5,1.4,2.7c1.7-18.2-2.4-27.1-0.1-39.6c0.7-0.2,1.1-1.1,1.3-2.1c-0.1,14.5-0.3,26.1-0.5,25c2,0,2.5-11.7,5.3-2.3
	c-1.5-9.4-4.8-25.5-3.7-36.8c0.2-0.5,0.4-1,0.7-1.5l0.2,1.2c0.2-2.4,0.1-4.8-0.3-7.2c0.4-3.6,0.6-5.9,0.7-9.4
	c1.7-1.3,1-13.4,1.1-19.2c-2.3,0.5-1.8-7.2-3.8,0c0.2-0.9,0.3,1.1,0.3,5c0,0.8,0.1,1.7,0.2,2.5l-0.2-0.4c0,3.8,0,8.8,0.1,14.5
	c-1.1-4.6-2-9.4-0.8-15.8c-1.4-3-2.9-6.3-3.6-8.2c3.2-8,5-23.3,6.9-25.4c-1.2-17.8-0.6-41.9-4.7-53.1c-0.5-5.1,1.2-5.8,1.9-7.7
	c0.4,2.9,0.3,6.4,0.9,8c-1-10.1-0.2-30-3.2-32.4c1.4-12.7,2.7,7.2,2.3-10.3l0.9,2.4c4.9-34.4-7.3-56-1.1-94.2c-0.4,2.6-0.6,4-1,4.5
	c2.8-43.5-2.1-89.7,2.3-132.7c0.9-12.2-1-13.5-2.4-21l2.4-2.6l-2.8-12.8c-2-18.1,6-31.3,2.2-54.2l-1.6,3c0.3-8.2-0.9-26,1-24.7
	c-1.1-1.8-1.3-3.9-0.8-5.9l1.3-0.2l-2.1-20.2c1-15.6,5,2.5,5.3-20.4c-0.5-8.5-3.6-24.2-4.5-21c-0.1,3.4-0.8,8.8-2.1,9l-0.6-7.8
	c-3.7-1.4-7.5-7.4-10.2,11.7l2.2,13.3l-1.8,4.3l-0.1-11.2c-1.7,6.3-0.2,10.4,0.8,14.9c-1,1.1-1.6,2.9-2,5.6l3.5,13
	c-1.5,1.6-2.9-5.9-3.7,2.9c1.6,6.1,3.3-5.8,4.3,4.3c-1.7,6.3-3.1,4.5-1.7,12c-1,1-1.6-0.5-2-3.5c1.1,6.6,0.4,17.6,2.4,21
	c-2.1,6.6,0.5,22.4-3,21.7c0.8,2.1,2.7,11.7,2.9,17.8c-4.2-11.2-0.3,22.8-4.8,19.9c3.8,8.2,1.6,29.8,3.7,44.4
	c-0.5-1.2-0.8-2.4-0.7-3.7c-0.3,8.2-1.5,10.6-2.2,15.9c3.1,1.1,3.8,13.9,5.7,20.8c-3.1,10.1-3.7-6.1-6.6-3
	c2.5-0.5,2.5,17.5,4.6,14.1c-1.9,7.7-0.9,6.6-3.6,10.6c3.9,1.4,0.6,7.2,3,13.6c-2,11.1-3.7,2.9-2.6,15.1
	C1833.5,286.2,1832.2,275.3,1832.2,275.3z M1837.4,566.6L1837.4,566.6c0-2.5-0.1-4.7-0.1-6C1837.2,561.8,1837.3,563.5,1837.4,566.6
	L1837.4,566.6z M1837.2,591c0.1-3,0.1-6.7,0.2-10.6c0.8-0.8,1.6,0.1,1.5,2.5C1838.4,581.6,1837.9,587.4,1837.2,591L1837.2,591z
	 M1853.1,539.4c0.3,3.9-0.2,5.2-0.6,5.7c0-1.8-0.1-4-0.2-6.8c-0.1-0.1-0.2-0.3-0.3-0.5C1852.5,538.2,1852.9,538.8,1853.1,539.4z"/>
<path class="st2" d="M1865.7,515.2c0-0.6-0.1-0.9-0.2-1.6c-0.2,0.8-0.4,1.5-0.5,2.3c0.2,0.5,0.5,1,0.7,1.4
	C1865.7,516.5,1865.7,515.8,1865.7,515.2z"/>
<path class="st2" d="M1823.1,2733.2l0.1-0.5c-0.1,0.4-0.2,0.7-0.3,1.1C1822.9,2733.5,1823,2733.3,1823.1,2733.2z"/>
<polygon class="st2" points="1845.4,911.6 1845.9,911.6 1845.5,909.5 "/>
<path class="st2" d="M1811.4,2867.6c-0.3,0.5-0.6,1.1-0.6,1.8C1811.1,2868.9,1811.3,2868.3,1811.4,2867.6z"/>
<path class="st2" d="M1809.1,2925.8l-1,8.2C1808.7,2930.5,1809,2927.9,1809.1,2925.8z"/>
<path class="st2" d="M1806.7,2970.5c0.2,0.4,0.6,0.7,0.9,0.9v-0.1L1806.7,2970.5z"/>
<path class="st2" d="M1823.7,2259.1c0-0.6,0-1.2-0.1-1.7C1823.3,2253.3,1823.4,2256,1823.7,2259.1z"/>
<path class="st2" d="M1823.6,2470.9c-0.3-2.3-0.7-4.5-0.9-6.8C1822.4,2467.8,1822.3,2470.8,1823.6,2470.9z"/>
<path class="st2" d="M1826.4,2022.6L1826.4,2022.6c0-0.5,0-1,0-1.5V2022.6z"/>
<path class="st2" d="M1823,2454.2c-0.5,3.3-0.6,6.6-0.3,9.8C1823.1,2460.8,1823.2,2457.5,1823,2454.2z"/>
<path class="st2" d="M1752,3177.9l-0.2,2.1c0.2,0,0.3,0.1,0.4,0.3L1752,3177.9z"/>
<path class="st2" d="M1752.2,3180.3l0.2,2.4C1752.5,3181.9,1752.4,3181.1,1752.2,3180.3z"/>
<path class="st2" d="M1752.8,3187.8l-0.4-5.1C1752.3,3184.5,1752.2,3186.6,1752.8,3187.8z"/>
<path class="st2" d="M1755,3118.7l-0.8-0.7C1754.3,3118.4,1754.6,3118.6,1755,3118.7z"/>
<path class="st2" d="M1755.3,3100.7c-0.3,4.3-2.1,10.7-1.8,16.7l0.6,0.6C1753.1,3115.2,1756.6,3104.9,1755.3,3100.7z"/>
<path class="st2" d="M1767.9,3025.9l-1.1,15.1c1-2.6,2.2-6,2.2,0.8C1772.2,3022.9,1766.9,3045.7,1767.9,3025.9z"/>
<path class="st2" d="M1817.9,2965.7c0.2,8.1,1.3,0,1.7,0.4C1819,2960.9,1818.9,2959.6,1817.9,2965.7z"/>
<path class="st2" d="M1827.9,2627.7l2,0.9C1829.8,2622.3,1829.2,2628.5,1827.9,2627.7z"/>
<polygon class="st2" points="1819.1,2562.8 1817.7,2568.8 1819.5,2571.8 "/>
<polygon class="st2" points="1834.7,2525 1834.9,2527.7 1834.4,2517.3 "/>
<path class="st2" d="M1847.5,1957.2l-2.6,1.8C1845.4,1963.3,1848.2,1964.2,1847.5,1957.2z"/>
<path class="st2" d="M1849.8,1712c1.3-2.7,2.2-9.5,1.1-13.8C1850.6,1703.7,1849.5,1709.2,1849.8,1712z"/>
<polygon class="st2" points="1864.9,976.9 1865.7,981.8 1865.1,972.5 "/>
</svg>
