<svg id="Layer_1" data-name="Layer 1" xmlns="http://www.w3.org/2000/svg" viewBox="0 0 73 73"><defs><style>.cls-1{fill:#c03b1d;}.cls-2{fill:#11055f;}</style></defs><circle class="cls-1" cx="36.5" cy="36.5" r="36.5"/><path class="cls-2" d="M38.31,52.64h-20V21.7h10c6.81,11,2,10.76.07,20.68a23.73,23.73,0,0,1,8,.73C36.08,46.11,36.2,47.81,38.31,52.64Z"/><path class="cls-2" d="M59.07,29.62a34.92,34.92,0,0,1-7.64,2.05c-1.82,10.14-5.1,10.76.39,21h-10c-7.19-13.16.11-12,1.36-21-2.27-.4-3.36-.68-5.79-1.15,0-2.8-.26-4.35-2.83-8.79H59.07Z"/></svg>